<?xml version="1.0" encoding="UTF-8" standalone="no"?>
<!DOCTYPE svg PUBLIC "-//W3C//DTD SVG 1.1//EN"
 "http://www.w3.org/Graphics/SVG/1.1/DTD/svg11.dtd">
<!-- Generated by graphviz version 2.40.1 (20161225.0304)
 -->
<!-- Title: dependencies Pages: 1 -->
<svg width="1662pt" height="211pt"
 viewBox="0.00 0.00 1662.00 211.00" xmlns="http://www.w3.org/2000/svg" xmlns:xlink="http://www.w3.org/1999/xlink">
<g id="graph0" class="graph" transform="scale(1 1) rotate(0) translate(4 207)">
<title>dependencies</title>
<polygon fill="#ffffff" stroke="transparent" points="-4,4 -4,-207 1658,-207 1658,4 -4,4"/>
<text text-anchor="start" x="806.0091" y="-42.4" font-family="sans-serif" font-weight="bold" font-size="14.00" fill="#000000">Legend</text>
<polygon fill="#ffffb3" stroke="transparent" points="593,-10 593,-30 613,-30 613,-10 593,-10"/>
<text text-anchor="start" x="616.629" y="-15.4" font-family="sans-serif" font-size="14.00" fill="#000000"> &#160;Declarations</text>
<polygon fill="#8dd3c7" stroke="transparent" points="706,-10 706,-30 726,-30 726,-10 706,-10"/>
<text text-anchor="start" x="729.7251" y="-15.4" font-family="sans-serif" font-size="14.00" fill="#000000"> &#160;Module</text>
<polygon fill="#80b1d3" stroke="transparent" points="792,-10 792,-30 812,-30 812,-10 792,-10"/>
<text text-anchor="start" x="815.7812" y="-15.4" font-family="sans-serif" font-size="14.00" fill="#000000"> &#160;Bootstrap</text>
<polygon fill="#fdb462" stroke="transparent" points="889,-10 889,-30 909,-30 909,-10 889,-10"/>
<text text-anchor="start" x="912.6732" y="-15.4" font-family="sans-serif" font-size="14.00" fill="#000000"> &#160;Providers</text>
<polygon fill="#fb8072" stroke="transparent" points="985,-10 985,-30 1005,-30 1005,-10 985,-10"/>
<text text-anchor="start" x="1008.7258" y="-15.4" font-family="sans-serif" font-size="14.00" fill="#000000"> &#160;Exports</text>
<g id="clust1" class="cluster">
<title>cluster_FeedbackPageModule</title>
<polygon fill="none" stroke="#000000" stroke-dasharray="1,5" points="8,-70 8,-195 1646,-195 1646,-70 8,-70"/>
</g>
<g id="clust2" class="cluster">
<title>cluster_FeedbackPageModule_declarations</title>
<polygon fill="none" stroke="#000000" points="1526,-78 1526,-130 1638,-130 1638,-78 1526,-78"/>
</g>
<g id="clust4" class="cluster">
<title>cluster_FeedbackPageModule_imports</title>
<polygon fill="none" stroke="#000000" points="16,-78 16,-130 1518,-130 1518,-78 16,-78"/>
</g>
<!-- FeedbackPage -->
<g id="node1" class="node">
<title>FeedbackPage</title>
<polygon fill="#ffffb3" stroke="#000000" points="1630.3529,-122 1533.6471,-122 1533.6471,-86 1630.3529,-86 1630.3529,-122"/>
<text text-anchor="middle" x="1582" y="-99.8" font-family="Times,serif" font-size="14.00" fill="#000000">FeedbackPage</text>
</g>
<!-- FeedbackPageModule -->
<g id="node2" class="node">
<title>FeedbackPageModule</title>
<polygon fill="#8dd3c7" stroke="#000000" points="931.4032,-187 928.4032,-191 907.4032,-191 904.4032,-187 790.5968,-187 790.5968,-151 931.4032,-151 931.4032,-187"/>
<text text-anchor="middle" x="861" y="-164.8" font-family="Times,serif" font-size="14.00" fill="#000000">FeedbackPageModule</text>
</g>
<!-- FeedbackPage&#45;&gt;FeedbackPageModule -->
<g id="edge1" class="edge">
<title>FeedbackPage&#45;&gt;FeedbackPageModule</title>
<path fill="none" stroke="#000000" d="M1582,-122.0908C1582,-145.1328 1582,-182 1582,-182 1582,-182 941.4453,-182 941.4453,-182"/>
<polygon fill="#000000" stroke="#000000" points="941.4453,-178.5001 931.4453,-182 941.4452,-185.5001 941.4453,-178.5001"/>
</g>
<!-- CommonModule -->
<g id="node3" class="node">
<title>CommonModule</title>
<polygon fill="#8dd3c7" stroke="#000000" points="1509.6681,-122 1506.6681,-126 1485.6681,-126 1482.6681,-122 1398.3319,-122 1398.3319,-86 1509.6681,-86 1509.6681,-122"/>
<text text-anchor="middle" x="1454" y="-99.8" font-family="Times,serif" font-size="14.00" fill="#000000">CommonModule</text>
</g>
<!-- CommonModule&#45;&gt;FeedbackPageModule -->
<g id="edge2" class="edge">
<title>CommonModule&#45;&gt;FeedbackPageModule</title>
<path fill="none" stroke="#000000" d="M1454,-122.2843C1454,-143.3211 1454,-175 1454,-175 1454,-175 941.3536,-175 941.3536,-175"/>
<polygon fill="#000000" stroke="#000000" points="941.3536,-171.5001 931.3536,-175 941.3535,-178.5001 941.3536,-171.5001"/>
</g>
<!-- IonicModule -->
<g id="node4" class="node">
<title>IonicModule</title>
<polygon fill="#8dd3c7" stroke="#000000" points="1380.3162,-122 1377.3162,-126 1356.3162,-126 1353.3162,-122 1291.6838,-122 1291.6838,-86 1380.3162,-86 1380.3162,-122"/>
<text text-anchor="middle" x="1336" y="-99.8" font-family="Times,serif" font-size="14.00" fill="#000000">IonicModule</text>
</g>
<!-- IonicModule&#45;&gt;FeedbackPageModule -->
<g id="edge3" class="edge">
<title>IonicModule&#45;&gt;FeedbackPageModule</title>
<path fill="none" stroke="#000000" d="M1336,-122.1061C1336,-141.3391 1336,-169 1336,-169 1336,-169 941.3435,-169 941.3435,-169"/>
<polygon fill="#000000" stroke="#000000" points="941.3435,-165.5001 931.3435,-169 941.3434,-172.5001 941.3435,-165.5001"/>
</g>
<!-- RouterModule.forChild(args) -->
<g id="node5" class="node">
<title>RouterModule.forChild(args)</title>
<polygon fill="#8dd3c7" stroke="#000000" points="1273.7323,-122 1270.7323,-126 1249.7323,-126 1246.7323,-122 1092.2677,-122 1092.2677,-86 1273.7323,-86 1273.7323,-122"/>
<text text-anchor="middle" x="1183" y="-99.8" font-family="Times,serif" font-size="14.00" fill="#000000">RouterModule.forChild(args)</text>
</g>
<!-- RouterModule.forChild(args)&#45;&gt;FeedbackPageModule -->
<g id="edge4" class="edge">
<title>RouterModule.forChild(args)&#45;&gt;FeedbackPageModule</title>
<path fill="none" stroke="#000000" d="M1183,-122.0225C1183,-139.3734 1183,-163 1183,-163 1183,-163 941.2664,-163 941.2664,-163"/>
<polygon fill="#000000" stroke="#000000" points="941.2664,-159.5001 931.2664,-163 941.2663,-166.5001 941.2664,-159.5001"/>
</g>
<!-- MatStepperModule -->
<g id="node6" class="node">
<title>MatStepperModule</title>
<polygon fill="#8dd3c7" stroke="#000000" points="1074.3627,-122 1071.3627,-126 1050.3627,-126 1047.3627,-122 949.6373,-122 949.6373,-86 1074.3627,-86 1074.3627,-122"/>
<text text-anchor="middle" x="1012" y="-99.8" font-family="Times,serif" font-size="14.00" fill="#000000">MatStepperModule</text>
</g>
<!-- MatStepperModule&#45;&gt;FeedbackPageModule -->
<g id="edge5" class="edge">
<title>MatStepperModule&#45;&gt;FeedbackPageModule</title>
<path fill="none" stroke="#000000" d="M1012,-122.2396C1012,-137.5706 1012,-157 1012,-157 1012,-157 941.6368,-157 941.6368,-157"/>
<polygon fill="#000000" stroke="#000000" points="941.6368,-153.5001 931.6368,-157 941.6367,-160.5001 941.6368,-153.5001"/>
</g>
<!-- MatFormFieldModule -->
<g id="node7" class="node">
<title>MatFormFieldModule</title>
<polygon fill="#8dd3c7" stroke="#000000" points="931.712,-122 928.712,-126 907.712,-126 904.712,-122 790.288,-122 790.288,-86 931.712,-86 931.712,-122"/>
<text text-anchor="middle" x="861" y="-99.8" font-family="Times,serif" font-size="14.00" fill="#000000">MatFormFieldModule</text>
</g>
<!-- MatFormFieldModule&#45;&gt;FeedbackPageModule -->
<g id="edge6" class="edge">
<title>MatFormFieldModule&#45;&gt;FeedbackPageModule</title>
<path fill="none" stroke="#000000" d="M861,-122.1061C861,-122.1061 861,-140.991 861,-140.991"/>
<polygon fill="#000000" stroke="#000000" points="857.5001,-140.9909 861,-150.991 864.5001,-140.991 857.5001,-140.9909"/>
</g>
<!-- ReactiveFormsModule -->
<g id="node8" class="node">
<title>ReactiveFormsModule</title>
<polygon fill="#8dd3c7" stroke="#000000" points="772.3047,-122 769.3047,-126 748.3047,-126 745.3047,-122 627.6953,-122 627.6953,-86 772.3047,-86 772.3047,-122"/>
<text text-anchor="middle" x="700" y="-99.8" font-family="Times,serif" font-size="14.00" fill="#000000">ReactiveFormsModule</text>
</g>
<!-- ReactiveFormsModule&#45;&gt;FeedbackPageModule -->
<g id="edge7" class="edge">
<title>ReactiveFormsModule&#45;&gt;FeedbackPageModule</title>
<path fill="none" stroke="#000000" d="M700,-122.2396C700,-137.5706 700,-157 700,-157 700,-157 780.3831,-157 780.3831,-157"/>
<polygon fill="#000000" stroke="#000000" points="780.3831,-160.5001 790.3831,-157 780.383,-153.5001 780.3831,-160.5001"/>
</g>
<!-- MenuTitleComponentModule -->
<g id="node9" class="node">
<title>MenuTitleComponentModule</title>
<polygon fill="#8dd3c7" stroke="#000000" points="609.9804,-122 606.9804,-126 585.9804,-126 582.9804,-122 426.0196,-122 426.0196,-86 609.9804,-86 609.9804,-122"/>
<text text-anchor="middle" x="518" y="-99.8" font-family="Times,serif" font-size="14.00" fill="#000000">MenuTitleComponentModule</text>
</g>
<!-- MenuTitleComponentModule&#45;&gt;FeedbackPageModule -->
<g id="edge8" class="edge">
<title>MenuTitleComponentModule&#45;&gt;FeedbackPageModule</title>
<path fill="none" stroke="#000000" d="M518,-122.0225C518,-139.3734 518,-163 518,-163 518,-163 780.7611,-163 780.7611,-163"/>
<polygon fill="#000000" stroke="#000000" points="780.7612,-166.5001 790.7611,-163 780.7611,-159.5001 780.7612,-166.5001"/>
</g>
<!-- MatInputModule -->
<g id="node10" class="node">
<title>MatInputModule</title>
<polygon fill="#8dd3c7" stroke="#000000" points="407.6513,-122 404.6513,-126 383.6513,-126 380.6513,-122 296.3487,-122 296.3487,-86 407.6513,-86 407.6513,-122"/>
<text text-anchor="middle" x="352" y="-99.8" font-family="Times,serif" font-size="14.00" fill="#000000">MatInputModule</text>
</g>
<!-- MatInputModule&#45;&gt;FeedbackPageModule -->
<g id="edge9" class="edge">
<title>MatInputModule&#45;&gt;FeedbackPageModule</title>
<path fill="none" stroke="#000000" d="M352,-122.1061C352,-141.3391 352,-169 352,-169 352,-169 780.7601,-169 780.7601,-169"/>
<polygon fill="#000000" stroke="#000000" points="780.7602,-172.5001 790.7601,-169 780.7601,-165.5001 780.7602,-172.5001"/>
</g>
<!-- MatButtonModule -->
<g id="node11" class="node">
<title>MatButtonModule</title>
<polygon fill="#8dd3c7" stroke="#000000" points="278.2176,-122 275.2176,-126 254.2176,-126 251.2176,-122 157.7824,-122 157.7824,-86 278.2176,-86 278.2176,-122"/>
<text text-anchor="middle" x="218" y="-99.8" font-family="Times,serif" font-size="14.00" fill="#000000">MatButtonModule</text>
</g>
<!-- MatButtonModule&#45;&gt;FeedbackPageModule -->
<g id="edge10" class="edge">
<title>MatButtonModule&#45;&gt;FeedbackPageModule</title>
<path fill="none" stroke="#000000" d="M218,-122.2843C218,-143.3211 218,-175 218,-175 218,-175 780.6563,-175 780.6563,-175"/>
<polygon fill="#000000" stroke="#000000" points="780.6564,-178.5001 790.6563,-175 780.6563,-171.5001 780.6564,-178.5001"/>
</g>
<!-- MatSelectModule -->
<g id="node12" class="node">
<title>MatSelectModule</title>
<polygon fill="#8dd3c7" stroke="#000000" points="140.3076,-122 137.3076,-126 116.3076,-126 113.3076,-122 23.6924,-122 23.6924,-86 140.3076,-86 140.3076,-122"/>
<text text-anchor="middle" x="82" y="-99.8" font-family="Times,serif" font-size="14.00" fill="#000000">MatSelectModule</text>
</g>
<!-- MatSelectModule&#45;&gt;FeedbackPageModule -->
<g id="edge11" class="edge">
<title>MatSelectModule&#45;&gt;FeedbackPageModule</title>
<path fill="none" stroke="#000000" d="M82,-122.0908C82,-145.1328 82,-182 82,-182 82,-182 780.495,-182 780.495,-182"/>
<polygon fill="#000000" stroke="#000000" points="780.495,-185.5001 790.495,-182 780.495,-178.5001 780.495,-185.5001"/>
</g>
</g>
</svg>
