<?xml version="1.0" encoding="UTF-8" standalone="no"?>
<!DOCTYPE svg PUBLIC "-//W3C//DTD SVG 1.1//EN"
 "http://www.w3.org/Graphics/SVG/1.1/DTD/svg11.dtd">
<!-- Generated by graphviz version 2.40.1 (20161225.0304)
 -->
<!-- Title: dependencies Pages: 1 -->
<svg width="929pt" height="211pt"
 viewBox="0.00 0.00 929.00 211.00" xmlns="http://www.w3.org/2000/svg" xmlns:xlink="http://www.w3.org/1999/xlink">
<g id="graph0" class="graph" transform="scale(1 1) rotate(0) translate(4 207)">
<title>dependencies</title>
<polygon fill="#ffffff" stroke="transparent" points="-4,4 -4,-207 925,-207 925,4 -4,4"/>
<text text-anchor="start" x="439.5091" y="-42.4" font-family="sans-serif" font-weight="bold" font-size="14.00" fill="#000000">Legend</text>
<polygon fill="#ffffb3" stroke="transparent" points="226.5,-10 226.5,-30 246.5,-30 246.5,-10 226.5,-10"/>
<text text-anchor="start" x="250.129" y="-15.4" font-family="sans-serif" font-size="14.00" fill="#000000"> &#160;Declarations</text>
<polygon fill="#8dd3c7" stroke="transparent" points="339.5,-10 339.5,-30 359.5,-30 359.5,-10 339.5,-10"/>
<text text-anchor="start" x="363.2251" y="-15.4" font-family="sans-serif" font-size="14.00" fill="#000000"> &#160;Module</text>
<polygon fill="#80b1d3" stroke="transparent" points="425.5,-10 425.5,-30 445.5,-30 445.5,-10 425.5,-10"/>
<text text-anchor="start" x="449.2812" y="-15.4" font-family="sans-serif" font-size="14.00" fill="#000000"> &#160;Bootstrap</text>
<polygon fill="#fdb462" stroke="transparent" points="522.5,-10 522.5,-30 542.5,-30 542.5,-10 522.5,-10"/>
<text text-anchor="start" x="546.1732" y="-15.4" font-family="sans-serif" font-size="14.00" fill="#000000"> &#160;Providers</text>
<polygon fill="#fb8072" stroke="transparent" points="618.5,-10 618.5,-30 638.5,-30 638.5,-10 618.5,-10"/>
<text text-anchor="start" x="642.2258" y="-15.4" font-family="sans-serif" font-size="14.00" fill="#000000"> &#160;Exports</text>
<g id="clust1" class="cluster">
<title>cluster_RequestbookPageModule</title>
<polygon fill="none" stroke="#000000" stroke-dasharray="1,5" points="8,-70 8,-195 913,-195 913,-70 8,-70"/>
</g>
<g id="clust2" class="cluster">
<title>cluster_RequestbookPageModule_declarations</title>
<polygon fill="none" stroke="#000000" points="773,-78 773,-130 905,-130 905,-78 773,-78"/>
</g>
<g id="clust4" class="cluster">
<title>cluster_RequestbookPageModule_imports</title>
<polygon fill="none" stroke="#000000" points="16,-78 16,-130 765,-130 765,-78 16,-78"/>
</g>
<!-- RequestbookPage -->
<g id="node1" class="node">
<title>RequestbookPage</title>
<polygon fill="#ffffb3" stroke="#000000" points="897.3132,-122 780.6868,-122 780.6868,-86 897.3132,-86 897.3132,-122"/>
<text text-anchor="middle" x="839" y="-99.8" font-family="Times,serif" font-size="14.00" fill="#000000">RequestbookPage</text>
</g>
<!-- RequestbookPageModule -->
<g id="node2" class="node">
<title>RequestbookPageModule</title>
<polygon fill="#8dd3c7" stroke="#000000" points="604.8627,-187 601.8627,-191 580.8627,-191 577.8627,-187 445.1373,-187 445.1373,-151 604.8627,-151 604.8627,-187"/>
<text text-anchor="middle" x="525" y="-164.8" font-family="Times,serif" font-size="14.00" fill="#000000">RequestbookPageModule</text>
</g>
<!-- RequestbookPage&#45;&gt;RequestbookPageModule -->
<g id="edge1" class="edge">
<title>RequestbookPage&#45;&gt;RequestbookPageModule</title>
<path fill="none" stroke="#000000" d="M839,-122.2843C839,-143.3211 839,-175 839,-175 839,-175 615.0479,-175 615.0479,-175"/>
<polygon fill="#000000" stroke="#000000" points="615.0479,-171.5001 605.0479,-175 615.0479,-178.5001 615.0479,-171.5001"/>
</g>
<!-- CommonModule -->
<g id="node3" class="node">
<title>CommonModule</title>
<polygon fill="#8dd3c7" stroke="#000000" points="756.6681,-122 753.6681,-126 732.6681,-126 729.6681,-122 645.3319,-122 645.3319,-86 756.6681,-86 756.6681,-122"/>
<text text-anchor="middle" x="701" y="-99.8" font-family="Times,serif" font-size="14.00" fill="#000000">CommonModule</text>
</g>
<!-- CommonModule&#45;&gt;RequestbookPageModule -->
<g id="edge2" class="edge">
<title>CommonModule&#45;&gt;RequestbookPageModule</title>
<path fill="none" stroke="#000000" d="M701,-122.0225C701,-139.3734 701,-163 701,-163 701,-163 615.0176,-163 615.0176,-163"/>
<polygon fill="#000000" stroke="#000000" points="615.0176,-159.5001 605.0176,-163 615.0175,-166.5001 615.0176,-159.5001"/>
</g>
<!-- FormsModule -->
<g id="node4" class="node">
<title>FormsModule</title>
<polygon fill="#8dd3c7" stroke="#000000" points="627.8288,-122 624.8288,-126 603.8288,-126 600.8288,-122 532.1712,-122 532.1712,-86 627.8288,-86 627.8288,-122"/>
<text text-anchor="middle" x="580" y="-99.8" font-family="Times,serif" font-size="14.00" fill="#000000">FormsModule</text>
</g>
<!-- FormsModule&#45;&gt;RequestbookPageModule -->
<g id="edge3" class="edge">
<title>FormsModule&#45;&gt;RequestbookPageModule</title>
<path fill="none" stroke="#000000" d="M568.6336,-122.1061C568.6336,-122.1061 568.6336,-140.991 568.6336,-140.991"/>
<polygon fill="#000000" stroke="#000000" points="565.1337,-140.9909 568.6336,-150.991 572.1337,-140.991 565.1337,-140.9909"/>
</g>
<!-- IonicModule -->
<g id="node5" class="node">
<title>IonicModule</title>
<polygon fill="#8dd3c7" stroke="#000000" points="514.3162,-122 511.3162,-126 490.3162,-126 487.3162,-122 425.6838,-122 425.6838,-86 514.3162,-86 514.3162,-122"/>
<text text-anchor="middle" x="470" y="-99.8" font-family="Times,serif" font-size="14.00" fill="#000000">IonicModule</text>
</g>
<!-- IonicModule&#45;&gt;RequestbookPageModule -->
<g id="edge4" class="edge">
<title>IonicModule&#45;&gt;RequestbookPageModule</title>
<path fill="none" stroke="#000000" d="M479.6133,-122.1061C479.6133,-122.1061 479.6133,-140.991 479.6133,-140.991"/>
<polygon fill="#000000" stroke="#000000" points="476.1133,-140.9909 479.6133,-150.991 483.1133,-140.991 476.1133,-140.9909"/>
</g>
<!-- RouterModule.forChild(args) -->
<g id="node6" class="node">
<title>RouterModule.forChild(args)</title>
<polygon fill="#8dd3c7" stroke="#000000" points="407.7323,-122 404.7323,-126 383.7323,-126 380.7323,-122 226.2677,-122 226.2677,-86 407.7323,-86 407.7323,-122"/>
<text text-anchor="middle" x="317" y="-99.8" font-family="Times,serif" font-size="14.00" fill="#000000">RouterModule.forChild(args)</text>
</g>
<!-- RouterModule.forChild(args)&#45;&gt;RequestbookPageModule -->
<g id="edge5" class="edge">
<title>RouterModule.forChild(args)&#45;&gt;RequestbookPageModule</title>
<path fill="none" stroke="#000000" d="M317,-122.0225C317,-139.3734 317,-163 317,-163 317,-163 434.8793,-163 434.8793,-163"/>
<polygon fill="#000000" stroke="#000000" points="434.8793,-166.5001 444.8793,-163 434.8793,-159.5001 434.8793,-166.5001"/>
</g>
<!-- MenuTitleComponentModule -->
<g id="node7" class="node">
<title>MenuTitleComponentModule</title>
<polygon fill="#8dd3c7" stroke="#000000" points="207.9804,-122 204.9804,-126 183.9804,-126 180.9804,-122 24.0196,-122 24.0196,-86 207.9804,-86 207.9804,-122"/>
<text text-anchor="middle" x="116" y="-99.8" font-family="Times,serif" font-size="14.00" fill="#000000">MenuTitleComponentModule</text>
</g>
<!-- MenuTitleComponentModule&#45;&gt;RequestbookPageModule -->
<g id="edge6" class="edge">
<title>MenuTitleComponentModule&#45;&gt;RequestbookPageModule</title>
<path fill="none" stroke="#000000" d="M116,-122.2843C116,-143.3211 116,-175 116,-175 116,-175 434.6828,-175 434.6828,-175"/>
<polygon fill="#000000" stroke="#000000" points="434.6828,-178.5001 444.6828,-175 434.6827,-171.5001 434.6828,-178.5001"/>
</g>
</g>
</svg>
