<?xml version="1.0" encoding="UTF-8" standalone="no"?>
<!DOCTYPE svg PUBLIC "-//W3C//DTD SVG 1.1//EN"
 "http://www.w3.org/Graphics/SVG/1.1/DTD/svg11.dtd">
<!-- Generated by graphviz version 2.40.1 (20161225.0304)
 -->
<!-- Title: dependencies Pages: 1 -->
<svg width="1817pt" height="211pt"
 viewBox="0.00 0.00 1817.00 211.00" xmlns="http://www.w3.org/2000/svg" xmlns:xlink="http://www.w3.org/1999/xlink">
<g id="graph0" class="graph" transform="scale(1 1) rotate(0) translate(4 207)">
<title>dependencies</title>
<polygon fill="#ffffff" stroke="transparent" points="-4,4 -4,-207 1813,-207 1813,4 -4,4"/>
<text text-anchor="start" x="883.5091" y="-42.4" font-family="sans-serif" font-weight="bold" font-size="14.00" fill="#000000">Legend</text>
<polygon fill="#ffffb3" stroke="transparent" points="670.5,-10 670.5,-30 690.5,-30 690.5,-10 670.5,-10"/>
<text text-anchor="start" x="694.129" y="-15.4" font-family="sans-serif" font-size="14.00" fill="#000000"> &#160;Declarations</text>
<polygon fill="#8dd3c7" stroke="transparent" points="783.5,-10 783.5,-30 803.5,-30 803.5,-10 783.5,-10"/>
<text text-anchor="start" x="807.2251" y="-15.4" font-family="sans-serif" font-size="14.00" fill="#000000"> &#160;Module</text>
<polygon fill="#80b1d3" stroke="transparent" points="869.5,-10 869.5,-30 889.5,-30 889.5,-10 869.5,-10"/>
<text text-anchor="start" x="893.2812" y="-15.4" font-family="sans-serif" font-size="14.00" fill="#000000"> &#160;Bootstrap</text>
<polygon fill="#fdb462" stroke="transparent" points="966.5,-10 966.5,-30 986.5,-30 986.5,-10 966.5,-10"/>
<text text-anchor="start" x="990.1732" y="-15.4" font-family="sans-serif" font-size="14.00" fill="#000000"> &#160;Providers</text>
<polygon fill="#fb8072" stroke="transparent" points="1062.5,-10 1062.5,-30 1082.5,-30 1082.5,-10 1062.5,-10"/>
<text text-anchor="start" x="1086.2258" y="-15.4" font-family="sans-serif" font-size="14.00" fill="#000000"> &#160;Exports</text>
<g id="clust1" class="cluster">
<title>cluster_RequestbookPageModule</title>
<polygon fill="none" stroke="#000000" stroke-dasharray="1,5" points="8,-70 8,-195 1801,-195 1801,-70 8,-70"/>
</g>
<g id="clust2" class="cluster">
<title>cluster_RequestbookPageModule_declarations</title>
<polygon fill="none" stroke="#000000" points="1254,-78 1254,-130 1793,-130 1793,-78 1254,-78"/>
</g>
<g id="clust7" class="cluster">
<title>cluster_RequestbookPageModule_imports</title>
<polygon fill="none" stroke="#000000" points="206,-78 206,-130 1246,-130 1246,-78 206,-78"/>
</g>
<g id="clust10" class="cluster">
<title>cluster_RequestbookPageModule_providers</title>
<polygon fill="none" stroke="#000000" points="16,-78 16,-130 198,-130 198,-78 16,-78"/>
</g>
<!-- RequestbookPage -->
<g id="node1" class="node">
<title>RequestbookPage</title>
<polygon fill="#ffffb3" stroke="#000000" points="1785.3132,-122 1668.6868,-122 1668.6868,-86 1785.3132,-86 1785.3132,-122"/>
<text text-anchor="middle" x="1727" y="-99.8" font-family="Times,serif" font-size="14.00" fill="#000000">RequestbookPage</text>
</g>
<!-- RequestbookPageModule -->
<g id="node5" class="node">
<title>RequestbookPageModule</title>
<polygon fill="#8dd3c7" stroke="#000000" points="1085.8627,-187 1082.8627,-191 1061.8627,-191 1058.8627,-187 926.1373,-187 926.1373,-151 1085.8627,-151 1085.8627,-187"/>
<text text-anchor="middle" x="1006" y="-164.8" font-family="Times,serif" font-size="14.00" fill="#000000">RequestbookPageModule</text>
</g>
<!-- RequestbookPage&#45;&gt;RequestbookPageModule -->
<g id="edge1" class="edge">
<title>RequestbookPage&#45;&gt;RequestbookPageModule</title>
<path fill="none" stroke="#000000" d="M1727,-122.0908C1727,-145.1328 1727,-182 1727,-182 1727,-182 1095.9144,-182 1095.9144,-182"/>
<polygon fill="#000000" stroke="#000000" points="1095.9144,-178.5001 1085.9144,-182 1095.9144,-185.5001 1095.9144,-178.5001"/>
</g>
<!-- DropZoneDirective -->
<g id="node2" class="node">
<title>DropZoneDirective</title>
<polygon fill="#ffffb3" stroke="#000000" points="1650.6178,-122 1525.3822,-122 1525.3822,-86 1650.6178,-86 1650.6178,-122"/>
<text text-anchor="middle" x="1588" y="-99.8" font-family="Times,serif" font-size="14.00" fill="#000000">DropZoneDirective</text>
</g>
<!-- DropZoneDirective&#45;&gt;RequestbookPageModule -->
<g id="edge2" class="edge">
<title>DropZoneDirective&#45;&gt;RequestbookPageModule</title>
<path fill="none" stroke="#000000" d="M1588,-122.2843C1588,-143.3211 1588,-175 1588,-175 1588,-175 1096.0087,-175 1096.0087,-175"/>
<polygon fill="#000000" stroke="#000000" points="1096.0087,-171.5001 1086.0087,-175 1096.0087,-178.5001 1096.0087,-171.5001"/>
</g>
<!-- FileuploadComponent -->
<g id="node3" class="node">
<title>FileuploadComponent</title>
<polygon fill="#ffffb3" stroke="#000000" points="1507.7162,-122 1366.2838,-122 1366.2838,-86 1507.7162,-86 1507.7162,-122"/>
<text text-anchor="middle" x="1437" y="-99.8" font-family="Times,serif" font-size="14.00" fill="#000000">FileuploadComponent</text>
</g>
<!-- FileuploadComponent&#45;&gt;RequestbookPageModule -->
<g id="edge3" class="edge">
<title>FileuploadComponent&#45;&gt;RequestbookPageModule</title>
<path fill="none" stroke="#000000" d="M1437,-122.1061C1437,-141.3391 1437,-169 1437,-169 1437,-169 1096.0577,-169 1096.0577,-169"/>
<polygon fill="#000000" stroke="#000000" points="1096.0577,-165.5001 1086.0577,-169 1096.0577,-172.5001 1096.0577,-165.5001"/>
</g>
<!-- FileSizePipe -->
<g id="node4" class="node">
<title>FileSizePipe</title>
<polygon fill="#ffffb3" stroke="#000000" points="1348.2689,-122 1261.7311,-122 1261.7311,-86 1348.2689,-86 1348.2689,-122"/>
<text text-anchor="middle" x="1305" y="-99.8" font-family="Times,serif" font-size="14.00" fill="#000000">FileSizePipe</text>
</g>
<!-- FileSizePipe&#45;&gt;RequestbookPageModule -->
<g id="edge4" class="edge">
<title>FileSizePipe&#45;&gt;RequestbookPageModule</title>
<path fill="none" stroke="#000000" d="M1305,-122.0225C1305,-139.3734 1305,-163 1305,-163 1305,-163 1096.1265,-163 1096.1265,-163"/>
<polygon fill="#000000" stroke="#000000" points="1096.1265,-159.5001 1086.1265,-163 1096.1265,-166.5001 1096.1265,-159.5001"/>
</g>
<!-- CommonModule -->
<g id="node6" class="node">
<title>CommonModule</title>
<polygon fill="#8dd3c7" stroke="#000000" points="1237.6681,-122 1234.6681,-126 1213.6681,-126 1210.6681,-122 1126.3319,-122 1126.3319,-86 1237.6681,-86 1237.6681,-122"/>
<text text-anchor="middle" x="1182" y="-99.8" font-family="Times,serif" font-size="14.00" fill="#000000">CommonModule</text>
</g>
<!-- CommonModule&#45;&gt;RequestbookPageModule -->
<g id="edge5" class="edge">
<title>CommonModule&#45;&gt;RequestbookPageModule</title>
<path fill="none" stroke="#000000" d="M1182,-122.2396C1182,-137.5706 1182,-157 1182,-157 1182,-157 1096.0176,-157 1096.0176,-157"/>
<polygon fill="#000000" stroke="#000000" points="1096.0176,-153.5001 1086.0176,-157 1096.0175,-160.5001 1096.0176,-153.5001"/>
</g>
<!-- FormsModule -->
<g id="node7" class="node">
<title>FormsModule</title>
<polygon fill="#8dd3c7" stroke="#000000" points="1108.8288,-122 1105.8288,-126 1084.8288,-126 1081.8288,-122 1013.1712,-122 1013.1712,-86 1108.8288,-86 1108.8288,-122"/>
<text text-anchor="middle" x="1061" y="-99.8" font-family="Times,serif" font-size="14.00" fill="#000000">FormsModule</text>
</g>
<!-- FormsModule&#45;&gt;RequestbookPageModule -->
<g id="edge6" class="edge">
<title>FormsModule&#45;&gt;RequestbookPageModule</title>
<path fill="none" stroke="#000000" d="M1049.6336,-122.1061C1049.6336,-122.1061 1049.6336,-140.991 1049.6336,-140.991"/>
<polygon fill="#000000" stroke="#000000" points="1046.1337,-140.9909 1049.6336,-150.991 1053.1337,-140.991 1046.1337,-140.9909"/>
</g>
<!-- IonicModule -->
<g id="node8" class="node">
<title>IonicModule</title>
<polygon fill="#8dd3c7" stroke="#000000" points="995.3162,-122 992.3162,-126 971.3162,-126 968.3162,-122 906.6838,-122 906.6838,-86 995.3162,-86 995.3162,-122"/>
<text text-anchor="middle" x="951" y="-99.8" font-family="Times,serif" font-size="14.00" fill="#000000">IonicModule</text>
</g>
<!-- IonicModule&#45;&gt;RequestbookPageModule -->
<g id="edge7" class="edge">
<title>IonicModule&#45;&gt;RequestbookPageModule</title>
<path fill="none" stroke="#000000" d="M960.6133,-122.1061C960.6133,-122.1061 960.6133,-140.991 960.6133,-140.991"/>
<polygon fill="#000000" stroke="#000000" points="957.1133,-140.9909 960.6133,-150.991 964.1133,-140.991 957.1133,-140.9909"/>
</g>
<!-- RouterModule.forChild(args) -->
<g id="node9" class="node">
<title>RouterModule.forChild(args)</title>
<polygon fill="#8dd3c7" stroke="#000000" points="888.7323,-122 885.7323,-126 864.7323,-126 861.7323,-122 707.2677,-122 707.2677,-86 888.7323,-86 888.7323,-122"/>
<text text-anchor="middle" x="798" y="-99.8" font-family="Times,serif" font-size="14.00" fill="#000000">RouterModule.forChild(args)</text>
</g>
<!-- RouterModule.forChild(args)&#45;&gt;RequestbookPageModule -->
<g id="edge8" class="edge">
<title>RouterModule.forChild(args)&#45;&gt;RequestbookPageModule</title>
<path fill="none" stroke="#000000" d="M798,-122.2396C798,-137.5706 798,-157 798,-157 798,-157 915.8793,-157 915.8793,-157"/>
<polygon fill="#000000" stroke="#000000" points="915.8793,-160.5001 925.8793,-157 915.8793,-153.5001 915.8793,-160.5001"/>
</g>
<!-- MatInputModule -->
<g id="node10" class="node">
<title>MatInputModule</title>
<polygon fill="#8dd3c7" stroke="#000000" points="689.6513,-122 686.6513,-126 665.6513,-126 662.6513,-122 578.3487,-122 578.3487,-86 689.6513,-86 689.6513,-122"/>
<text text-anchor="middle" x="634" y="-99.8" font-family="Times,serif" font-size="14.00" fill="#000000">MatInputModule</text>
</g>
<!-- MatInputModule&#45;&gt;RequestbookPageModule -->
<g id="edge9" class="edge">
<title>MatInputModule&#45;&gt;RequestbookPageModule</title>
<path fill="none" stroke="#000000" d="M634,-122.0225C634,-139.3734 634,-163 634,-163 634,-163 915.7395,-163 915.7395,-163"/>
<polygon fill="#000000" stroke="#000000" points="915.7396,-166.5001 925.7395,-163 915.7395,-159.5001 915.7396,-166.5001"/>
</g>
<!-- MenuTitleComponentModule -->
<g id="node11" class="node">
<title>MenuTitleComponentModule</title>
<polygon fill="#8dd3c7" stroke="#000000" points="559.9804,-122 556.9804,-126 535.9804,-126 532.9804,-122 376.0196,-122 376.0196,-86 559.9804,-86 559.9804,-122"/>
<text text-anchor="middle" x="468" y="-99.8" font-family="Times,serif" font-size="14.00" fill="#000000">MenuTitleComponentModule</text>
</g>
<!-- MenuTitleComponentModule&#45;&gt;RequestbookPageModule -->
<g id="edge10" class="edge">
<title>MenuTitleComponentModule&#45;&gt;RequestbookPageModule</title>
<path fill="none" stroke="#000000" d="M468,-122.1061C468,-141.3391 468,-169 468,-169 468,-169 916.0369,-169 916.0369,-169"/>
<polygon fill="#000000" stroke="#000000" points="916.0369,-172.5001 926.0369,-169 916.0369,-165.5001 916.0369,-172.5001"/>
</g>
<!-- ReactiveFormsModule -->
<g id="node12" class="node">
<title>ReactiveFormsModule</title>
<polygon fill="#8dd3c7" stroke="#000000" points="358.3047,-122 355.3047,-126 334.3047,-126 331.3047,-122 213.6953,-122 213.6953,-86 358.3047,-86 358.3047,-122"/>
<text text-anchor="middle" x="286" y="-99.8" font-family="Times,serif" font-size="14.00" fill="#000000">ReactiveFormsModule</text>
</g>
<!-- ReactiveFormsModule&#45;&gt;RequestbookPageModule -->
<g id="edge11" class="edge">
<title>ReactiveFormsModule&#45;&gt;RequestbookPageModule</title>
<path fill="none" stroke="#000000" d="M286,-122.2843C286,-143.3211 286,-175 286,-175 286,-175 915.8498,-175 915.8498,-175"/>
<polygon fill="#000000" stroke="#000000" points="915.8499,-178.5001 925.8498,-175 915.8498,-171.5001 915.8499,-178.5001"/>
</g>
<!-- FileUploadService -->
<g id="node13" class="node">
<title>FileUploadService</title>
<ellipse fill="#fdb462" stroke="#000000" cx="107" cy="-104" rx="83.3828" ry="18"/>
<text text-anchor="middle" x="107" y="-99.8" font-family="Times,serif" font-size="14.00" fill="#000000">FileUploadService</text>
</g>
<!-- FileUploadService&#45;&gt;RequestbookPageModule -->
<g id="edge12" class="edge">
<title>FileUploadService&#45;&gt;RequestbookPageModule</title>
<path fill="none" stroke="#000000" d="M107,-122.0908C107,-145.1328 107,-182 107,-182 107,-182 915.8246,-182 915.8246,-182"/>
<polygon fill="#000000" stroke="#000000" points="915.8246,-185.5001 925.8246,-182 915.8245,-178.5001 915.8246,-185.5001"/>
</g>
</g>
</svg>
