<?xml version="1.0" encoding="UTF-8" standalone="no"?>
<!DOCTYPE svg PUBLIC "-//W3C//DTD SVG 1.1//EN"
 "http://www.w3.org/Graphics/SVG/1.1/DTD/svg11.dtd">
<!-- Generated by graphviz version 2.40.1 (20161225.0304)
 -->
<!-- Title: dependencies Pages: 1 -->
<svg width="504pt" height="284pt"
 viewBox="0.00 0.00 504.00 284.00" xmlns="http://www.w3.org/2000/svg" xmlns:xlink="http://www.w3.org/1999/xlink">
<g id="graph0" class="graph" transform="scale(1 1) rotate(0) translate(4 280)">
<title>dependencies</title>
<polygon fill="#ffffff" stroke="transparent" points="-4,4 -4,-280 500,-280 500,4 -4,4"/>
<text text-anchor="start" x="227.0091" y="-42.4" font-family="sans-serif" font-weight="bold" font-size="14.00" fill="#000000">Legend</text>
<polygon fill="#ffffb3" stroke="transparent" points="14,-10 14,-30 34,-30 34,-10 14,-10"/>
<text text-anchor="start" x="37.629" y="-15.4" font-family="sans-serif" font-size="14.00" fill="#000000"> &#160;Declarations</text>
<polygon fill="#8dd3c7" stroke="transparent" points="127,-10 127,-30 147,-30 147,-10 127,-10"/>
<text text-anchor="start" x="150.7251" y="-15.4" font-family="sans-serif" font-size="14.00" fill="#000000"> &#160;Module</text>
<polygon fill="#80b1d3" stroke="transparent" points="213,-10 213,-30 233,-30 233,-10 213,-10"/>
<text text-anchor="start" x="236.7812" y="-15.4" font-family="sans-serif" font-size="14.00" fill="#000000"> &#160;Bootstrap</text>
<polygon fill="#fdb462" stroke="transparent" points="310,-10 310,-30 330,-30 330,-10 310,-10"/>
<text text-anchor="start" x="333.6732" y="-15.4" font-family="sans-serif" font-size="14.00" fill="#000000"> &#160;Providers</text>
<polygon fill="#fb8072" stroke="transparent" points="406,-10 406,-30 426,-30 426,-10 406,-10"/>
<text text-anchor="start" x="429.7258" y="-15.4" font-family="sans-serif" font-size="14.00" fill="#000000"> &#160;Exports</text>
<g id="clust1" class="cluster">
<title>cluster_MenuTitleComponentModule</title>
<polygon fill="none" stroke="#000000" stroke-dasharray="1,5" points="41,-70 41,-268 455,-268 455,-70 41,-70"/>
</g>
<g id="clust2" class="cluster">
<title>cluster_MenuTitleComponentModule_declarations</title>
<polygon fill="none" stroke="#000000" points="291,-78 291,-130 447,-130 447,-78 291,-78"/>
</g>
<g id="clust4" class="cluster">
<title>cluster_MenuTitleComponentModule_imports</title>
<polygon fill="none" stroke="#000000" points="49,-78 49,-130 283,-130 283,-78 49,-78"/>
</g>
<g id="clust5" class="cluster">
<title>cluster_MenuTitleComponentModule_exports</title>
<polygon fill="none" stroke="#000000" points="139,-208 139,-260 299,-260 299,-208 139,-208"/>
</g>
<!-- MenuTitleComponent -->
<g id="node1" class="node">
<title>MenuTitleComponent</title>
<polygon fill="#ffffb3" stroke="#000000" points="439.4313,-122 298.5687,-122 298.5687,-86 439.4313,-86 439.4313,-122"/>
<text text-anchor="middle" x="369" y="-99.8" font-family="Times,serif" font-size="14.00" fill="#000000">MenuTitleComponent</text>
</g>
<!-- MenuTitleComponentModule -->
<g id="node2" class="node">
<title>MenuTitleComponentModule</title>
<polygon fill="#8dd3c7" stroke="#000000" points="310.9804,-187 307.9804,-191 286.9804,-191 283.9804,-187 127.0196,-187 127.0196,-151 310.9804,-151 310.9804,-187"/>
<text text-anchor="middle" x="219" y="-164.8" font-family="Times,serif" font-size="14.00" fill="#000000">MenuTitleComponentModule</text>
</g>
<!-- MenuTitleComponent&#45;&gt;MenuTitleComponentModule -->
<g id="edge1" class="edge">
<title>MenuTitleComponent&#45;&gt;MenuTitleComponentModule</title>
<path fill="none" stroke="#000000" d="M304.8875,-122.1061C304.8875,-122.1061 304.8875,-140.991 304.8875,-140.991"/>
<polygon fill="#000000" stroke="#000000" points="301.3875,-140.9909 304.8875,-150.991 308.3875,-140.991 301.3875,-140.9909"/>
</g>
<!-- MenuTitleComponent  -->
<g id="node5" class="node">
<title>MenuTitleComponent </title>
<polygon fill="#fb8072" stroke="#000000" points="290.9306,-252 147.0694,-252 147.0694,-216 290.9306,-216 290.9306,-252"/>
<text text-anchor="middle" x="219" y="-229.8" font-family="Times,serif" font-size="14.00" fill="#000000">MenuTitleComponent </text>
</g>
<!-- MenuTitleComponentModule&#45;&gt;MenuTitleComponent  -->
<g id="edge4" class="edge">
<title>MenuTitleComponentModule&#45;&gt;MenuTitleComponent </title>
<path fill="none" stroke="#000000" stroke-dasharray="5,2" d="M219,-187.1061C219,-187.1061 219,-205.991 219,-205.991"/>
<polygon fill="#000000" stroke="#000000" points="215.5001,-205.9909 219,-215.991 222.5001,-205.991 215.5001,-205.9909"/>
</g>
<!-- CommonModule -->
<g id="node3" class="node">
<title>CommonModule</title>
<polygon fill="#8dd3c7" stroke="#000000" points="274.6681,-122 271.6681,-126 250.6681,-126 247.6681,-122 163.3319,-122 163.3319,-86 274.6681,-86 274.6681,-122"/>
<text text-anchor="middle" x="219" y="-99.8" font-family="Times,serif" font-size="14.00" fill="#000000">CommonModule</text>
</g>
<!-- CommonModule&#45;&gt;MenuTitleComponentModule -->
<g id="edge2" class="edge">
<title>CommonModule&#45;&gt;MenuTitleComponentModule</title>
<path fill="none" stroke="#000000" d="M219,-122.1061C219,-122.1061 219,-140.991 219,-140.991"/>
<polygon fill="#000000" stroke="#000000" points="215.5001,-140.9909 219,-150.991 222.5001,-140.991 215.5001,-140.9909"/>
</g>
<!-- IonicModule -->
<g id="node4" class="node">
<title>IonicModule</title>
<polygon fill="#8dd3c7" stroke="#000000" points="145.3162,-122 142.3162,-126 121.3162,-126 118.3162,-122 56.6838,-122 56.6838,-86 145.3162,-86 145.3162,-122"/>
<text text-anchor="middle" x="101" y="-99.8" font-family="Times,serif" font-size="14.00" fill="#000000">IonicModule</text>
</g>
<!-- IonicModule&#45;&gt;MenuTitleComponentModule -->
<g id="edge3" class="edge">
<title>IonicModule&#45;&gt;MenuTitleComponentModule</title>
<path fill="none" stroke="#000000" d="M136.0838,-122.1061C136.0838,-122.1061 136.0838,-140.991 136.0838,-140.991"/>
<polygon fill="#000000" stroke="#000000" points="132.5839,-140.9909 136.0838,-150.991 139.5839,-140.991 132.5839,-140.9909"/>
</g>
</g>
</svg>
