<?xml version="1.0" encoding="UTF-8" standalone="no"?>
<!DOCTYPE svg PUBLIC "-//W3C//DTD SVG 1.1//EN"
 "http://www.w3.org/Graphics/SVG/1.1/DTD/svg11.dtd">
<!-- Generated by graphviz version 2.40.1 (20161225.0304)
 -->
<!-- Title: dependencies Pages: 1 -->
<svg width="2217pt" height="211pt"
 viewBox="0.00 0.00 2217.00 211.00" xmlns="http://www.w3.org/2000/svg" xmlns:xlink="http://www.w3.org/1999/xlink">
<g id="graph0" class="graph" transform="scale(1 1) rotate(0) translate(4 207)">
<title>dependencies</title>
<polygon fill="#ffffff" stroke="transparent" points="-4,4 -4,-207 2213,-207 2213,4 -4,4"/>
<text text-anchor="start" x="1083.5091" y="-42.4" font-family="sans-serif" font-weight="bold" font-size="14.00" fill="#000000">Legend</text>
<polygon fill="#ffffb3" stroke="transparent" points="870.5,-10 870.5,-30 890.5,-30 890.5,-10 870.5,-10"/>
<text text-anchor="start" x="894.129" y="-15.4" font-family="sans-serif" font-size="14.00" fill="#000000"> &#160;Declarations</text>
<polygon fill="#8dd3c7" stroke="transparent" points="983.5,-10 983.5,-30 1003.5,-30 1003.5,-10 983.5,-10"/>
<text text-anchor="start" x="1007.2251" y="-15.4" font-family="sans-serif" font-size="14.00" fill="#000000"> &#160;Module</text>
<polygon fill="#80b1d3" stroke="transparent" points="1069.5,-10 1069.5,-30 1089.5,-30 1089.5,-10 1069.5,-10"/>
<text text-anchor="start" x="1093.2812" y="-15.4" font-family="sans-serif" font-size="14.00" fill="#000000"> &#160;Bootstrap</text>
<polygon fill="#fdb462" stroke="transparent" points="1166.5,-10 1166.5,-30 1186.5,-30 1186.5,-10 1166.5,-10"/>
<text text-anchor="start" x="1190.1732" y="-15.4" font-family="sans-serif" font-size="14.00" fill="#000000"> &#160;Providers</text>
<polygon fill="#fb8072" stroke="transparent" points="1262.5,-10 1262.5,-30 1282.5,-30 1282.5,-10 1262.5,-10"/>
<text text-anchor="start" x="1286.2258" y="-15.4" font-family="sans-serif" font-size="14.00" fill="#000000"> &#160;Exports</text>
<g id="clust1" class="cluster">
<title>cluster_TransferPageModule</title>
<polygon fill="none" stroke="#000000" stroke-dasharray="1,5" points="8,-70 8,-195 2201,-195 2201,-70 8,-70"/>
</g>
<g id="clust2" class="cluster">
<title>cluster_TransferPageModule_declarations</title>
<polygon fill="none" stroke="#000000" points="2087,-78 2087,-130 2193,-130 2193,-78 2087,-78"/>
</g>
<g id="clust4" class="cluster">
<title>cluster_TransferPageModule_imports</title>
<polygon fill="none" stroke="#000000" points="188,-78 188,-130 2079,-130 2079,-78 188,-78"/>
</g>
<g id="clust7" class="cluster">
<title>cluster_TransferPageModule_providers</title>
<polygon fill="none" stroke="#000000" points="16,-78 16,-130 180,-130 180,-78 16,-78"/>
</g>
<!-- TransferPage -->
<g id="node1" class="node">
<title>TransferPage</title>
<polygon fill="#ffffb3" stroke="#000000" points="2185.1208,-122 2094.8792,-122 2094.8792,-86 2185.1208,-86 2185.1208,-122"/>
<text text-anchor="middle" x="2140" y="-99.8" font-family="Times,serif" font-size="14.00" fill="#000000">TransferPage</text>
</g>
<!-- TransferPageModule -->
<g id="node2" class="node">
<title>TransferPageModule</title>
<polygon fill="#8dd3c7" stroke="#000000" points="1174.1699,-187 1171.1699,-191 1150.1699,-191 1147.1699,-187 1039.8301,-187 1039.8301,-151 1174.1699,-151 1174.1699,-187"/>
<text text-anchor="middle" x="1107" y="-164.8" font-family="Times,serif" font-size="14.00" fill="#000000">TransferPageModule</text>
</g>
<!-- TransferPage&#45;&gt;TransferPageModule -->
<g id="edge1" class="edge">
<title>TransferPage&#45;&gt;TransferPageModule</title>
<path fill="none" stroke="#000000" d="M2140,-122.3228C2140,-145.6602 2140,-183 2140,-183 2140,-183 1184.3795,-183 1184.3795,-183"/>
<polygon fill="#000000" stroke="#000000" points="1184.3796,-179.5001 1174.3795,-183 1184.3795,-186.5001 1184.3796,-179.5001"/>
</g>
<!-- CommonModule -->
<g id="node3" class="node">
<title>CommonModule</title>
<polygon fill="#8dd3c7" stroke="#000000" points="2070.6681,-122 2067.6681,-126 2046.6681,-126 2043.6681,-122 1959.3319,-122 1959.3319,-86 2070.6681,-86 2070.6681,-122"/>
<text text-anchor="middle" x="2015" y="-99.8" font-family="Times,serif" font-size="14.00" fill="#000000">CommonModule</text>
</g>
<!-- CommonModule&#45;&gt;TransferPageModule -->
<g id="edge2" class="edge">
<title>CommonModule&#45;&gt;TransferPageModule</title>
<path fill="none" stroke="#000000" d="M2015,-122.2921C2015,-144.2057 2015,-178 2015,-178 2015,-178 1184.1362,-178 1184.1362,-178"/>
<polygon fill="#000000" stroke="#000000" points="1184.1362,-174.5001 1174.1362,-178 1184.1361,-181.5001 1184.1362,-174.5001"/>
</g>
<!-- FormsModule -->
<g id="node4" class="node">
<title>FormsModule</title>
<polygon fill="#8dd3c7" stroke="#000000" points="1941.8288,-122 1938.8288,-126 1917.8288,-126 1914.8288,-122 1846.1712,-122 1846.1712,-86 1941.8288,-86 1941.8288,-122"/>
<text text-anchor="middle" x="1894" y="-99.8" font-family="Times,serif" font-size="14.00" fill="#000000">FormsModule</text>
</g>
<!-- FormsModule&#45;&gt;TransferPageModule -->
<g id="edge3" class="edge">
<title>FormsModule&#45;&gt;TransferPageModule</title>
<path fill="none" stroke="#000000" d="M1894,-122.0267C1894,-142.7672 1894,-174 1894,-174 1894,-174 1184.0992,-174 1184.0992,-174"/>
<polygon fill="#000000" stroke="#000000" points="1184.0992,-170.5001 1174.0992,-174 1184.0991,-177.5001 1184.0992,-170.5001"/>
</g>
<!-- IonicModule -->
<g id="node5" class="node">
<title>IonicModule</title>
<polygon fill="#8dd3c7" stroke="#000000" points="1828.3162,-122 1825.3162,-126 1804.3162,-126 1801.3162,-122 1739.6838,-122 1739.6838,-86 1828.3162,-86 1828.3162,-122"/>
<text text-anchor="middle" x="1784" y="-99.8" font-family="Times,serif" font-size="14.00" fill="#000000">IonicModule</text>
</g>
<!-- IonicModule&#45;&gt;TransferPageModule -->
<g id="edge4" class="edge">
<title>IonicModule&#45;&gt;TransferPageModule</title>
<path fill="none" stroke="#000000" d="M1784,-122.1061C1784,-141.3391 1784,-169 1784,-169 1784,-169 1184.3884,-169 1184.3884,-169"/>
<polygon fill="#000000" stroke="#000000" points="1184.3885,-165.5001 1174.3884,-169 1184.3884,-172.5001 1184.3885,-165.5001"/>
</g>
<!-- RouterModule.forChild(args) -->
<g id="node6" class="node">
<title>RouterModule.forChild(args)</title>
<polygon fill="#8dd3c7" stroke="#000000" points="1721.7323,-122 1718.7323,-126 1697.7323,-126 1694.7323,-122 1540.2677,-122 1540.2677,-86 1721.7323,-86 1721.7323,-122"/>
<text text-anchor="middle" x="1631" y="-99.8" font-family="Times,serif" font-size="14.00" fill="#000000">RouterModule.forChild(args)</text>
</g>
<!-- RouterModule.forChild(args)&#45;&gt;TransferPageModule -->
<g id="edge5" class="edge">
<title>RouterModule.forChild(args)&#45;&gt;TransferPageModule</title>
<path fill="none" stroke="#000000" d="M1631,-122.302C1631,-140.2699 1631,-165 1631,-165 1631,-165 1184.1639,-165 1184.1639,-165"/>
<polygon fill="#000000" stroke="#000000" points="1184.164,-161.5001 1174.1639,-165 1184.1639,-168.5001 1184.164,-161.5001"/>
</g>
<!-- MenuTitleComponentModule -->
<g id="node7" class="node">
<title>MenuTitleComponentModule</title>
<polygon fill="#8dd3c7" stroke="#000000" points="1521.9804,-122 1518.9804,-126 1497.9804,-126 1494.9804,-122 1338.0196,-122 1338.0196,-86 1521.9804,-86 1521.9804,-122"/>
<text text-anchor="middle" x="1430" y="-99.8" font-family="Times,serif" font-size="14.00" fill="#000000">MenuTitleComponentModule</text>
</g>
<!-- MenuTitleComponentModule&#45;&gt;TransferPageModule -->
<g id="edge6" class="edge">
<title>MenuTitleComponentModule&#45;&gt;TransferPageModule</title>
<path fill="none" stroke="#000000" d="M1430,-122.027C1430,-138.3976 1430,-160 1430,-160 1430,-160 1184.3182,-160 1184.3182,-160"/>
<polygon fill="#000000" stroke="#000000" points="1184.3183,-156.5001 1174.3182,-160 1184.3182,-163.5001 1184.3183,-156.5001"/>
</g>
<!-- MatStepperModule -->
<g id="node8" class="node">
<title>MatStepperModule</title>
<polygon fill="#8dd3c7" stroke="#000000" points="1320.3627,-122 1317.3627,-126 1296.3627,-126 1293.3627,-122 1195.6373,-122 1195.6373,-86 1320.3627,-86 1320.3627,-122"/>
<text text-anchor="middle" x="1258" y="-99.8" font-family="Times,serif" font-size="14.00" fill="#000000">MatStepperModule</text>
</g>
<!-- MatStepperModule&#45;&gt;TransferPageModule -->
<g id="edge7" class="edge">
<title>MatStepperModule&#45;&gt;TransferPageModule</title>
<path fill="none" stroke="#000000" d="M1258,-122.1871C1258,-137.1824 1258,-156 1258,-156 1258,-156 1184.1102,-156 1184.1102,-156"/>
<polygon fill="#000000" stroke="#000000" points="1184.1102,-152.5001 1174.1102,-156 1184.1101,-159.5001 1184.1102,-152.5001"/>
</g>
<!-- MatFormFieldModule -->
<g id="node9" class="node">
<title>MatFormFieldModule</title>
<polygon fill="#8dd3c7" stroke="#000000" points="1177.712,-122 1174.712,-126 1153.712,-126 1150.712,-122 1036.288,-122 1036.288,-86 1177.712,-86 1177.712,-122"/>
<text text-anchor="middle" x="1107" y="-99.8" font-family="Times,serif" font-size="14.00" fill="#000000">MatFormFieldModule</text>
</g>
<!-- MatFormFieldModule&#45;&gt;TransferPageModule -->
<g id="edge8" class="edge">
<title>MatFormFieldModule&#45;&gt;TransferPageModule</title>
<path fill="none" stroke="#000000" d="M1107,-122.1061C1107,-122.1061 1107,-140.991 1107,-140.991"/>
<polygon fill="#000000" stroke="#000000" points="1103.5001,-140.9909 1107,-150.991 1110.5001,-140.991 1103.5001,-140.9909"/>
</g>
<!-- ReactiveFormsModule -->
<g id="node10" class="node">
<title>ReactiveFormsModule</title>
<polygon fill="#8dd3c7" stroke="#000000" points="1018.3047,-122 1015.3047,-126 994.3047,-126 991.3047,-122 873.6953,-122 873.6953,-86 1018.3047,-86 1018.3047,-122"/>
<text text-anchor="middle" x="946" y="-99.8" font-family="Times,serif" font-size="14.00" fill="#000000">ReactiveFormsModule</text>
</g>
<!-- ReactiveFormsModule&#45;&gt;TransferPageModule -->
<g id="edge9" class="edge">
<title>ReactiveFormsModule&#45;&gt;TransferPageModule</title>
<path fill="none" stroke="#000000" d="M946,-122.1871C946,-137.1824 946,-156 946,-156 946,-156 1029.6544,-156 1029.6544,-156"/>
<polygon fill="#000000" stroke="#000000" points="1029.6544,-159.5001 1039.6544,-156 1029.6543,-152.5001 1029.6544,-159.5001"/>
</g>
<!-- MatInputModule -->
<g id="node11" class="node">
<title>MatInputModule</title>
<polygon fill="#8dd3c7" stroke="#000000" points="855.6513,-122 852.6513,-126 831.6513,-126 828.6513,-122 744.3487,-122 744.3487,-86 855.6513,-86 855.6513,-122"/>
<text text-anchor="middle" x="800" y="-99.8" font-family="Times,serif" font-size="14.00" fill="#000000">MatInputModule</text>
</g>
<!-- MatInputModule&#45;&gt;TransferPageModule -->
<g id="edge10" class="edge">
<title>MatInputModule&#45;&gt;TransferPageModule</title>
<path fill="none" stroke="#000000" d="M800,-122.027C800,-138.3976 800,-160 800,-160 800,-160 1029.6275,-160 1029.6275,-160"/>
<polygon fill="#000000" stroke="#000000" points="1029.6276,-163.5001 1039.6275,-160 1029.6275,-156.5001 1029.6276,-163.5001"/>
</g>
<!-- MatButtonModule -->
<g id="node12" class="node">
<title>MatButtonModule</title>
<polygon fill="#8dd3c7" stroke="#000000" points="726.2176,-122 723.2176,-126 702.2176,-126 699.2176,-122 605.7824,-122 605.7824,-86 726.2176,-86 726.2176,-122"/>
<text text-anchor="middle" x="666" y="-99.8" font-family="Times,serif" font-size="14.00" fill="#000000">MatButtonModule</text>
</g>
<!-- MatButtonModule&#45;&gt;TransferPageModule -->
<g id="edge11" class="edge">
<title>MatButtonModule&#45;&gt;TransferPageModule</title>
<path fill="none" stroke="#000000" d="M666,-122.302C666,-140.2699 666,-165 666,-165 666,-165 1029.5415,-165 1029.5415,-165"/>
<polygon fill="#000000" stroke="#000000" points="1029.5416,-168.5001 1039.5415,-165 1029.5415,-161.5001 1029.5416,-168.5001"/>
</g>
<!-- MatSelectModule -->
<g id="node13" class="node">
<title>MatSelectModule</title>
<polygon fill="#8dd3c7" stroke="#000000" points="588.3076,-122 585.3076,-126 564.3076,-126 561.3076,-122 471.6924,-122 471.6924,-86 588.3076,-86 588.3076,-122"/>
<text text-anchor="middle" x="530" y="-99.8" font-family="Times,serif" font-size="14.00" fill="#000000">MatSelectModule</text>
</g>
<!-- MatSelectModule&#45;&gt;TransferPageModule -->
<g id="edge12" class="edge">
<title>MatSelectModule&#45;&gt;TransferPageModule</title>
<path fill="none" stroke="#000000" d="M530,-122.1061C530,-141.3391 530,-169 530,-169 530,-169 1029.6815,-169 1029.6815,-169"/>
<polygon fill="#000000" stroke="#000000" points="1029.6815,-172.5001 1039.6815,-169 1029.6815,-165.5001 1029.6815,-172.5001"/>
</g>
<!-- MatIconModule -->
<g id="node14" class="node">
<title>MatIconModule</title>
<polygon fill="#8dd3c7" stroke="#000000" points="453.4748,-122 450.4748,-126 429.4748,-126 426.4748,-122 346.5252,-122 346.5252,-86 453.4748,-86 453.4748,-122"/>
<text text-anchor="middle" x="400" y="-99.8" font-family="Times,serif" font-size="14.00" fill="#000000">MatIconModule</text>
</g>
<!-- MatIconModule&#45;&gt;TransferPageModule -->
<g id="edge13" class="edge">
<title>MatIconModule&#45;&gt;TransferPageModule</title>
<path fill="none" stroke="#000000" d="M400,-122.0267C400,-142.7672 400,-174 400,-174 400,-174 1029.8498,-174 1029.8498,-174"/>
<polygon fill="#000000" stroke="#000000" points="1029.8498,-177.5001 1039.8498,-174 1029.8497,-170.5001 1029.8498,-177.5001"/>
</g>
<!-- NgxQRCodeModule -->
<g id="node15" class="node">
<title>NgxQRCodeModule</title>
<polygon fill="#8dd3c7" stroke="#000000" points="328.1513,-122 325.1513,-126 304.1513,-126 301.1513,-122 195.8487,-122 195.8487,-86 328.1513,-86 328.1513,-122"/>
<text text-anchor="middle" x="262" y="-99.8" font-family="Times,serif" font-size="14.00" fill="#000000">NgxQRCodeModule</text>
</g>
<!-- NgxQRCodeModule&#45;&gt;TransferPageModule -->
<g id="edge14" class="edge">
<title>NgxQRCodeModule&#45;&gt;TransferPageModule</title>
<path fill="none" stroke="#000000" d="M262,-122.2921C262,-144.2057 262,-178 262,-178 262,-178 1029.6336,-178 1029.6336,-178"/>
<polygon fill="#000000" stroke="#000000" points="1029.6337,-181.5001 1039.6336,-178 1029.6336,-174.5001 1029.6337,-181.5001"/>
</g>
<!-- BarcodeScanner -->
<g id="node16" class="node">
<title>BarcodeScanner</title>
<ellipse fill="#fdb462" stroke="#000000" cx="98" cy="-104" rx="74.1181" ry="18"/>
<text text-anchor="middle" x="98" y="-99.8" font-family="Times,serif" font-size="14.00" fill="#000000">BarcodeScanner</text>
</g>
<!-- BarcodeScanner&#45;&gt;TransferPageModule -->
<g id="edge15" class="edge">
<title>BarcodeScanner&#45;&gt;TransferPageModule</title>
<path fill="none" stroke="#000000" d="M98,-122.3228C98,-145.6602 98,-183 98,-183 98,-183 1029.6231,-183 1029.6231,-183"/>
<polygon fill="#000000" stroke="#000000" points="1029.6231,-186.5001 1039.6231,-183 1029.6231,-179.5001 1029.6231,-186.5001"/>
</g>
</g>
</svg>
