<?xml version="1.0" encoding="UTF-8" standalone="no"?>
<!DOCTYPE svg PUBLIC "-//W3C//DTD SVG 1.1//EN"
 "http://www.w3.org/Graphics/SVG/1.1/DTD/svg11.dtd">
<!-- Generated by graphviz version 2.40.1 (20161225.0304)
 -->
<!-- Title: dependencies Pages: 1 -->
<svg width="1769pt" height="211pt"
 viewBox="0.00 0.00 1769.00 211.00" xmlns="http://www.w3.org/2000/svg" xmlns:xlink="http://www.w3.org/1999/xlink">
<g id="graph0" class="graph" transform="scale(1 1) rotate(0) translate(4 207)">
<title>dependencies</title>
<polygon fill="#ffffff" stroke="transparent" points="-4,4 -4,-207 1765,-207 1765,4 -4,4"/>
<text text-anchor="start" x="859.5091" y="-42.4" font-family="sans-serif" font-weight="bold" font-size="14.00" fill="#000000">Legend</text>
<polygon fill="#ffffb3" stroke="transparent" points="646.5,-10 646.5,-30 666.5,-30 666.5,-10 646.5,-10"/>
<text text-anchor="start" x="670.129" y="-15.4" font-family="sans-serif" font-size="14.00" fill="#000000"> &#160;Declarations</text>
<polygon fill="#8dd3c7" stroke="transparent" points="759.5,-10 759.5,-30 779.5,-30 779.5,-10 759.5,-10"/>
<text text-anchor="start" x="783.2251" y="-15.4" font-family="sans-serif" font-size="14.00" fill="#000000"> &#160;Module</text>
<polygon fill="#80b1d3" stroke="transparent" points="845.5,-10 845.5,-30 865.5,-30 865.5,-10 845.5,-10"/>
<text text-anchor="start" x="869.2812" y="-15.4" font-family="sans-serif" font-size="14.00" fill="#000000"> &#160;Bootstrap</text>
<polygon fill="#fdb462" stroke="transparent" points="942.5,-10 942.5,-30 962.5,-30 962.5,-10 942.5,-10"/>
<text text-anchor="start" x="966.1732" y="-15.4" font-family="sans-serif" font-size="14.00" fill="#000000"> &#160;Providers</text>
<polygon fill="#fb8072" stroke="transparent" points="1038.5,-10 1038.5,-30 1058.5,-30 1058.5,-10 1038.5,-10"/>
<text text-anchor="start" x="1062.2258" y="-15.4" font-family="sans-serif" font-size="14.00" fill="#000000"> &#160;Exports</text>
<g id="clust1" class="cluster">
<title>cluster_TransferPageModule</title>
<polygon fill="none" stroke="#000000" stroke-dasharray="1,5" points="8,-70 8,-195 1753,-195 1753,-70 8,-70"/>
</g>
<g id="clust2" class="cluster">
<title>cluster_TransferPageModule_declarations</title>
<polygon fill="none" stroke="#000000" points="1639,-78 1639,-130 1745,-130 1745,-78 1639,-78"/>
</g>
<g id="clust4" class="cluster">
<title>cluster_TransferPageModule_imports</title>
<polygon fill="none" stroke="#000000" points="16,-78 16,-130 1631,-130 1631,-78 16,-78"/>
</g>
<!-- TransferPage -->
<g id="node1" class="node">
<title>TransferPage</title>
<polygon fill="#ffffb3" stroke="#000000" points="1737.1208,-122 1646.8792,-122 1646.8792,-86 1737.1208,-86 1737.1208,-122"/>
<text text-anchor="middle" x="1692" y="-99.8" font-family="Times,serif" font-size="14.00" fill="#000000">TransferPage</text>
</g>
<!-- TransferPageModule -->
<g id="node2" class="node">
<title>TransferPageModule</title>
<polygon fill="#8dd3c7" stroke="#000000" points="963.1699,-187 960.1699,-191 939.1699,-191 936.1699,-187 828.8301,-187 828.8301,-151 963.1699,-151 963.1699,-187"/>
<text text-anchor="middle" x="896" y="-164.8" font-family="Times,serif" font-size="14.00" fill="#000000">TransferPageModule</text>
</g>
<!-- TransferPage&#45;&gt;TransferPageModule -->
<g id="edge1" class="edge">
<title>TransferPage&#45;&gt;TransferPageModule</title>
<path fill="none" stroke="#000000" d="M1692,-122.0908C1692,-145.1328 1692,-182 1692,-182 1692,-182 973.1805,-182 973.1805,-182"/>
<polygon fill="#000000" stroke="#000000" points="973.1805,-178.5001 963.1805,-182 973.1805,-185.5001 973.1805,-178.5001"/>
</g>
<!-- CommonModule -->
<g id="node3" class="node">
<title>CommonModule</title>
<polygon fill="#8dd3c7" stroke="#000000" points="1622.6681,-122 1619.6681,-126 1598.6681,-126 1595.6681,-122 1511.3319,-122 1511.3319,-86 1622.6681,-86 1622.6681,-122"/>
<text text-anchor="middle" x="1567" y="-99.8" font-family="Times,serif" font-size="14.00" fill="#000000">CommonModule</text>
</g>
<!-- CommonModule&#45;&gt;TransferPageModule -->
<g id="edge2" class="edge">
<title>CommonModule&#45;&gt;TransferPageModule</title>
<path fill="none" stroke="#000000" d="M1567,-122.2843C1567,-143.3211 1567,-175 1567,-175 1567,-175 973.1004,-175 973.1004,-175"/>
<polygon fill="#000000" stroke="#000000" points="973.1005,-171.5001 963.1004,-175 973.1004,-178.5001 973.1005,-171.5001"/>
</g>
<!-- FormsModule -->
<g id="node4" class="node">
<title>FormsModule</title>
<polygon fill="#8dd3c7" stroke="#000000" points="1493.8288,-122 1490.8288,-126 1469.8288,-126 1466.8288,-122 1398.1712,-122 1398.1712,-86 1493.8288,-86 1493.8288,-122"/>
<text text-anchor="middle" x="1446" y="-99.8" font-family="Times,serif" font-size="14.00" fill="#000000">FormsModule</text>
</g>
<!-- FormsModule&#45;&gt;TransferPageModule -->
<g id="edge3" class="edge">
<title>FormsModule&#45;&gt;TransferPageModule</title>
<path fill="none" stroke="#000000" d="M1446,-122.1061C1446,-141.3391 1446,-169 1446,-169 1446,-169 973.1656,-169 973.1656,-169"/>
<polygon fill="#000000" stroke="#000000" points="973.1657,-165.5001 963.1656,-169 973.1656,-172.5001 973.1657,-165.5001"/>
</g>
<!-- IonicModule -->
<g id="node5" class="node">
<title>IonicModule</title>
<polygon fill="#8dd3c7" stroke="#000000" points="1380.3162,-122 1377.3162,-126 1356.3162,-126 1353.3162,-122 1291.6838,-122 1291.6838,-86 1380.3162,-86 1380.3162,-122"/>
<text text-anchor="middle" x="1336" y="-99.8" font-family="Times,serif" font-size="14.00" fill="#000000">IonicModule</text>
</g>
<!-- IonicModule&#45;&gt;TransferPageModule -->
<g id="edge4" class="edge">
<title>IonicModule&#45;&gt;TransferPageModule</title>
<path fill="none" stroke="#000000" d="M1336,-122.0225C1336,-139.3734 1336,-163 1336,-163 1336,-163 973.3055,-163 973.3055,-163"/>
<polygon fill="#000000" stroke="#000000" points="973.3055,-159.5001 963.3055,-163 973.3055,-166.5001 973.3055,-159.5001"/>
</g>
<!-- RouterModule.forChild(args) -->
<g id="node6" class="node">
<title>RouterModule.forChild(args)</title>
<polygon fill="#8dd3c7" stroke="#000000" points="1273.7323,-122 1270.7323,-126 1249.7323,-126 1246.7323,-122 1092.2677,-122 1092.2677,-86 1273.7323,-86 1273.7323,-122"/>
<text text-anchor="middle" x="1183" y="-99.8" font-family="Times,serif" font-size="14.00" fill="#000000">RouterModule.forChild(args)</text>
</g>
<!-- RouterModule.forChild(args)&#45;&gt;TransferPageModule -->
<g id="edge5" class="edge">
<title>RouterModule.forChild(args)&#45;&gt;TransferPageModule</title>
<path fill="none" stroke="#000000" d="M1183,-122.2396C1183,-137.5706 1183,-157 1183,-157 1183,-157 973.2887,-157 973.2887,-157"/>
<polygon fill="#000000" stroke="#000000" points="973.2888,-153.5001 963.2887,-157 973.2887,-160.5001 973.2888,-153.5001"/>
</g>
<!-- MenuTitleComponentModule -->
<g id="node7" class="node">
<title>MenuTitleComponentModule</title>
<polygon fill="#8dd3c7" stroke="#000000" points="1073.9804,-122 1070.9804,-126 1049.9804,-126 1046.9804,-122 890.0196,-122 890.0196,-86 1073.9804,-86 1073.9804,-122"/>
<text text-anchor="middle" x="982" y="-99.8" font-family="Times,serif" font-size="14.00" fill="#000000">MenuTitleComponentModule</text>
</g>
<!-- MenuTitleComponentModule&#45;&gt;TransferPageModule -->
<g id="edge6" class="edge">
<title>MenuTitleComponentModule&#45;&gt;TransferPageModule</title>
<path fill="none" stroke="#000000" d="M926.5474,-122.1061C926.5474,-122.1061 926.5474,-140.991 926.5474,-140.991"/>
<polygon fill="#000000" stroke="#000000" points="923.0474,-140.9909 926.5474,-150.991 930.0474,-140.991 923.0474,-140.9909"/>
</g>
<!-- MatStepperModule -->
<g id="node8" class="node">
<title>MatStepperModule</title>
<polygon fill="#8dd3c7" stroke="#000000" points="872.3627,-122 869.3627,-126 848.3627,-126 845.3627,-122 747.6373,-122 747.6373,-86 872.3627,-86 872.3627,-122"/>
<text text-anchor="middle" x="810" y="-99.8" font-family="Times,serif" font-size="14.00" fill="#000000">MatStepperModule</text>
</g>
<!-- MatStepperModule&#45;&gt;TransferPageModule -->
<g id="edge7" class="edge">
<title>MatStepperModule&#45;&gt;TransferPageModule</title>
<path fill="none" stroke="#000000" d="M850.6732,-122.1061C850.6732,-122.1061 850.6732,-140.991 850.6732,-140.991"/>
<polygon fill="#000000" stroke="#000000" points="847.1733,-140.9909 850.6732,-150.991 854.1733,-140.991 847.1733,-140.9909"/>
</g>
<!-- MatFormFieldModule -->
<g id="node9" class="node">
<title>MatFormFieldModule</title>
<polygon fill="#8dd3c7" stroke="#000000" points="729.712,-122 726.712,-126 705.712,-126 702.712,-122 588.288,-122 588.288,-86 729.712,-86 729.712,-122"/>
<text text-anchor="middle" x="659" y="-99.8" font-family="Times,serif" font-size="14.00" fill="#000000">MatFormFieldModule</text>
</g>
<!-- MatFormFieldModule&#45;&gt;TransferPageModule -->
<g id="edge8" class="edge">
<title>MatFormFieldModule&#45;&gt;TransferPageModule</title>
<path fill="none" stroke="#000000" d="M659,-122.2396C659,-137.5706 659,-157 659,-157 659,-157 818.7193,-157 818.7193,-157"/>
<polygon fill="#000000" stroke="#000000" points="818.7193,-160.5001 828.7193,-157 818.7192,-153.5001 818.7193,-160.5001"/>
</g>
<!-- ReactiveFormsModule -->
<g id="node10" class="node">
<title>ReactiveFormsModule</title>
<polygon fill="#8dd3c7" stroke="#000000" points="570.3047,-122 567.3047,-126 546.3047,-126 543.3047,-122 425.6953,-122 425.6953,-86 570.3047,-86 570.3047,-122"/>
<text text-anchor="middle" x="498" y="-99.8" font-family="Times,serif" font-size="14.00" fill="#000000">ReactiveFormsModule</text>
</g>
<!-- ReactiveFormsModule&#45;&gt;TransferPageModule -->
<g id="edge9" class="edge">
<title>ReactiveFormsModule&#45;&gt;TransferPageModule</title>
<path fill="none" stroke="#000000" d="M498,-122.0225C498,-139.3734 498,-163 498,-163 498,-163 818.4847,-163 818.4847,-163"/>
<polygon fill="#000000" stroke="#000000" points="818.4848,-166.5001 828.4847,-163 818.4847,-159.5001 818.4848,-166.5001"/>
</g>
<!-- MatInputModule -->
<g id="node11" class="node">
<title>MatInputModule</title>
<polygon fill="#8dd3c7" stroke="#000000" points="407.6513,-122 404.6513,-126 383.6513,-126 380.6513,-122 296.3487,-122 296.3487,-86 407.6513,-86 407.6513,-122"/>
<text text-anchor="middle" x="352" y="-99.8" font-family="Times,serif" font-size="14.00" fill="#000000">MatInputModule</text>
</g>
<!-- MatInputModule&#45;&gt;TransferPageModule -->
<g id="edge10" class="edge">
<title>MatInputModule&#45;&gt;TransferPageModule</title>
<path fill="none" stroke="#000000" d="M352,-122.1061C352,-141.3391 352,-169 352,-169 352,-169 818.7493,-169 818.7493,-169"/>
<polygon fill="#000000" stroke="#000000" points="818.7493,-172.5001 828.7493,-169 818.7493,-165.5001 818.7493,-172.5001"/>
</g>
<!-- MatButtonModule -->
<g id="node12" class="node">
<title>MatButtonModule</title>
<polygon fill="#8dd3c7" stroke="#000000" points="278.2176,-122 275.2176,-126 254.2176,-126 251.2176,-122 157.7824,-122 157.7824,-86 278.2176,-86 278.2176,-122"/>
<text text-anchor="middle" x="218" y="-99.8" font-family="Times,serif" font-size="14.00" fill="#000000">MatButtonModule</text>
</g>
<!-- MatButtonModule&#45;&gt;TransferPageModule -->
<g id="edge11" class="edge">
<title>MatButtonModule&#45;&gt;TransferPageModule</title>
<path fill="none" stroke="#000000" d="M218,-122.2843C218,-143.3211 218,-175 218,-175 218,-175 818.8239,-175 818.8239,-175"/>
<polygon fill="#000000" stroke="#000000" points="818.824,-178.5001 828.8239,-175 818.8239,-171.5001 818.824,-178.5001"/>
</g>
<!-- MatSelectModule -->
<g id="node13" class="node">
<title>MatSelectModule</title>
<polygon fill="#8dd3c7" stroke="#000000" points="140.3076,-122 137.3076,-126 116.3076,-126 113.3076,-122 23.6924,-122 23.6924,-86 140.3076,-86 140.3076,-122"/>
<text text-anchor="middle" x="82" y="-99.8" font-family="Times,serif" font-size="14.00" fill="#000000">MatSelectModule</text>
</g>
<!-- MatSelectModule&#45;&gt;TransferPageModule -->
<g id="edge12" class="edge">
<title>MatSelectModule&#45;&gt;TransferPageModule</title>
<path fill="none" stroke="#000000" d="M82,-122.0908C82,-145.1328 82,-182 82,-182 82,-182 818.6944,-182 818.6944,-182"/>
<polygon fill="#000000" stroke="#000000" points="818.6945,-185.5001 828.6944,-182 818.6944,-178.5001 818.6945,-185.5001"/>
</g>
</g>
</svg>
