<?xml version="1.0" encoding="utf-8"?>
<!-- Generator: Adobe Illustrator 22.0.0, SVG Export Plug-In . SVG Version: 6.00 Build 0)  -->
<svg version="1.1" id="Layer_1" xmlns="http://www.w3.org/2000/svg" xmlns:xlink="http://www.w3.org/1999/xlink" x="0px" y="0px"
	 viewBox="0 0 466.6 331" style="enable-background:new 0 0 466.6 331;" xml:space="preserve">
<style type="text/css">
	.st0{display:none;}
	.st1{display:inline;}
	.st2{opacity:0.5;fill:#F2D17D;enable-background:new    ;}
	.st3{fill:#FFFFFF;}
	.st4{fill:url(#SVGID_1_);}
	.st5{fill:#5058D7;}
	.st6{fill:none;stroke:#1A1B50;stroke-width:0.5913;stroke-linecap:round;stroke-linejoin:round;stroke-miterlimit:10;}
	.st7{fill:#8A94FB;}
	.st8{fill:url(#SVGID_2_);}
	.st9{fill:#EDE2C7;}
	.st10{fill:none;stroke:#A6946F;stroke-width:0.667;stroke-linecap:round;stroke-linejoin:round;}
	.st11{fill:none;stroke:#A6946F;stroke-width:0.667;stroke-linecap:round;stroke-linejoin:round;stroke-dasharray:1.4173,2.1259;}
	
		.st12{fill:none;stroke:#A6946F;stroke-width:0.667;stroke-linecap:round;stroke-linejoin:round;stroke-miterlimit:10;stroke-dasharray:1.3341,2.0011;}
	.st13{fill:#09BCD3;}
	
		.st14{opacity:0.4;fill:none;stroke:#5058D7;stroke-width:0.3335;stroke-linecap:round;stroke-linejoin:round;stroke-miterlimit:10;enable-background:new    ;}
	.st15{fill:url(#SVGID_3_);}
	.st16{fill:url(#SVGID_4_);}
	.st17{fill:url(#SVGID_5_);}
	.st18{fill:url(#SVGID_6_);}
	.st19{fill:url(#SVGID_7_);}
	.st20{fill:#E7A0A0;}
	.st21{fill:none;stroke:#DF6161;stroke-width:0.5796;stroke-linecap:round;stroke-linejoin:round;stroke-miterlimit:10;}
	.st22{fill:#DB5724;}
	.st23{fill:url(#SVGID_8_);}
	.st24{fill:#EBE7E1;}
	.st25{fill:#067481;}
	.st26{fill:url(#SVGID_9_);}
	
		.st27{fill:none;stroke:#2620A4;stroke-width:0.667;stroke-linecap:round;stroke-linejoin:round;stroke-miterlimit:10;stroke-dasharray:1.3341,2.0011;}
	.st28{opacity:0.9;fill:#DB5724;enable-background:new    ;}
	.st29{fill:url(#SVGID_10_);}
	.st30{fill:url(#SVGID_11_);}
	.st31{fill:url(#SVGID_12_);}
	.st32{fill:url(#SVGID_13_);}
	.st33{fill:url(#SVGID_14_);}
	.st34{fill:url(#SVGID_15_);}
	.st35{fill:url(#SVGID_16_);}
	.st36{fill:url(#SVGID_17_);}
	.st37{fill:url(#SVGID_18_);}
	.st38{fill:url(#SVGID_19_);}
	.st39{fill:#056571;}
	.st40{fill:url(#SVGID_20_);}
	
		.st41{opacity:0.4;fill:none;stroke:#5058D7;stroke-width:0.3509;stroke-linecap:round;stroke-linejoin:round;stroke-miterlimit:10;stroke-dasharray:1.4036,2.1054;enable-background:new    ;}
	.st42{fill:url(#SVGID_21_);}
	.st43{fill:none;stroke:#A83A17;stroke-width:0.3509;stroke-linecap:round;stroke-linejoin:round;stroke-miterlimit:10;}
	.st44{fill:url(#SVGID_22_);}
	.st45{fill:url(#SVGID_23_);}
	.st46{fill:url(#SVGID_24_);}
	.st47{fill:url(#SVGID_25_);}
	.st48{fill:url(#SVGID_26_);}
	.st49{fill:url(#SVGID_27_);}
	.st50{fill:url(#SVGID_28_);}
	.st51{fill:none;stroke:#DF6161;stroke-width:0.5683;stroke-linecap:round;stroke-linejoin:round;stroke-miterlimit:10;}
	.st52{fill:none;stroke:#000000;stroke-width:0.1755;stroke-linecap:round;stroke-miterlimit:10;}
	.st53{fill:url(#SVGID_29_);}
	.st54{fill:url(#SVGID_30_);}
	.st55{fill:url(#SVGID_31_);}
	.st56{fill:url(#SVGID_32_);}
	.st57{fill:url(#SVGID_33_);}
	.st58{fill:none;}
	.st59{fill:#A6946F;}
	.st60{fill:url(#SVGID_34_);}
	.st61{fill:url(#SVGID_35_);}
	.st62{fill:url(#SVGID_36_);}
	.st63{fill:url(#SVGID_37_);}
	.st64{fill:url(#SVGID_38_);}
	.st65{fill:url(#SVGID_39_);}
	.st66{fill:url(#SVGID_40_);}
	.st67{fill:url(#SVGID_41_);}
	.st68{fill:#0791A2;}
	.st69{opacity:0.4;fill:url(#SVGID_42_);enable-background:new    ;}
	.st70{fill:none;stroke:#2620A4;stroke-width:0.667;stroke-linecap:round;stroke-linejoin:round;stroke-miterlimit:10;}
	.st71{fill:#4C5AFA;}
	.st72{fill:#2620A4;}
	.st73{fill:none;stroke:#DB5724;stroke-miterlimit:10;}
	.st74{fill:none;stroke:#4C5AFA;stroke-miterlimit:10;}
	.st75{opacity:0.6;}
	.st76{fill:none;stroke:#5058D7;stroke-width:0.5;stroke-linecap:round;stroke-linejoin:round;stroke-miterlimit:10;}
	.st77{fill:#252A30;}
</style>
<g id="BACKGROUND" class="st0">
	<g class="st1">
		<rect x="-13" y="-63.1" class="st2" width="500" height="500"/>
		<path class="st3" d="M324.7-8.3c38.6,1.1,75.7,19.3,103.1,46.5c14.4,14.4,26.5,31.5,33.2,50.7c7.1,20.6,7.8,42.8,6.6,64.6
			c-2.1,37.2-10.4,75.4-32.6,105.4c-24.9,33.7-65.1,53.6-106.1,62.4s-83.4,7.7-125.3,6.7c-41.3-1-84.7-2.3-120.4-23.1
			c-27.4-15.9-47.8-42.1-60.1-71.3S6.2,172.7,5.9,141c-0.2-29.8,4.2-61.8,24.5-83.6c10.7-11.4,25-19,39.8-24
			c14.6-4.9,30-7.4,45.3-5.9c18.9,1.9,36.6,9.8,54.9,14.8c14.1,3.9,32.2,7.1,46.3,1.3c11.1-4.6,17.8-18.2,27.6-25.9
			C266.9,0.1,296-9.1,324.7-8.3z"/>
	</g>
</g>
<g id="OBJECTS">
	<g>
		<g>
			<g>
				
					<linearGradient id="SVGID_1_" gradientUnits="userSpaceOnUse" x1="288.7" y1="94.95" x2="339" y2="94.95" gradientTransform="matrix(1 0 0 -1 0 332)">
					<stop  offset="1.036350e-03" style="stop-color:#DC6164"/>
					<stop  offset="0.3068" style="stop-color:#E0797B"/>
					<stop  offset="0.5186" style="stop-color:#E48C8D"/>
					<stop  offset="0.6036" style="stop-color:#E59596"/>
					<stop  offset="0.7459" style="stop-color:#E79E9E"/>
					<stop  offset="0.9972" style="stop-color:#E7A0A0"/>
				</linearGradient>
				<path class="st4" d="M314.2,206.9c0,0-15.6,40.2-25.5,52.6l11.6,7.7c0,0,15.3-20.1,23.2-31c1.3-1.8,15.5-25.1,15.5-25.1
					L314.2,206.9z"/>
				<g>
					<path class="st5" d="M280.5,269.2l3.6-4.6l4.9-5.6l11.6,8l-1.6,2.3c-0.6,0.9-0.7,2.1-0.2,3.1l1.1,2.2l0.9,1.9l4.4,9.1
						c0.6,2,0.3,4.2-0.9,5.8c-0.4,0.6-0.9,1.1-1.5,1.6l-21.9-17.7C279.2,273.6,279.1,271,280.5,269.2z"/>
					<g>
						<path class="st6" d="M299.8,274.1c-2.5,0.5-3,0.5-5.5,1.1c0.1,0,0.2,0,0.3,0"/>
						<path class="st6" d="M300.5,276.1c-2.3,0.7-2.6,0.7-4.9,1.4"/>
					</g>
					<path class="st7" d="M280.8,275.3l21.9,17.7c0.6-0.4,1.1-1,1.5-1.6l-19-15c0.4-0.7,0.7-1.5,0.9-2.3c0.5-1.8,0.6-3.8,0.2-5.7
						c-0.4-1.4-1.1-2.8-2.2-3.8l-3.6,4.6C279.1,271,279.2,273.6,280.8,275.3z"/>
				</g>
			</g>
			<g>
				
					<linearGradient id="SVGID_2_" gradientUnits="userSpaceOnUse" x1="261.2448" y1="131.45" x2="290.1448" y2="131.45" gradientTransform="matrix(1 0 0 -1 0 332)">
					<stop  offset="1.036350e-03" style="stop-color:#DC6164"/>
					<stop  offset="0.3068" style="stop-color:#E0797B"/>
					<stop  offset="0.5186" style="stop-color:#E48C8D"/>
					<stop  offset="0.6036" style="stop-color:#E59596"/>
					<stop  offset="0.7459" style="stop-color:#E79E9E"/>
					<stop  offset="0.9972" style="stop-color:#E7A0A0"/>
				</linearGradient>
				<path class="st8" d="M261.2,179.8l14.8,41.5l14.1-4.4l-4.2-9.1c-2-4.6-5-25.5-5-25.5L261.2,179.8z"/>
				<g>
					<path class="st5" d="M293.2,224.4L291,219l-3.2-6.8l-13.3,4.6l0.9,2.6c0.4,1,0.1,2.2-0.6,3l-1.6,1.9l-1.4,1.6l-6.6,7.6
						c-1.1,1.8-1.4,3.9-0.7,5.9c0.2,0.7,0.5,1.3,1,1.9l25.9-11.2C293.3,229,294.1,226.6,293.2,224.4z"/>
					<g>
						<path class="st6" d="M273.3,224c2.3,1.2,2.8,1.3,5,2.5c-0.1,0-0.2-0.1-0.3-0.1"/>
						<path class="st6" d="M272.1,225.7c2.1,1.3,2.3,1.4,4.3,2.7"/>
					</g>
					<path class="st7" d="M291.3,230.2l-25.9,11.2c-0.4-0.6-0.8-1.2-1-1.9l22.3-9.4c-0.1-0.8-0.2-1.6-0.2-2.5c0-1.9,0.4-3.9,1.4-5.5
						c0.7-1.3,1.8-2.4,3.1-3.1l2.2,5.4C294.1,226.6,293.3,229,291.3,230.2z"/>
				</g>
			</g>
			<g>
				<path class="st9" d="M305.8,181.4c0,0-2.7-0.6-11.2,1.8s-8.6,14.2-8.6,14.2l-2.9-1.7L262.7,184l-6.2-3.5
					c4.9-15.7,19.9-23.5,31.3-27.2c8-2.6,14.2-3.2,14.2-3.2v0.2l0.4,3.4L305.8,181.4z"/>
				<path class="st9" d="M350.6,166c0,0-0.7,17.5-4.1,27.5s-10.1,29.3-13.5,32.7c0,0-13.8-5.5-23.8-18.3c0,0,6.5-13.9-3.3-26.5
					L302,150L350.6,166z"/>
				<g>
					<g>
						<path class="st10" d="M337.8,165.5c0,0,0.1,0.2,0.3,0.6"/>
						<path class="st11" d="M339.1,167.9c1.7,2.9,4.9,7.6,8.7,9.6"/>
						<path class="st10" d="M348.9,177.9c0.2,0.1,0.4,0.1,0.6,0.2"/>
					</g>
				</g>
				<path class="st12" d="M305.9,151.7c0,0-6.7,5.8-17.7,1.5"/>
				<path class="st12" d="M305.8,181.4c0,0,5-15.2,20.3-23.3"/>
			</g>
		</g>
		<g>
			<g>
				<path class="st13" d="M350.8,149.4c-0.1,5.2-0.2,9.9-0.2,13.8c0,1,0,1.9,0,2.8c0,0-5.1,0.6-12.7-0.4c-4.8-0.6-10.5-1.9-16.7-4.3
					c-5.2-2-10.7-4.9-16.1-8.9c-0.9-0.7-1.9-1.4-2.8-2.2L302,150l-0.5-11.3l-0.4-10c-0.1-1.7-0.8-5.8-1.8-10.5
					c-1.5-7.2-3.5-15.8-4.4-19.7c-0.7-3.3,2.1-4.9,6.6-5.6c3.1-0.4,7.1-0.4,11.1,0c0.3,0,0.5,0,0.8,0.1l0,0c2.4,0.2,4.7,0.5,7.1,0.9
					l0,0c1.9,0.3,3.7,0.6,5.4,0.9c2.9,0.6,5.5,1.1,7.4,1.6c1.5,0.4,2.6,0.7,3.1,1c4.3,2,8.6,5.3,10,9.7c1,3.3,1.8,6.7,2.4,10.3
					C350.7,128.1,350.9,139.6,350.8,149.4z"/>
				<path class="st14" d="M327.7,118.4h9.1v7.9l-1.2,1c-1.6,1.2-3.8,1.4-5.5,0.4l-1.8-1L327.7,118.4z"/>
				<g>
					
						<linearGradient id="SVGID_3_" gradientUnits="userSpaceOnUse" x1="1001.9137" y1="436.8004" x2="1023.9874" y2="436.8004" gradientTransform="matrix(-0.9509 0.3095 -0.3095 -0.9509 1447.6714 130.7335)">
						<stop  offset="1.036350e-03" style="stop-color:#DC6164"/>
						<stop  offset="4.876799e-03" style="stop-color:#DD6567"/>
						<stop  offset="2.936425e-02" style="stop-color:#E07678"/>
						<stop  offset="5.885901e-02" style="stop-color:#E28384"/>
						<stop  offset="9.844893e-02" style="stop-color:#E48A8B"/>
						<stop  offset="0.1897" style="stop-color:#E48C8D"/>
						<stop  offset="0.3331" style="stop-color:#E59596"/>
						<stop  offset="0.5732" style="stop-color:#E79E9E"/>
						<stop  offset="0.9972" style="stop-color:#E7A0A0"/>
					</linearGradient>
					<path class="st15" d="M359.4,24.9c0.1-0.5-0.1-1-0.5-1.3c-0.6-0.4-1.2,0.1-1.6,0.5c-1.5,1.5-2.6,3.2-3.5,5.1
						c1.1-3,1.9-6,2.4-9.2c0.1-0.5,0.1-1-0.2-1.5c-0.6-1.4-2-1.1-2.7-0.4c-0.5,0.5-0.7,1.1-0.9,1.7c-0.9,2.5-1.5,5-2,7.6
						c0.4-3.2,0.2-6.5-0.6-9.6c-0.1-0.5-0.3-1.1-0.7-1.5c-0.4-0.4-1-0.7-1.5-0.4c-0.5,0.2-0.7,0.8-0.8,1.3c-0.9,3.4-0.2,7,0.5,10.4
						c-0.6-2.4-1.5-4.7-2.5-7c-0.4-0.9-1.1-1.9-2.1-1.9c-0.9,0-1.6,0.9-1.8,1.8c-0.1,0.9,1.6,6.4,2.7,9.5c-0.9-0.7-2.8-2.8-4.3-2.6
						c-1.4,0.2-2.1,1.8-1.3,3c1.7,2.3,4.3,3.3,6.2,8.9c0.7,2,2.9,3.1,5,3c3.9-0.1,4.9-5.8,6.2-8.9C356.9,31,358.8,27.8,359.4,24.9z"
						/>
					<path class="st13" d="M348.7,117.9c0,0,8.1-18.8,9.9-49.4c0,0,0.4-12-1.8-30.8l-17.4-2.1l1.9,33.2c0,0-3.8,21.2-7.6,27.1
						C329.9,101.7,348.7,117.9,348.7,117.9z"/>
				</g>
				<g>
					
						<linearGradient id="SVGID_4_" gradientUnits="userSpaceOnUse" x1="182.0051" y1="384.4343" x2="204.0797" y2="384.4343" gradientTransform="matrix(0.965 -0.2621 -0.2621 -0.965 159.646 465.3274)">
						<stop  offset="1.036350e-03" style="stop-color:#DC6164"/>
						<stop  offset="4.876799e-03" style="stop-color:#DD6567"/>
						<stop  offset="2.936425e-02" style="stop-color:#E07678"/>
						<stop  offset="5.885901e-02" style="stop-color:#E28384"/>
						<stop  offset="9.844893e-02" style="stop-color:#E48A8B"/>
						<stop  offset="0.1897" style="stop-color:#E48C8D"/>
						<stop  offset="0.3331" style="stop-color:#E59596"/>
						<stop  offset="0.5732" style="stop-color:#E79E9E"/>
						<stop  offset="0.9972" style="stop-color:#E7A0A0"/>
					</linearGradient>
					<path class="st16" d="M234.5,45.8c-0.3-0.4-0.5-0.9-0.3-1.3c0.3-0.6,1-0.6,1.6-0.5c2,0.5,4,1.3,5.7,2.4c-2.5-1.9-4.9-4-7.1-6.3
						c-0.3-0.4-0.6-0.8-0.7-1.3c-0.2-1.5,1-2,2-1.8c0.6,0.2,1.2,0.5,1.7,0.9c2.1,1.6,4.1,3.4,5.8,5.3c-2.1-2.5-3.7-5.3-4.8-8.4
						c-0.2-0.5-0.3-1.1-0.3-1.6c0.1-0.5,0.5-1.1,1-1.2c0.5-0.1,1,0.3,1.4,0.6c2.6,2.4,4,5.8,5.3,9c-0.8-2.3-1.4-4.8-1.7-7.2
						c-0.1-1-0.1-2.2,0.7-2.7s1.8-0.2,2.4,0.5c0.6,0.7,2.2,6.2,2.9,9.5c0.4-1,0.8-3.9,2.1-4.5s2.8,0.3,2.7,1.8
						c-0.1,2.8-1.8,5.1-0.3,10.9c0.5,2.1-0.7,4.1-2.5,5.2c-3.3,2.1-7.3-2.2-10-4C239.9,49.5,236.5,47.9,234.5,45.8z"/>
					<path class="st13" d="M299.6,118.3c0,0-18-11-37.1-34.9c0,0-9-11.5-18-28.1l13-11.7l20,30.1c0,0,17.6,16.7,24,19.3
						C307.9,95.5,299.6,118.3,299.6,118.3z"/>
				</g>
				<path class="st14" d="M318.6,102.7c0,0-4.2,42.5,1.1,57.6"/>
			</g>
			<g>
				
					<linearGradient id="SVGID_5_" gradientUnits="userSpaceOnUse" x1="336.7266" y1="200.7989" x2="350.6174" y2="200.7989" gradientTransform="matrix(0.9951 9.910000e-02 9.910000e-02 -0.9951 -42.7375 261.9034)">
					<stop  offset="1.036350e-03" style="stop-color:#DC6164"/>
					<stop  offset="4.937979e-03" style="stop-color:#DD6567"/>
					<stop  offset="2.981553e-02" style="stop-color:#E07678"/>
					<stop  offset="5.978015e-02" style="stop-color:#E28384"/>
					<stop  offset="0.1" style="stop-color:#E48A8B"/>
					<stop  offset="0.1927" style="stop-color:#E48C8D"/>
					<stop  offset="0.2676" style="stop-color:#E69697"/>
					<stop  offset="0.3832" style="stop-color:#E79E9E"/>
					<stop  offset="0.6283" style="stop-color:#E7A0A0"/>
					<stop  offset="0.6803" style="stop-color:#E7A0A0"/>
					<stop  offset="0.9964" style="stop-color:#E7A0A0"/>
				</linearGradient>
				<path class="st17" d="M325.6,90.2l-13,1.3c0,0,0.2,5.8,0.3,5.8c0.5,2.8,2.9,5.1,5.9,5.4c3.7,0.4,6.9-2.3,7.3-6
					C326.1,96.1,325.6,90.2,325.6,90.2z"/>
				
					<linearGradient id="SVGID_6_" gradientUnits="userSpaceOnUse" x1="334.0202" y1="229.9616" x2="313.2307" y2="265.6148" gradientTransform="matrix(0.9996 2.660000e-02 2.660000e-02 -0.9996 -13.8441 312.7101)">
					<stop  offset="1.036350e-03" style="stop-color:#DC6164"/>
					<stop  offset="3.232381e-03" style="stop-color:#DD6567"/>
					<stop  offset="1.723470e-02" style="stop-color:#E07678"/>
					<stop  offset="3.410028e-02" style="stop-color:#E28384"/>
					<stop  offset="5.673844e-02" style="stop-color:#E48A8B"/>
					<stop  offset="0.1089" style="stop-color:#E48C8D"/>
					<stop  offset="0.1673" style="stop-color:#E69697"/>
					<stop  offset="0.2573" style="stop-color:#E79E9E"/>
					<stop  offset="0.4482" style="stop-color:#E7A0A0"/>
					<stop  offset="0.5257" style="stop-color:#E7A0A0"/>
					<stop  offset="0.9964" style="stop-color:#E7A0A0"/>
				</linearGradient>
				<path class="st18" d="M331.1,80.7c-0.2,8.8-6,13.5-12.9,13.3s-12.4-5.2-12.1-14c0.4-15.1,6.1-17.9,13.1-17.7
					C326.1,62.5,331.6,64.8,331.1,80.7z"/>
				
					<linearGradient id="SVGID_7_" gradientUnits="userSpaceOnUse" x1="280.8895" y1="299.4186" x2="313.7169" y2="299.4186" gradientTransform="matrix(0.9958 -9.110000e-02 -9.110000e-02 -0.9958 48.111 391.5907)">
					<stop  offset="0" style="stop-color:#DB5724"/>
					<stop  offset="3.077170e-03" style="stop-color:#DB5724"/>
					<stop  offset="1" style="stop-color:#E2893A"/>
				</linearGradient>
				<path class="st19" d="M331.6,64.4c-0.7-0.4-1.6-0.7-2.1-1.2c-0.8-0.8-0.7-2-0.5-3s0.6-2.1,0.4-3.1c-0.3-1.2-1.4-2.1-2.7-2.5
					c-1.3-0.4-2.8-0.3-4.1,0c-2.6,0.5-5,1.7-6.9,3.3c-0.7,0.6-1.3,1.2-2.1,1.7c-0.8,0.5-1.8,0.8-2.7,0.5c-1.3-0.4-2-1.7-3.2-2.1
					c-1.2-0.4-2.6,0.2-3.3,1.2c-0.7,0.9-0.9,2.1-0.9,3.2c0,1,0.1,2.1,0.7,2.9c0.6,0.8,1.2,1.1,1.8,1.2c-0.1,0-0.1,0-0.2,0
					c-1,0-2-0.6-3-0.4c-0.9,0.2-1.4,1.1-1.4,1.8c0,0.8,0.4,1.5,0.8,2.2c0.1,0.2,0.2,0.4,0.3,0.6c0.1,0.5-0.4,0.8-0.7,1.2
					c-0.7,0.8-0.9,1.9-0.5,2.9c0.2,0.4,0.4,0.8,0.8,1.1c0.5,0.3,1,0.4,1.6,0.5c0.8,0.2,1.9,1.2,2.7,2c0.4,0.4,1,0.1,1-0.4
					c0.1-2.8,0.3-8.7,1-9.4c1.9-1.2,4.7-2.6,9.6,0.3c3.4,2,7.7,2.4,10.6,2.1c0.1,0.2,0,2.9,2,4.7c0.3,0.3,0.9,0,0.8-0.4
					c-0.6-5.8,1.8-4.2,2.1-7.4c0-0.1,0-0.1,0-0.2C333.6,66.5,332.8,65.2,331.6,64.4z"/>
				<g>
					<path class="st20" d="M304.5,76.8L304.5,76.8c-1.4,0.6-1.8,2.5-1,4.4c0.8,1.8,2.4,2.9,3.8,2.4l0,0c0.3-0.1,0.5-0.3,0.7-0.5
						c0.8-0.8,0.9-2.4,0.3-3.9s-1.8-2.4-3-2.5C305,76.7,304.7,76.7,304.5,76.8L304.5,76.8z"/>
					<path class="st20" d="M331,82.3L331,82.3c1.4,0.4,3-0.9,3.5-2.9c0.5-1.9-0.2-3.8-1.6-4.1l0,0c-0.3-0.1-0.6-0.1-0.9,0
						c-1.1,0.2-2.2,1.4-2.6,2.9c-0.4,1.6,0,3.1,0.9,3.8C330.5,82.1,330.7,82.2,331,82.3L331,82.3z"/>
				</g>
				<g>
					<g>
						<path d="M314.5,77.8c0,0.9-0.5,1.6-1.1,1.6s-1-0.7-1-1.6s0.5-1.6,1.1-1.6C314.1,76.2,314.5,76.9,314.5,77.8z"/>
						<path d="M324.8,77.9c0,0.9-0.5,1.6-1.1,1.6s-1-0.7-1-1.6s0.5-1.6,1.1-1.6S324.8,77,324.8,77.9z"/>
					</g>
					<path class="st21" d="M318.7,75.8c0.3,1.7,0.5,3.5,0.6,5.2c0,0.3,0,0.7-0.1,1c-0.3,0.5-0.9,0.5-1.5,0.5"/>
					<path class="st22" d="M324.9,73.3c0.4,0.1,0.7,0.3,1,0.7c0.1,0.2,0.2,0.4,0.1,0.5c-0.1,0.2-0.4,0.1-0.7,0
						c-0.5-0.2-1.1-0.3-1.6-0.3c-0.3,0-0.7,0-0.9-0.2c-0.4-0.4-0.1-0.9,0.3-1C323.5,72.9,324.4,73.1,324.9,73.3z"/>
					<path class="st22" d="M312.3,74c-0.4,0.2-0.7,0.4-0.9,0.7c-0.1,0.2-0.2,0.4-0.1,0.5c0.2,0.2,0.4,0.1,0.7,0
						c0.5-0.2,1-0.4,1.6-0.4c0.3,0,0.7,0,0.9-0.3c0.4-0.4,0.1-0.9-0.4-1C313.6,73.5,312.8,73.8,312.3,74z"/>
					<g>
						<path class="st3" d="M321.7,85.1c0-0.6-5.8-0.7-5.8,0.1c0,0.5,0.2,1,0.5,1.5c1.7-0.5,3.4-0.6,5.2-0.5
							C321.6,85.8,321.7,85.5,321.7,85.1z"/>
						<path d="M316.4,86.7c0.5,0.8,1.5,1.3,2.5,1.3c1.2,0,2.3-0.8,2.7-1.8C319.8,86.1,318,86.2,316.4,86.7z"/>
					</g>
				</g>
			</g>
		</g>
	</g>
	<g>
		<g>
			<g>
				
					<linearGradient id="SVGID_8_" gradientUnits="userSpaceOnUse" x1="334.8803" y1="962.3808" x2="343.3809" y2="962.3808" gradientTransform="matrix(0.5171 -0.8559 -0.8559 -0.5171 745.055 1035.1451)">
					<stop  offset="1.036350e-03" style="stop-color:#DC6164"/>
					<stop  offset="0.3068" style="stop-color:#E0797B"/>
					<stop  offset="0.5186" style="stop-color:#E48C8D"/>
					<stop  offset="0.6036" style="stop-color:#E59596"/>
					<stop  offset="0.7459" style="stop-color:#E79E9E"/>
					<stop  offset="0.9972" style="stop-color:#E7A0A0"/>
				</linearGradient>
				<polygon class="st23" points="93.8,240.5 90.7,242.6 99.3,253.7 102.9,251.6 				"/>
				<g>
					<path class="st22" d="M79.5,249.9l4.8-3.3l6.4-3.9l8.7,11.1l-2.2,1.7c-0.9,0.7-1.3,1.8-1.1,2.9l0.4,2.5l0.3,2.1l1.4,10
						c0,2.1-1,4.1-2.6,5.3c-0.6,0.4-1.2,0.8-1.9,1.1L78,255.8C76.9,253.7,77.6,251.2,79.5,249.9z"/>
					<g>
						<path class="st6" d="M96.4,260.3c-2.6-0.3-3-0.4-5.6-0.6c0.1,0,0.2,0,0.3,0.1"/>
						<path class="st6" d="M96.5,262.4c-2.4,0-2.7-0.1-5.1-0.1"/>
					</g>
					<path class="st24" d="M78,255.8l15.7,23.4c0.7-0.3,1.3-0.6,1.9-1.1l-13.7-20c0.6-0.6,1.1-1.3,1.5-2c1-1.6,1.8-3.5,1.9-5.4
						c0.1-1.5-0.2-3-1-4.3l-4.8,3.3C77.6,251.2,76.9,253.7,78,255.8z"/>
				</g>
				<g>
					<path class="st5" d="M138.8,221.7c3,5.8-6.1,12.5-8.6,14.2c-7.6,4.9-25.1,14.5-27.7,16.1c-2.7-3.8-4.9-6.4-8.6-11.5
						c1.4-0.9,2.5-2.1,4.7-3.7c0.5-0.5,22.7-18.1,31-20.8C133.1,214.9,135.6,215.4,138.8,221.7z"/>
				</g>
				<g>
					<g>
						<g>
							<path class="st25" d="M138.8,221.7c3,5.8-6.1,12.5-8.6,14.2c-7.6,4.9-25.1,14.5-27.7,16.1c-2.7-3.8-4.9-6.4-8.6-11.5
								c1.4-0.9,2.5-2.1,4.7-3.7c0.5-0.5,22.7-18.1,31-20.8C133.1,214.9,135.6,215.4,138.8,221.7z"/>
						</g>
					</g>
				</g>
			</g>
			<g>
				
					<linearGradient id="SVGID_9_" gradientUnits="userSpaceOnUse" x1="56.7339" y1="123.75" x2="65.2339" y2="123.75" gradientTransform="matrix(1 0 0 -1 0 332)">
					<stop  offset="1.036350e-03" style="stop-color:#DC6164"/>
					<stop  offset="0.3068" style="stop-color:#E0797B"/>
					<stop  offset="0.5186" style="stop-color:#E48C8D"/>
					<stop  offset="0.6036" style="stop-color:#E59596"/>
					<stop  offset="0.7459" style="stop-color:#E79E9E"/>
					<stop  offset="0.9972" style="stop-color:#E7A0A0"/>
				</linearGradient>
				<polygon class="st26" points="65.2,202.3 61.8,200.7 56.7,213.8 60.5,215.8 				"/>
				<g>
					<path class="st22" d="M49.8,194.8l5.3,2.4l6.7,3.4l-5,13.2l-2.6-1c-1-0.4-2.2-0.2-3,0.5l-1.9,1.6l-1.6,1.3l-7.8,6.4
						c-1.8,1.1-4,1.2-5.9,0.5c-0.7-0.2-1.3-0.6-1.9-1l12-25.5C45.2,194.6,47.7,193.9,49.8,194.8z"/>
					<g>
						<path class="st6" d="M49.7,214.8c-1.1-2.3-1.2-2.8-2.4-5.1c0,0.1,0.1,0.2,0.1,0.3"/>
						<path class="st6" d="M47.9,215.9c-1.2-2.1-1.3-2.3-2.5-4.4"/>
					</g>
					<path class="st24" d="M44,196.6l-12,25.5c0.6,0.5,1.2,0.8,1.9,1l10-22c0.8,0.2,1.6,0.3,2.5,0.3c1.9,0.1,3.9-0.3,5.6-1.2
						c1.3-0.7,2.4-1.8,3.2-3l-5.3-2.4C47.7,193.9,45.2,194.6,44,196.6z"/>
				</g>
				<g>
					<path class="st5" d="M95.2,226.5c-3.5,5.6-13.9,1.3-16.6-0.1c-8.1-4-16-9.5-18.8-10.8c1.9-4.3,2.9-7.5,5.4-13.3
						c1.5,0.7,3.1,1,5.6,2.1c0.7,0.2,17.8,5.6,24.5,11.2C98.1,218,99,220.5,95.2,226.5z"/>
				</g>
				<g>
					<g>
						<g>
							<path class="st25" d="M95.2,226.5c-3.5,5.6-13.9,1.3-16.6-0.1c-8.1-4-16-9.5-18.8-10.8c1.9-4.3,2.9-7.5,5.4-13.3
								c1.5,0.7,3.1,1,5.6,2.1c0.7,0.2,17.8,5.6,24.5,11.2C98.1,218,99,220.5,95.2,226.5z"/>
						</g>
					</g>
				</g>
			</g>
			<path class="st25" d="M134.9,230.3c-2.5,0.8-6,1.9-12.3-2.7c-6.3-4.6-16.3-45.7-16.3-45.7s-4.6,50.8-16.9,47.5
				c-0.1,0-0.1,0-0.2,0c-1.7-0.5-3.1-1.2-4.2-2c-7.7-5.4-6.1-16.2-6.1-16.2l0.1-14.3v-6.5l0.2-27.6l51.6,1.3c0,0,0.9,12.7,6.6,38.9
				C143,228.9,137.4,229.5,134.9,230.3z"/>
			<g>
				<path class="st27" d="M118.5,167.1c0,0,0.6,8.8,13.9,12.7"/>
				<path class="st27" d="M79,175.7c0,0,12.5,0.8,14.7-9.2"/>
			</g>
		</g>
		<g>
			<path class="st9" d="M133.3,166.3c0,0-0.9,0.1-2.4,0.3l0,0c-2.6,0.3-6.9,0.6-12.3,0.9c-7.1,0.3-16.1,0.4-24.9-0.4
				c-5-0.4-10-1.2-14.6-2.3c-0.7-0.2-1.4-0.4-2.1-0.5c0,0,0.8-10.4,1.6-22.8c0.1-1,0.1-1.9,0.2-2.9c0.3-5.1,0.6-10.4,0.9-15.4
				c0.1-0.9,0.1-1.9,0.1-2.8c0,0,0,0,0-0.1c0.5-9.7,0.7-17.7,0.2-19.9c-0.6-2.7,1.1-4.2,4.2-5.1c3.5-1,8.9-0.9,14.5-0.4
				c4.5,0.4,9.2,1.2,13.1,1.9c3.5,0.7,6.5,1.4,8.3,1.9c0.7,0.2,1.2,0.4,1.5,0.5c4.3,2,10.2,5.1,10,9.7c-0.1,3-0.2,6.3-0.2,9.8v0.1
				l0,0c0,1.9,0,3.9,0,5.9c0.1,4,0.2,8.2,0.3,12.2c0.1,1.9,0.1,3.8,0.2,5.6C132.5,155.7,133.3,166.3,133.3,166.3z"/>
			<path class="st28" d="M131.9,142.6c-2.3,0.5-4.8,0.9-7.4,1.2c-15.3,1.6-34.2-0.6-46-2.4c0.1-1,0.1-1.9,0.2-2.9
				c0.3-5.1,0.6-10.4,0.9-15.4c9.6,1.5,24.1,3.3,37.6,3c3-0.1,5.9-0.2,8.6-0.5c0.1,0,0.1,0,0.2,0c1.8-0.2,3.6-0.4,5.3-0.7
				c0.1,4,0.2,8.2,0.3,12.2C131.8,138.9,131.9,140.8,131.9,142.6z"/>
			<g>
				
					<linearGradient id="SVGID_10_" gradientUnits="userSpaceOnUse" x1="1120.9641" y1="89.5954" x2="1143.0388" y2="89.5954" gradientTransform="matrix(-0.9876 -0.1567 0.1567 -0.9876 1269.9008 312.1644)">
					<stop  offset="1.036350e-03" style="stop-color:#DC6164"/>
					<stop  offset="4.876799e-03" style="stop-color:#DD6567"/>
					<stop  offset="2.936425e-02" style="stop-color:#E07678"/>
					<stop  offset="5.885901e-02" style="stop-color:#E28384"/>
					<stop  offset="9.844893e-02" style="stop-color:#E48A8B"/>
					<stop  offset="0.1897" style="stop-color:#E48C8D"/>
					<stop  offset="0.3331" style="stop-color:#E59596"/>
					<stop  offset="0.5732" style="stop-color:#E79E9E"/>
					<stop  offset="0.9972" style="stop-color:#E7A0A0"/>
				</linearGradient>
				<path class="st29" d="M176.9,47c0.3-0.4,0.4-0.9,0.1-1.4c-0.4-0.6-1.1-0.5-1.7-0.3c-2,0.7-3.8,1.7-5.4,3c2.3-2.2,4.5-4.5,6.3-7
					c0.3-0.4,0.5-0.9,0.5-1.4c0.1-1.5-1.2-1.9-2.2-1.5c-0.6,0.2-1.1,0.7-1.6,1.1c-1.9,1.8-3.7,3.8-5.2,5.9c1.8-2.7,3.1-5.7,3.8-8.8
					c0.1-0.5,0.2-1.1,0.1-1.6c-0.1-0.5-0.6-1-1.1-1.1c-0.5,0-1,0.4-1.3,0.8c-2.3,2.6-3.3,6.1-4.3,9.5c0.5-2.4,0.8-4.9,0.9-7.3
					c0-1-0.1-2.2-1-2.6c-0.8-0.4-1.9,0-2.4,0.8s-1.5,6.4-1.9,9.7c-0.5-1-1.2-3.8-2.6-4.3c-1.3-0.5-2.7,0.6-2.5,2.1
					c0.4,2.8,2.3,4.9,1.5,10.8c-0.3,2.1,1.2,4,3.1,4.9c3.5,1.7,7.1-3,9.5-5.1C171.8,51.2,175,49.3,176.9,47z"/>
				<path class="st9" d="M125,125c0,0,15.8-13.1,31.3-39.5c0,0,5.9-10.5,12.4-28.3l-14.5-9.7l-13.4,30.4c0,0-15.1,17.6-21.1,21
					C113.7,102.4,125,125,125,125z"/>
			</g>
			<g>
				
					<linearGradient id="SVGID_11_" gradientUnits="userSpaceOnUse" x1="-29.2728" y1="438.6111" x2="-7.1982" y2="438.6111" gradientTransform="matrix(0.965 -0.2621 -0.2621 -0.965 159.646 465.3274)">
					<stop  offset="1.036350e-03" style="stop-color:#DC6164"/>
					<stop  offset="4.876799e-03" style="stop-color:#DD6567"/>
					<stop  offset="2.936425e-02" style="stop-color:#E07678"/>
					<stop  offset="5.885901e-02" style="stop-color:#E28384"/>
					<stop  offset="9.844893e-02" style="stop-color:#E48A8B"/>
					<stop  offset="0.1897" style="stop-color:#E48C8D"/>
					<stop  offset="0.3331" style="stop-color:#E59596"/>
					<stop  offset="0.5732" style="stop-color:#E79E9E"/>
					<stop  offset="0.9972" style="stop-color:#E7A0A0"/>
				</linearGradient>
				<path class="st30" d="M16.4,48.9c-0.3-0.4-0.5-0.9-0.3-1.3c0.3-0.6,1-0.6,1.6-0.5c2,0.5,4,1.3,5.7,2.4c-2.5-1.9-4.9-4-7.1-6.3
					c-0.3-0.4-0.6-0.8-0.7-1.3c-0.2-1.5,1-2,2-1.8c0.6,0.2,1.2,0.5,1.7,0.9c2.1,1.6,4.1,3.4,5.8,5.3c-2.1-2.5-3.7-5.3-4.8-8.4
					c-0.2-0.5-0.3-1.1-0.3-1.6c0.1-0.5,0.5-1.1,1-1.2c0.5-0.1,1,0.3,1.4,0.6c2.6,2.4,4,5.8,5.3,9c-0.8-2.3-1.4-4.8-1.7-7.2
					c-0.1-1-0.1-2.2,0.7-2.7c0.8-0.5,1.8-0.2,2.4,0.5s2.2,6.2,2.9,9.5c0.4-1,0.8-3.9,2.1-4.5s2.8,0.3,2.7,1.8
					c-0.1,2.8-1.8,5.1-0.3,10.9c0.5,2.1-0.7,4.1-2.5,5.2c-3.3,2.1-7.3-2.2-10-4C21.8,52.6,18.4,51,16.4,48.9z"/>
				<path class="st9" d="M81.9,120.4c-0.3,0.6-0.4,1-0.4,1s-0.6-0.4-1.7-1.1c0,0-0.1,0-0.1-0.1c-5-3.4-19.8-14.3-35.2-33.7
					c0,0-9-11.5-18-28.1L28,57l8.3-7.5l3.2-2.9l20,30.1c0,0,17.8,15.2,24.7,18.5c0.2,0.1,0.4,0.2,0.6,0.3
					C90.4,97.8,83.7,115.9,81.9,120.4z"/>
			</g>
			<g>
				
					<linearGradient id="SVGID_12_" gradientUnits="userSpaceOnUse" x1="169.5907" y1="93.3831" x2="167.2448" y2="105.0751" gradientTransform="matrix(0.9805 0.1967 0.1967 -0.9805 -79.4519 161.4869)">
					<stop  offset="1.036350e-03" style="stop-color:#DC6164"/>
					<stop  offset="4.937979e-03" style="stop-color:#DD6567"/>
					<stop  offset="2.981553e-02" style="stop-color:#E07678"/>
					<stop  offset="5.978015e-02" style="stop-color:#E28384"/>
					<stop  offset="0.1" style="stop-color:#E48A8B"/>
					<stop  offset="0.1927" style="stop-color:#E48C8D"/>
					<stop  offset="0.2676" style="stop-color:#E69697"/>
					<stop  offset="0.3832" style="stop-color:#E79E9E"/>
					<stop  offset="0.6283" style="stop-color:#E7A0A0"/>
					<stop  offset="0.6803" style="stop-color:#E7A0A0"/>
					<stop  offset="0.9964" style="stop-color:#E7A0A0"/>
				</linearGradient>
				<path class="st31" d="M111.9,91.4H98.8l-0.3,5.8c0.3,2.9,2.4,5.4,5.3,6c3.6,0.7,7.1-1.6,7.8-5.2
					C111.8,97.3,111.9,91.4,111.9,91.4z"/>
				
					<linearGradient id="SVGID_13_" gradientUnits="userSpaceOnUse" x1="64.5536" y1="250.1275" x2="43.7649" y2="285.7794" gradientTransform="matrix(0.9498 -4.000000e-03 -4.200000e-03 -1 52.3875 342.5598)">
					<stop  offset="1.036350e-03" style="stop-color:#DC6164"/>
					<stop  offset="3.232381e-03" style="stop-color:#DD6567"/>
					<stop  offset="1.723470e-02" style="stop-color:#E07678"/>
					<stop  offset="3.410028e-02" style="stop-color:#E28384"/>
					<stop  offset="5.673844e-02" style="stop-color:#E48A8B"/>
					<stop  offset="0.1089" style="stop-color:#E48C8D"/>
					<stop  offset="0.1673" style="stop-color:#E69697"/>
					<stop  offset="0.2573" style="stop-color:#E79E9E"/>
					<stop  offset="0.4482" style="stop-color:#E7A0A0"/>
					<stop  offset="0.5257" style="stop-color:#E7A0A0"/>
					<stop  offset="0.9964" style="stop-color:#E7A0A0"/>
				</linearGradient>
				<path class="st32" d="M117,81c0,8.8-5.3,13.7-11.8,13.7c-6.6,0-11.9-4.8-11.9-13.6C93.2,66,98.6,63,105.2,63
					C111.7,63,117,65.1,117,81z"/>
				
					<linearGradient id="SVGID_14_" gradientUnits="userSpaceOnUse" x1="92.0275" y1="263.25" x2="119.3333" y2="263.25" gradientTransform="matrix(1 0 0 -1 0 332)">
					<stop  offset="0" style="stop-color:#191A43"/>
					<stop  offset="3.427930e-03" style="stop-color:#191A43"/>
					<stop  offset="0.2861" style="stop-color:#1C1D48"/>
					<stop  offset="0.6382" style="stop-color:#232458"/>
					<stop  offset="1" style="stop-color:#2E2F6F"/>
				</linearGradient>
				<path class="st33" d="M117.6,78.5c-2.5-2.2-3.8-6.2-3-9.5c-5.1,2.6-14.2,1.9-18.3,0.1c0.3,2.9-0.7,7-2.5,9.3
					c-0.4-2.2-0.2-5-0.9-7.2c-1.1-3.7-0.9-5.5,0-7.6c1.9-4.2,4.8-1.6,6.3-1.8c3.4-0.3,8.2-2.8,11.6-2.8c5.4,0,9.3,4.5,8.4,8.2
					C117.5,74.7,118.1,77.2,117.6,78.5z"/>
				<g>
					
						<linearGradient id="SVGID_15_" gradientUnits="userSpaceOnUse" x1="93.1468" y1="243.9539" x2="117.8064" y2="243.9539" gradientTransform="matrix(1 0 0 -1 0 332)">
						<stop  offset="0" style="stop-color:#191A43"/>
						<stop  offset="3.427930e-03" style="stop-color:#191A43"/>
						<stop  offset="0.2861" style="stop-color:#1C1D48"/>
						<stop  offset="0.6382" style="stop-color:#232458"/>
						<stop  offset="1" style="stop-color:#2E2F6F"/>
					</linearGradient>
					<path class="st34" d="M95.9,85.7c5.3-2.6,13.6-3.4,18.7-0.3c0,0,1.7-0.9,2.4-3.5l0.9-0.1c0,0-0.2,3.8-2.1,8.2
						c-1,2.3-3.8,4.9-6.3,5c-2.4,0.1-5.1,0-7.8-0.1c-3.1-0.1-6.1-2.5-7.1-5.4c-0.9-2.6-1.1-5.5-1.4-7.9c0,0,0.2-1.3,0.7,0.1
						C94.6,83.8,95.9,85.7,95.9,85.7z"/>
					<g>
						<ellipse cx="100.3" cy="77.8" rx="1.1" ry="1.6"/>
					</g>
					<g>
						<path d="M111.4,77.8c0,0.9-0.5,1.6-1.1,1.6s-1.1-0.7-1.1-1.6s0.5-1.6,1.1-1.6C110.9,76.2,111.4,77,111.4,77.8z"/>
					</g>
					<path class="st21" d="M105.3,76.1c0.4,1.7,0.6,3.4,0.8,5.2c0,0.3,0.1,0.7-0.1,1c-0.3,0.5-0.9,0.6-1.5,0.6"/>
					
						<linearGradient id="SVGID_16_" gradientUnits="userSpaceOnUse" x1="73.6083" y1="416.1894" x2="76.9736" y2="416.1894" gradientTransform="matrix(0.9834 -0.1812 -0.1812 -0.9834 111.7221 497.4367)">
						<stop  offset="0" style="stop-color:#191A43"/>
						<stop  offset="3.427930e-03" style="stop-color:#191A43"/>
						<stop  offset="0.2861" style="stop-color:#1C1D48"/>
						<stop  offset="0.6382" style="stop-color:#232458"/>
						<stop  offset="1" style="stop-color:#2E2F6F"/>
					</linearGradient>
					<path class="st35" d="M110.9,74c0.4,0.1,0.8,0.3,1,0.6c0.1,0.1,0.2,0.4,0.1,0.5c-0.1,0.2-0.4,0.1-0.7,0.1
						c-0.5-0.2-1.1-0.2-1.6-0.2c-0.3,0-0.7,0.1-0.9-0.1c-0.4-0.3-0.2-0.9,0.2-1.1C109.6,73.6,110.4,73.8,110.9,74z"/>
					
						<linearGradient id="SVGID_17_" gradientUnits="userSpaceOnUse" x1="98.3231" y1="257.7556" x2="101.8049" y2="257.7556" gradientTransform="matrix(1 0 0 -1 0 332)">
						<stop  offset="0" style="stop-color:#191A43"/>
						<stop  offset="3.427930e-03" style="stop-color:#191A43"/>
						<stop  offset="0.2861" style="stop-color:#1C1D48"/>
						<stop  offset="0.6382" style="stop-color:#232458"/>
						<stop  offset="1" style="stop-color:#2E2F6F"/>
					</linearGradient>
					<path class="st36" d="M99.5,73.8c-0.4,0.1-0.7,0.3-1,0.6c-0.1,0.2-0.2,0.4-0.1,0.5c0.1,0.2,0.4,0.1,0.7,0
						c0.5-0.2,1.1-0.3,1.6-0.2c0.3,0,0.7,0,0.9-0.2c0.4-0.3,0.2-0.9-0.3-1C100.8,73.4,100,73.6,99.5,73.8z"/>
					<g>
						<path class="st3" d="M107.8,85.2c0-0.5-4.6-0.5-4.6,0.2c0,0.4,0.2,0.8,0.4,1.1c1.3-0.4,2.7-0.5,4.1-0.5
							C107.8,85.8,107.8,85.5,107.8,85.2z"/>
						<path class="st3" d="M103.6,86.5c0.4,0.6,1.2,1,2,1c1,0,1.8-0.6,2.1-1.5C106.3,86,104.9,86.2,103.6,86.5z"/>
					</g>
				</g>
				<g>
					<g>
						<path class="st20" d="M91.3,75.6L91.3,75.6c-1.4,0.4-2,2.3-1.4,4.3c0.6,1.9,2.2,3.1,3.5,2.7l0,0c0.3-0.1,0.5-0.2,0.7-0.4
							c0.8-0.8,1.1-2.3,0.7-3.8c-0.5-1.5-1.6-2.6-2.7-2.8C91.8,75.5,91.6,75.5,91.3,75.6L91.3,75.6z"/>
					</g>
					<g>
						<path class="st20" d="M119,75.6C119.1,75.6,119.1,75.6,119,75.6c1.4,0.4,2,2.3,1.4,4.3c-0.6,1.9-2.2,3.1-3.5,2.7l0,0
							c-0.3-0.1-0.5-0.2-0.7-0.4c-0.8-0.8-1.1-2.3-0.7-3.8c0.5-1.5,1.6-2.6,2.7-2.8C118.5,75.5,118.8,75.5,119,75.6L119,75.6z"/>
					</g>
				</g>
			</g>
		</g>
	</g>
	<g>
		<g>
			<g>
				<g>
					
						<linearGradient id="SVGID_18_" gradientUnits="userSpaceOnUse" x1="1893.2845" y1="-712.8696" x2="1921.4637" y2="-712.8696" gradientTransform="matrix(-0.7958 -0.6056 0.6056 -0.7958 2061.1934 904.1459)">
						<stop  offset="1.036350e-03" style="stop-color:#DC6164"/>
						<stop  offset="4.937979e-03" style="stop-color:#DD6567"/>
						<stop  offset="2.981553e-02" style="stop-color:#E07678"/>
						<stop  offset="5.978015e-02" style="stop-color:#E28384"/>
						<stop  offset="0.1" style="stop-color:#E48A8B"/>
						<stop  offset="0.1927" style="stop-color:#E48C8D"/>
						<stop  offset="0.2676" style="stop-color:#E69697"/>
						<stop  offset="0.3832" style="stop-color:#E79E9E"/>
						<stop  offset="0.6283" style="stop-color:#E7A0A0"/>
						<stop  offset="0.6803" style="stop-color:#E7A0A0"/>
						<stop  offset="0.9964" style="stop-color:#E7A0A0"/>
					</linearGradient>
					<path class="st37" d="M96.5,313C96.4,313,96.4,313,96.5,313c-0.6,0.8-0.4,2,0.4,2.6l18.7,13.3c1.8,0.9,4,0.3,5.2-1.3l2.5-3.5
						l0.4-0.6l3.5-5.5l-9.7-7.6l-1.5,1.9c-0.6,0.8-1.5,1.1-2.5,1l-2.2-0.3l-1.8-0.3l-2.9-0.6l0,0l-5.4-1.2
						C99.3,310.7,97.6,311.6,96.5,313z"/>
				</g>
				<path class="st5" d="M96.5,313C96.4,313,96.4,313,96.5,313c-0.6,0.8-0.4,2,0.4,2.6l18.7,13.3c1.8,0.9,4.1,0.6,5.3-1.1l4.1-5.9
					c-2.1-0.9-25.3-5.8-18.5-10l-5.4-1.2C99.3,310.7,97.6,311.6,96.5,313z"/>
			</g>
			<g>
				<g>
					
						<linearGradient id="SVGID_19_" gradientUnits="userSpaceOnUse" x1="317.8411" y1="487.4618" x2="346.0195" y2="487.4618" gradientTransform="matrix(0.7958 -0.6056 -0.6056 -0.7958 309.28 904.1459)">
						<stop  offset="1.036350e-03" style="stop-color:#DC6164"/>
						<stop  offset="4.937979e-03" style="stop-color:#DD6567"/>
						<stop  offset="2.981553e-02" style="stop-color:#E07678"/>
						<stop  offset="5.978015e-02" style="stop-color:#E28384"/>
						<stop  offset="0.1" style="stop-color:#E48A8B"/>
						<stop  offset="0.1927" style="stop-color:#E48C8D"/>
						<stop  offset="0.2676" style="stop-color:#E69697"/>
						<stop  offset="0.3832" style="stop-color:#E79E9E"/>
						<stop  offset="0.6283" style="stop-color:#E7A0A0"/>
						<stop  offset="0.6803" style="stop-color:#E7A0A0"/>
						<stop  offset="0.9964" style="stop-color:#E7A0A0"/>
					</linearGradient>
					<path class="st38" d="M293.4,311.8L293.4,311.8c0.6,0.8,0.4,2-0.4,2.6l-18.7,13.3c-1.8,0.9-4,0.3-5.2-1.3l-2.5-3.5l-0.4-0.6
						l-3.5-5.5l9.7-7.6l1.5,1.9c0.6,0.8,1.5,1.1,2.5,1l2.2-0.3l1.8-0.3l2.9-0.6l0,0l5.4-1.2C290.5,309.6,292.2,310.5,293.4,311.8z"
						/>
				</g>
				<path class="st5" d="M293.4,311.8L293.4,311.8c0.6,0.8,0.4,2-0.4,2.6l-18.7,13.3c-1.8,0.9-4.1,0.6-5.3-1.1l-4.1-5.9
					c2.1-0.9,25.3-5.8,18.5-10l5.4-1.2C290.5,309.6,292.2,310.5,293.4,311.8z"/>
			</g>
			<g>
				<path class="st39" d="M257.4,280.5c-7.6-9.6-35.2-46.4-35.2-46.4l-54.3,0.8c0,0-27.6,36.8-35.2,46.4
					c-7.6,9.6-17.5,29.6-17.5,29.6l11.5,9.6l29.6-32.2c0,0,27.2-28.9,37.4-33.7l1.9-1.1c10.2,4.8,38.3,34,38.3,34l29.6,32.2
					l11.5-9.6C274.9,310.1,265.1,290.1,257.4,280.5z"/>
				<g>
					
						<linearGradient id="SVGID_20_" gradientUnits="userSpaceOnUse" x1="2040.7843" y1="93.2388" x2="2021.4087" y2="93.2388" gradientTransform="matrix(-1 0 0 -1 2202.459 332)">
						<stop  offset="1.036350e-03" style="stop-color:#056571"/>
						<stop  offset="1" style="stop-color:#1A1B50;stop-opacity:0"/>
					</linearGradient>
					<path class="st40" d="M181.1,234.2c0,0-4.8,10.9-19.4,9l6.7-9.1L181.1,234.2z"/>
					<path class="st41" d="M181.1,234.2c0,0-4.8,10.9-19.4,9"/>
					
						<linearGradient id="SVGID_21_" gradientUnits="userSpaceOnUse" x1="774.1369" y1="93.2388" x2="754.7613" y2="93.2388" gradientTransform="matrix(1 0 0 -1 -545.1369 332)">
						<stop  offset="1.036350e-03" style="stop-color:#056571"/>
						<stop  offset="1" style="stop-color:#1A1B50;stop-opacity:0"/>
					</linearGradient>
					<path class="st42" d="M209.6,234.2c0,0,4.8,10.9,19.4,9l-6.7-9.1L209.6,234.2z"/>
					<path class="st41" d="M209.6,234.2c0,0,4.8,10.9,19.4,9"/>
				</g>
			</g>
		</g>
		<g>
			<path class="st22" d="M194.7,176.1c0,0-23.1,0.5-22.7,9c0.3,6.6,0,14.8,0.9,22.1c0.5,4.1,0.4,8.3-0.9,12.3
				c-3.5,11.5-4,15.5-4,15.5l54.8-0.5c0,0-2.4-7.4-3.9-15c-0.8-3.8-0.9-7.7-0.3-11.6c1-6.8,2.4-17.8,2.5-24.3
				C221,183.5,218,175.8,194.7,176.1z"/>
			<line class="st43" x1="168.6" y1="232.8" x2="222" y2="232.6"/>
		</g>
		<g>
			
				<linearGradient id="SVGID_22_" gradientUnits="userSpaceOnUse" x1="1130.8673" y1="197.6832" x2="1146.9625" y2="197.6832" gradientTransform="matrix(-0.9992 3.970000e-02 -3.970000e-02 -0.9992 1370.83 267.6541)">
				<stop  offset="1.036350e-03" style="stop-color:#DC6164"/>
				<stop  offset="4.876799e-03" style="stop-color:#DD6567"/>
				<stop  offset="2.936425e-02" style="stop-color:#E07678"/>
				<stop  offset="5.885901e-02" style="stop-color:#E28384"/>
				<stop  offset="9.844893e-02" style="stop-color:#E48A8B"/>
				<stop  offset="0.1897" style="stop-color:#E48C8D"/>
				<stop  offset="0.3331" style="stop-color:#E59596"/>
				<stop  offset="0.5732" style="stop-color:#E79E9E"/>
				<stop  offset="0.9972" style="stop-color:#E7A0A0"/>
			</linearGradient>
			<path class="st44" d="M232.9,114.1c0.1-0.3,0.1-0.7-0.1-0.9c-0.3-0.4-0.8-0.2-1.1,0c-1.2,0.7-3,2.5-3.9,3.6
				c1.2-1.7,2.7-4.5,3.6-6.4c0.1-0.3,0.2-0.7,0.2-1c-0.1-1-1.1-1.1-1.6-0.7c-0.4,0.2-0.6,0.6-0.9,0.9c-1,1.4-2.3,3.9-3,5.5
				c0.8-2,1.8-5.4,1.9-7.5c0-0.4,0-0.7-0.1-1.1c-0.2-0.3-0.5-0.6-0.9-0.5s-0.6,0.4-0.8,0.7c-1.2,2-1.9,5.7-2.1,8.1
				c0-1.6,0-5.2-0.3-6.8c-0.1-0.7-0.4-1.4-1-1.6s-1.2,0.3-1.4,0.8c-0.2,0.6-0.3,6.3-0.1,8.5c-0.4-0.6-1.9-3.6-2.9-3.7
				c-0.9-0.1-1.7,0.8-1.4,1.7c0.7,1.8,2.8,4.2,3,8.1c0.1,1.4,1.3,2.5,2.6,2.8c2.5,0.7,4.2-2.9,5.6-4.6
				C229.4,118.4,232,115.9,232.9,114.1z"/>
			
				<linearGradient id="SVGID_23_" gradientUnits="userSpaceOnUse" x1="1219.6006" y1="599.4807" x2="1235.6959" y2="599.4807" gradientTransform="matrix(-0.8866 0.4625 -0.4625 -0.8866 1532.6809 79.2183)">
				<stop  offset="1.036350e-03" style="stop-color:#DC6164"/>
				<stop  offset="4.876799e-03" style="stop-color:#DD6567"/>
				<stop  offset="2.936425e-02" style="stop-color:#E07678"/>
				<stop  offset="5.885901e-02" style="stop-color:#E28384"/>
				<stop  offset="9.844893e-02" style="stop-color:#E48A8B"/>
				<stop  offset="0.1897" style="stop-color:#E48C8D"/>
				<stop  offset="0.3331" style="stop-color:#E59596"/>
				<stop  offset="0.5732" style="stop-color:#E79E9E"/>
				<stop  offset="0.9972" style="stop-color:#E7A0A0"/>
			</linearGradient>
			<path class="st45" d="M173.6,111.1c0-0.3-0.2-0.7-0.5-0.8c-0.4-0.2-0.8,0.2-1,0.5c-0.8,1.1-1.7,3.5-2,4.9
				c0.4-2.1,0.5-5.2,0.5-7.3c0-0.3-0.1-0.7-0.3-1c-0.6-0.8-1.4-0.5-1.8,0.1c-0.2,0.4-0.3,0.8-0.4,1.2c-0.3,1.7-0.4,4.5-0.4,6.2
				c-0.1-2.1-0.6-5.7-1.5-7.6c-0.1-0.3-0.3-0.7-0.6-0.9c-0.3-0.2-0.7-0.3-1-0.1c-0.3,0.2-0.4,0.6-0.4,1c-0.2,2.3,0.7,6,1.5,8.2
				c-0.7-1.5-2.2-4.7-3.2-6.1c-0.4-0.5-0.9-1.1-1.6-1c-0.6,0.1-1,0.8-1,1.4s2.5,5.8,3.6,7.7c-0.7-0.3-3.2-2.4-4.2-2.1
				c-0.9,0.3-1.2,1.4-0.5,2.1c1.3,1.3,4.3,2.6,6.2,6.1c0.7,1.3,2.2,1.7,3.6,1.4c2.6-0.5,2.6-4.4,3.1-6.5
				C172.3,116.5,173.6,113,173.6,111.1z"/>
			<path class="st22" d="M220.6,187.9c0,0,2.7-28.1,3.8-34.7c0.9-5.3,1.4-9.4,2-12.2l3.5-17.5l-12.8-3.9c0,0-5.7,25.6-6.7,34
				c-1,8.5-3,21.9-7.9,23.8s-10,3.2-13.6,0c-3.5-3.2-6.7-8.9-8.3-19.3c-1.6-10.4-3.5-26.1-6-39.7l-13.8,6.1c0,0,3.8,28.3,5.6,35.6
				s5.5,25,5.5,25L220.6,187.9z"/>
		</g>
		<g>
			<g>
				
					<linearGradient id="SVGID_24_" gradientUnits="userSpaceOnUse" x1="188.2121" y1="192.5557" x2="206.1586" y2="192.5557" gradientTransform="matrix(1 0 0 -1 0 332)">
					<stop  offset="0" style="stop-color:#2F3285"/>
					<stop  offset="0.2412" style="stop-color:#303488"/>
					<stop  offset="0.454" style="stop-color:#353993"/>
					<stop  offset="0.6561" style="stop-color:#3C41A5"/>
					<stop  offset="0.8504" style="stop-color:#464DBF"/>
					<stop  offset="0.9973" style="stop-color:#5058D7"/>
				</linearGradient>
				<path class="st46" d="M188.4,142.9c-0.6-1.4,0.3-3.2,1.8-3.6c-0.9-0.8-1.2-2.3-0.6-3.3c0.6-1.1,2-1.6,3.2-1.2
					c0-1.1,0.8-2.2,1.9-2.6c1.1-0.3,2.4,0.1,3,1c0.5-0.8,1.5-1.1,2.3-0.9c0.8,0.2,1.5,1.1,1.5,2c0.7-0.7,2-0.7,2.8,0
					c0.7,0.7,0.8,1.9,0.2,2.7c0.7,0,1.3,0.4,1.6,1s0.1,1.4-0.4,1.8c0.9,1.1,0.8,2.8-0.2,3.7c-1,1-2.7,1.1-3.7,0.2
					c0,1.1-0.8,2.1-1.8,2.5s-2.2,0.1-3-0.6c-0.5,0.9-1.7,1.4-2.7,1.1c-1.3-0.3-1.4-1.7-2.5-2.2C190.5,144,189.1,144.7,188.4,142.9z"
					/>
				<g>
					
						<linearGradient id="SVGID_25_" gradientUnits="userSpaceOnUse" x1="260.8733" y1="38.1117" x2="259.5948" y2="50.9435" gradientTransform="matrix(0.9847 0.1741 0.1741 -0.9847 -68.6645 176.4868)">
						<stop  offset="1.036350e-03" style="stop-color:#DC6164"/>
						<stop  offset="4.937979e-03" style="stop-color:#DD6567"/>
						<stop  offset="2.981553e-02" style="stop-color:#E07678"/>
						<stop  offset="5.978015e-02" style="stop-color:#E28384"/>
						<stop  offset="0.1" style="stop-color:#E48A8B"/>
						<stop  offset="0.1927" style="stop-color:#E48C8D"/>
						<stop  offset="0.2676" style="stop-color:#E69697"/>
						<stop  offset="0.3832" style="stop-color:#E79E9E"/>
						<stop  offset="0.6283" style="stop-color:#E7A0A0"/>
						<stop  offset="0.6803" style="stop-color:#E7A0A0"/>
						<stop  offset="0.9964" style="stop-color:#E7A0A0"/>
					</linearGradient>
					<path class="st47" d="M201.2,171.9l-11.3,0.2l-0.2,7.1c0.3,2.5,2.1,4.6,4.7,5c3.1,0.6,6.1-1.5,6.7-4.7
						C201.2,179.1,201.2,171.9,201.2,171.9z"/>
					
						<linearGradient id="SVGID_26_" gradientUnits="userSpaceOnUse" x1="83.7128" y1="143.4245" x2="82.5311" y2="182.9739" gradientTransform="matrix(0.8749 2.330000e-02 2.660000e-02 -0.9996 117.9526 316.3603)">
						<stop  offset="1.036350e-03" style="stop-color:#DC6164"/>
						<stop  offset="3.232381e-03" style="stop-color:#DD6567"/>
						<stop  offset="1.723470e-02" style="stop-color:#E07678"/>
						<stop  offset="3.410028e-02" style="stop-color:#E28384"/>
						<stop  offset="5.673844e-02" style="stop-color:#E48A8B"/>
						<stop  offset="0.1089" style="stop-color:#E48C8D"/>
						<stop  offset="0.1673" style="stop-color:#E69697"/>
						<stop  offset="0.2573" style="stop-color:#E79E9E"/>
						<stop  offset="0.4482" style="stop-color:#E7A0A0"/>
						<stop  offset="0.5257" style="stop-color:#E7A0A0"/>
						<stop  offset="0.9964" style="stop-color:#E7A0A0"/>
					</linearGradient>
					<path class="st48" d="M205.7,163c-0.2,8.6-6.8,11.9-10.5,11.9c-3.5,0-11.2-3.9-10.9-12.5c0.4-14.9,5.3-17.6,11.3-17.4
						C201.5,145.2,206.2,147.4,205.7,163z"/>
					<g>
						
							<linearGradient id="SVGID_27_" gradientUnits="userSpaceOnUse" x1="199.0453" y1="174.7022" x2="202.4286" y2="174.7022" gradientTransform="matrix(1 0 0 -1 0 332)">
							<stop  offset="0" style="stop-color:#2F3285"/>
							<stop  offset="0.2412" style="stop-color:#303488"/>
							<stop  offset="0.454" style="stop-color:#353993"/>
							<stop  offset="0.6561" style="stop-color:#3C41A5"/>
							<stop  offset="0.8504" style="stop-color:#464DBF"/>
							<stop  offset="0.9973" style="stop-color:#5058D7"/>
						</linearGradient>
						<path class="st49" d="M201.3,156.9c0.4,0.1,0.7,0.3,1,0.6c0.1,0.2,0.2,0.4,0.1,0.5c-0.1,0.2-0.4,0.1-0.7,0
							c-0.5-0.2-1-0.3-1.6-0.3c-0.3,0-0.7,0-0.9-0.2c-0.4-0.3-0.1-0.9,0.3-1C200,156.4,200.9,156.7,201.3,156.9z"/>
						
							<linearGradient id="SVGID_28_" gradientUnits="userSpaceOnUse" x1="188.7782" y1="174.5923" x2="192.12" y2="174.5923" gradientTransform="matrix(1 0 0 -1 0 332)">
							<stop  offset="0" style="stop-color:#2F3285"/>
							<stop  offset="0.2412" style="stop-color:#303488"/>
							<stop  offset="0.454" style="stop-color:#353993"/>
							<stop  offset="0.6561" style="stop-color:#3C41A5"/>
							<stop  offset="0.8504" style="stop-color:#464DBF"/>
							<stop  offset="0.9973" style="stop-color:#5058D7"/>
						</linearGradient>
						<path class="st50" d="M189.8,157c-0.4,0.2-0.7,0.4-0.9,0.7c-0.1,0.2-0.2,0.4-0.1,0.5c0.2,0.2,0.4,0.1,0.7,0
							c0.5-0.2,1-0.4,1.6-0.4c0.3,0,0.7,0,0.9-0.3c0.4-0.4,0.1-0.9-0.4-1C191.1,156.5,190.3,156.8,189.8,157z"/>
						<g>
							<path class="st3" d="M197.7,166.4c0-0.5-4.5-0.6-4.5,0.1c0,0.4,0.1,0.8,0.4,1.1c1.3-0.4,2.7-0.5,4-0.4
								C197.7,166.9,197.7,166.6,197.7,166.4z"/>
							<path class="st3" d="M193.6,167.6c0.4,0.6,1.1,1,1.9,1c0.9,0,1.7-0.6,2.1-1.4C196.3,167.1,194.9,167.2,193.6,167.6z"/>
						</g>
						<path class="st51" d="M195.4,160.4c0,0-0.7,1.9-0.7,2.5c0,0.3,0.1,0.5,0.4,0.6c0.2,0.1,0.6,0.1,1.2,0"/>
						<g>
							<g>
								<path d="M191.4,160.3c0,0.7-0.4,1.2-0.8,1.2c-0.5,0-0.8-0.6-0.8-1.2c0-0.7,0.4-1.2,0.8-1.2
									C191.1,159.1,191.4,159.6,191.4,160.3z"/>
								<path d="M201.2,160.4c0,0.7-0.4,1.2-0.8,1.2c-0.5,0-0.8-0.6-0.8-1.2c0-0.7,0.4-1.2,0.8-1.2
									C200.9,159.1,201.2,159.7,201.2,160.4z"/>
							</g>
							<path class="st52" d="M200.2,159.3c0.1-0.1,0.3-0.1,0.4-0.1c0.1,0,0.3,0.1,0.4,0.1c0.2,0.1,0.4,0.1,0.6,0.1s0.4-0.1,0.5-0.3"
								/>
							<path class="st52" d="M190.8,159.3c-0.1-0.1-0.3-0.1-0.4-0.1c-0.1,0-0.3,0.1-0.4,0.1c-0.2,0.1-0.4,0.1-0.6,0.1
								c-0.2,0-0.4-0.1-0.5-0.3"/>
						</g>
					</g>
				</g>
				
					<linearGradient id="SVGID_29_" gradientUnits="userSpaceOnUse" x1="195.0512" y1="170.3385" x2="195.0512" y2="189.9474" gradientTransform="matrix(1 0 0 -1 0 332)">
					<stop  offset="0" style="stop-color:#2F3285"/>
					<stop  offset="0.2412" style="stop-color:#303488"/>
					<stop  offset="0.454" style="stop-color:#353993"/>
					<stop  offset="0.6561" style="stop-color:#3C41A5"/>
					<stop  offset="0.8504" style="stop-color:#464DBF"/>
					<stop  offset="0.9973" style="stop-color:#5058D7"/>
				</linearGradient>
				<path class="st53" d="M207.9,159.2c-0.5,1.8-0.8,2.5-1.3,2.5c-0.7,0-1.1-3.8-1.2-4.4c-0.1-0.2-0.1-0.4-0.2-0.6
					c-0.1-0.2-0.3-0.3-0.5-0.3c-1.1-0.5-2.6-1.6-2.8-2.7c-0.8,0.4-1.7,0.6-2.6,0.6c-0.9,0-1.8-0.4-2.3-1.1c-0.9,0.4-2,0.3-2.8-0.1
					c-0.9-0.4-1.6-1.2-1.9-2.1c-1.4,0.4-3,0.2-4.2-0.7c0.2,1.5-0.5,3.1-1.7,4.1c-0.1,0.1-0.2,0.2-0.3,0.3s-0.1,0.3,0,0.5
					c0.1,0.9,0.2,2.9-0.3,3.7c-0.4,0.8-2.3,2.2-2.9,2.6c-0.5-1.1-0.8-3-0.9-5c-0.6-9.4,6-12.8,8.7-13.6c2.4-0.7,9.7-1.8,15.3,4.5
					C208.5,149.8,208.3,155.8,207.9,159.2z"/>
				<g>
					<path class="st20" d="M181.7,159.3C181.6,159.3,181.6,159.3,181.7,159.3c-1.3,0.6-1.8,2.5-1,4.3s2.4,2.8,3.7,2.3l0,0
						c0.3-0.1,0.5-0.3,0.7-0.5c0.7-0.8,0.9-2.3,0.3-3.8c-0.6-1.4-1.8-2.4-2.9-2.4C182.2,159.1,181.9,159.2,181.7,159.3"/>
				</g>
				<g>
					<path class="st20" d="M208.1,159.3L208.1,159.3c1.3,0.6,1.8,2.5,1,4.3s-2.4,2.8-3.7,2.3l0,0c-0.3-0.1-0.5-0.3-0.7-0.5
						c-0.7-0.8-0.9-2.3-0.3-3.8c0.6-1.4,1.8-2.4,2.9-2.4C207.6,159.1,207.9,159.2,208.1,159.3"/>
				</g>
			</g>
			<g>
				<path class="st43" d="M201.9,176.4c0,0.1,0,0.3,0,0.6c0,1.5,0.1,4.6-1.8,6.6c-1,1-2.5,1.6-4.4,1.6c-0.1,0-0.2,0-0.4,0
					c-2.1-0.1-3.7-0.8-4.8-2.1c-2.1-2.6-1.7-6.2-1.6-6.4"/>
				<path class="st43" d="M189.7,176.4c0,0-1.1,7.7,5.7,8c6.8,0.2,5.8-6.7,5.8-8"/>
			</g>
		</g>
	</g>
	<g>
		<g>
			<g>
				<g>
					
						<linearGradient id="SVGID_30_" gradientUnits="userSpaceOnUse" x1="421.4242" y1="220.0869" x2="438.7055" y2="220.0869" gradientTransform="matrix(1 0 0 -1 0 332)">
						<stop  offset="1.036350e-03" style="stop-color:#DC6164"/>
						<stop  offset="4.876799e-03" style="stop-color:#DD6567"/>
						<stop  offset="2.936425e-02" style="stop-color:#E07678"/>
						<stop  offset="5.885901e-02" style="stop-color:#E28384"/>
						<stop  offset="9.844893e-02" style="stop-color:#E48A8B"/>
						<stop  offset="0.1897" style="stop-color:#E48C8D"/>
						<stop  offset="0.3331" style="stop-color:#E59596"/>
						<stop  offset="0.5732" style="stop-color:#E79E9E"/>
						<stop  offset="0.9972" style="stop-color:#E7A0A0"/>
					</linearGradient>
					<path class="st54" d="M421.4,123.7c0,0,4-12.3,11.1-27.7l6.1,1.8c0,0-6,28.1-7.6,29.7C429.4,129.2,421.4,123.7,421.4,123.7z"/>
					
						<linearGradient id="SVGID_31_" gradientUnits="userSpaceOnUse" x1="917.2581" y1="214.5191" x2="933.3535" y2="214.5191" gradientTransform="matrix(-0.9992 3.970000e-02 -3.970000e-02 -0.9992 1370.83 267.6541)">
						<stop  offset="1.036350e-03" style="stop-color:#DC6164"/>
						<stop  offset="4.876799e-03" style="stop-color:#DD6567"/>
						<stop  offset="2.936425e-02" style="stop-color:#E07678"/>
						<stop  offset="5.885901e-02" style="stop-color:#E28384"/>
						<stop  offset="9.844893e-02" style="stop-color:#E48A8B"/>
						<stop  offset="0.1897" style="stop-color:#E48C8D"/>
						<stop  offset="0.3331" style="stop-color:#E59596"/>
						<stop  offset="0.5732" style="stop-color:#E79E9E"/>
						<stop  offset="0.9972" style="stop-color:#E7A0A0"/>
					</linearGradient>
					<path class="st55" d="M445.6,88.8c0.1-0.3,0.1-0.7-0.1-0.9c-0.3-0.4-0.8-0.2-1.1,0c-1.2,0.7-3,2.5-3.9,3.6
						c1.2-1.7,2.7-4.5,3.6-6.4c0.1-0.3,0.2-0.7,0.2-1c-0.1-1-1.1-1.1-1.6-0.7c-0.4,0.2-0.6,0.6-0.9,0.9c-1,1.4-2.3,3.9-3,5.5
						c0.8-2,1.8-5.4,1.9-7.5c0-0.4,0-0.7-0.1-1.1c-0.2-0.3-0.5-0.6-0.9-0.5s-0.6,0.4-0.8,0.7c-1.2,2-1.9,5.7-2.1,8.1
						c0-1.6,0-5.2-0.3-6.8c-0.1-0.7-0.4-1.4-1-1.6s-1.2,0.3-1.4,0.8c-0.2,0.6-0.3,6.3-0.1,8.5c-0.4-0.6-1.9-3.6-2.9-3.7
						c-0.9-0.1-1.7,0.8-1.4,1.7c0.7,1.8,2.8,4.2,3,8.1c0.1,1.4,1.3,2.5,2.6,2.8c2.5,0.7,4.2-2.9,5.6-4.6
						C442.1,93.1,444.8,90.6,445.6,88.8z"/>
				</g>
				<g>
					
						<linearGradient id="SVGID_32_" gradientUnits="userSpaceOnUse" x1="1106.9296" y1="601.3094" x2="1124.2096" y2="601.3094" gradientTransform="matrix(-0.9998 -2.200000e-02 -2.200000e-02 0.9998 1500.3776 -371.446)">
						<stop  offset="1.036350e-03" style="stop-color:#DC6164"/>
						<stop  offset="4.876799e-03" style="stop-color:#DD6567"/>
						<stop  offset="2.936425e-02" style="stop-color:#E07678"/>
						<stop  offset="5.885901e-02" style="stop-color:#E28384"/>
						<stop  offset="9.844893e-02" style="stop-color:#E48A8B"/>
						<stop  offset="0.1897" style="stop-color:#E48C8D"/>
						<stop  offset="0.3331" style="stop-color:#E59596"/>
						<stop  offset="0.5732" style="stop-color:#E79E9E"/>
						<stop  offset="0.9972" style="stop-color:#E7A0A0"/>
					</linearGradient>
					<path class="st56" d="M380.7,193.6c0,0-4.3,12.2-11.7,27.5l-6.1-2c0,0,6.6-27.9,8.3-29.6C372.8,188,380.7,193.6,380.7,193.6z"
						/>
					
						<linearGradient id="SVGID_33_" gradientUnits="userSpaceOnUse" x1="216.9837" y1="567.2891" x2="233.0796" y2="567.2891" gradientTransform="matrix(0.9998 -1.770000e-02 1.770000e-02 0.9998 128.6157 -336.1906)">
						<stop  offset="1.036350e-03" style="stop-color:#DC6164"/>
						<stop  offset="4.876799e-03" style="stop-color:#DD6567"/>
						<stop  offset="2.936425e-02" style="stop-color:#E07678"/>
						<stop  offset="5.885901e-02" style="stop-color:#E28384"/>
						<stop  offset="9.844893e-02" style="stop-color:#E48A8B"/>
						<stop  offset="0.1897" style="stop-color:#E48C8D"/>
						<stop  offset="0.3331" style="stop-color:#E59596"/>
						<stop  offset="0.5732" style="stop-color:#E79E9E"/>
						<stop  offset="0.9972" style="stop-color:#E7A0A0"/>
					</linearGradient>
					<path class="st57" d="M355.7,228c-0.2,0.3-0.1,0.7,0.1,0.9c0.3,0.4,0.8,0.2,1.1,0c1.2-0.7,3.1-2.4,4-3.5
						c-1.3,1.7-2.8,4.4-3.7,6.3c-0.2,0.3-0.2,0.7-0.2,1c0.1,1,1,1.1,1.6,0.7c0.4-0.2,0.7-0.6,0.9-0.9c1-1.4,2.3-3.8,3.1-5.4
						c-0.9,2-2,5.3-2.1,7.5c0,0.4,0,0.7,0.1,1.1c0.1,0.3,0.5,0.6,0.9,0.6s0.6-0.4,0.8-0.7c1.2-2,2.1-5.7,2.3-8
						c-0.1,1.6-0.1,5.2,0.1,6.8c0.1,0.7,0.3,1.4,0.9,1.6c0.6,0.2,1.2-0.2,1.5-0.8s0.4-6.3,0.3-8.5c0.4,0.6,1.8,3.6,2.8,3.8
						c0.9,0.2,1.7-0.7,1.4-1.6c-0.6-1.8-2.7-4.2-2.8-8.2c-0.1-1.4-1.2-2.5-2.6-2.9c-2.5-0.7-4.3,2.8-5.7,4.4
						C359.3,223.8,356.7,226.3,355.7,228z"/>
				</g>
				<g>
					<path class="st9" d="M425.1,182.5c0-1.3,0-2.1,0-2.1c0.4-4.7,0.8-9.5-0.6-14c-0.4-1.3-1-2.6-1.5-3.9c-0.1-1.4,0-2.3,0.1-2.6
						c1.8-3.4,12.3-34.7,12.3-34.7l-14-5.6c-2.4,5.6-3.4,9.8-3.8,12.6c-0.4,2.7-1.4,5.3-3,7.5c-3.2,4.6-4.7,8-5.4,10.1
						c-0.5,1.5-3.9,2.5-5.5,2.5l-12.6,1.7c-3.1,0.1-6.2,0.8-9.1,2.2c-2.1,1-4.3,2.5-5.6,4.6c-3.3,5.2-6.9,23.9-8.7,30.9l14.2,6.2
						l4.1-16.7l2.1,12.6c0.3,1.9-2.2,13.8-2.7,18c0,0,12.6,6.4,25.6,5.6c11-0.6,20-5.2,20-5.2l-5.1-22
						C426.1,190.2,425.7,186.9,425.1,182.5z"/>
					<path class="st58" d="M386.1,185.3c0.1,0,0.4,0,0.8-0.1l-0.6-3.7h-0.1l-0.9,3.6L386.1,185.3z"/>
					<path class="st59" d="M388.3,194c0,0.1,0,0.2,0,0.4c1.8-0.1,5.3-0.2,9.4-0.3c9-0.3,21.2-0.7,29.1-1.1l-0.1-0.3
						c-7.9,0.4-20,0.8-29,1.1C393.5,193.8,390.1,193.9,388.3,194z"/>
					<path class="st59" d="M387.6,189.9l0.1,0.3c1.7-0.1,5.3-0.2,9.5-0.3c8.9-0.3,20.9-0.7,28.8-1.1c0-0.1,0-0.2,0-0.3
						c-7.9,0.4-19.8,0.8-28.7,1.1C392.8,189.7,389.3,189.8,387.6,189.9z"/>
					<polygon class="st59" points="386.2,181.2 386.1,181.6 386.3,181.6 					"/>
					<path class="st59" d="M386.3,181.2l-15.6-1.1c0,0.1-0.1,0.2-0.1,0.3l15.5,1.1L386.3,181.2v0.3l0,0c0.5-0.1,5.8-0.3,12.4-0.6
						c8.2-0.4,19.2-0.8,26.5-1.2c0-0.1,0-0.2,0-0.4c-7.3,0.4-18.3,0.9-26.5,1.2C391.8,180.9,386.8,181.2,386.3,181.2z"/>
					<path class="st59" d="M374.8,164.9c0,0.1-0.1,0.2-0.1,0.4c0.4,0,0.7,0,1.1,0c15.6-0.6,33.3-1.4,47.6-2c0-0.1-0.1-0.2-0.1-0.3
						c-14.2,0.6-31.8,1.3-47.4,2C375.5,164.9,375.2,164.9,374.8,164.9z"/>
					<path class="st59" d="M423.5,159.3c-14.1,0.6-31.6,1.3-47.1,1.9c-0.1,0.1-0.1,0.2-0.2,0.4c15.5-0.6,33-1.3,47.2-2
						C423.4,159.6,423.5,159.4,423.5,159.3z"/>
					<path class="st59" d="M425.2,155.1c-13,0.6-29.3,1.2-44.3,1.8c-0.2,0.1-0.4,0.2-0.6,0.4c15.1-0.6,31.5-1.3,44.7-1.9
						C425.1,155.4,425.1,155.2,425.2,155.1z"/>
					<path class="st59" d="M373.5,169.2c0,0.1-0.1,0.2-0.1,0.4c0.6,0,1.3-0.1,1.9-0.1c16.4-0.7,35-1.4,49.6-2.1
						c0-0.1-0.1-0.2-0.1-0.3c-14.6,0.6-33.1,1.4-49.5,2C374.7,169.1,374.1,169.2,373.5,169.2z"/>
					<path class="st59" d="M372.3,173.4c0,0.1-0.1,0.2-0.1,0.4c1.1,0,2.3-0.1,3.5-0.1c16.5-0.7,35.2-1.4,49.8-2.1c0-0.1,0-0.2,0-0.3
						c-14.6,0.6-33.3,1.4-49.8,2.1C374.6,173.3,373.4,173.3,372.3,173.4z"/>
					<path class="st59" d="M371.3,177.3c0,0.1-0.1,0.2-0.1,0.4c1.5-0.1,2.9-0.1,4.4-0.2c16.5-0.7,35.2-1.4,49.8-2.1
						c0-0.1,0-0.2,0-0.4c-14.6,0.6-33.4,1.4-49.8,2.1C374.2,177.2,372.8,177.3,371.3,177.3z"/>
					<path class="st59" d="M368.7,188.6l14.1,6.4l0.1-0.3l-14.1-6.4C368.8,188.4,368.7,188.5,368.7,188.6z"/>
					<path class="st59" d="M369.4,185.8l14.7,4.1l0.1-0.3l-14.7-4.1C369.4,185.6,369.4,185.7,369.4,185.8z"/>
					<path class="st59" d="M370,183c0,0.1-0.1,0.2-0.1,0.3l15.2,2.1l0.1-0.3L370,183z"/>
					<path class="st59" d="M386.9,185.3l0.1,0.3c1.6-0.1,5.3-0.2,9.8-0.3c8.9-0.3,20.8-0.7,28.7-1.1c0-0.1,0-0.2,0-0.3
						c-7.9,0.4-19.7,0.8-28.6,1.1C392.1,185.1,388.5,185.2,386.9,185.3z"/>
					<path class="st59" d="M426.1,152.5l-16.9-2.6c0,0.1-0.1,0.2-0.1,0.3l16.9,2.6C426,152.7,426.1,152.6,426.1,152.5z"/>
					<path class="st59" d="M427.5,148.5l-16.6-2.6c-0.1,0.1-0.1,0.2-0.2,0.3l16.7,2.6C427.5,148.7,427.5,148.6,427.5,148.5z"/>
					<path class="st59" d="M429,144.4l-14.7-4c-0.1,0.1-0.1,0.2-0.2,0.3l14.8,4.1C428.9,144.6,429,144.5,429,144.4z"/>
					<path class="st59" d="M430.6,139.6l-13.8-3.8c0,0.1-0.1,0.2-0.1,0.3l13.8,3.8C430.5,139.8,430.6,139.7,430.6,139.6z"/>
					<path class="st59" d="M432,135.5l-14-5c0,0.1,0,0.2-0.1,0.3l14,5C431.9,135.7,432,135.6,432,135.5z"/>
					<path class="st59" d="M433.5,131.2l-14.2-5.6c0,0.1-0.1,0.2-0.1,0.3l14.2,5.6C433.4,131.5,433.4,131.3,433.5,131.2z"/>
					<path class="st59" d="M434.6,127.8l-14.2-5.5c0,0.1-0.1,0.2-0.1,0.3l14.3,5.5C434.5,128.1,434.6,128,434.6,127.8z"/>
					<path class="st59" d="M387.9,198.4c0,0.1,0,0.2-0.1,0.4c1.5-0.1,5.3-0.2,9.9-0.3c9.4-0.3,22.3-0.7,30.1-1.2l-0.1-0.3
						c-7.8,0.5-20.6,0.9-30,1.2C393.1,198.3,389.4,198.4,387.9,198.4z"/>
				</g>
				<g>
					
						<linearGradient id="SVGID_34_" gradientUnits="userSpaceOnUse" x1="386.0793" y1="210.5256" x2="384.854" y2="251.5341" gradientTransform="matrix(0.9977 -6.800000e-02 -6.800000e-02 -0.9977 31.6943 386.4892)">
						<stop  offset="0" style="stop-color:#191A43"/>
						<stop  offset="3.427930e-03" style="stop-color:#191A43"/>
						<stop  offset="0.2861" style="stop-color:#1C1D48"/>
						<stop  offset="0.6382" style="stop-color:#232458"/>
						<stop  offset="1" style="stop-color:#2E2F6F"/>
					</linearGradient>
					<path class="st60" d="M422.2,148.3l-2.2,0.1l-0.6-2.7l-0.1,2.8l-5.2,0.4l-0.7-4.1l-0.1,4.1l-25.4,1.7l-0.9-4.5v4.5l-4.4,0.3
						c-0.7-2.4-0.7-4.7-0.4-6.6c0.4-2.5,1.5-4.8,3-6.8c2.6-3.5,2.4-6.6,2.4-6.6c0.1-6.6,4.6-9.5,7.9-10.8c2.2-0.9,7.4-1.2,9.7-0.7
						c3.4,0.8,8.2,3.1,9.3,9.6c0,0,0.2,3.2,3.3,6.3c1.8,1.8,3.2,3.9,3.9,6.3C422.3,143.5,422.6,145.8,422.2,148.3z"/>
					<g>
						
							<linearGradient id="SVGID_35_" gradientUnits="userSpaceOnUse" x1="403.2347" y1="172.4763" x2="402.1882" y2="182.9793" gradientTransform="matrix(1 0 0 -1 0 332)">
							<stop  offset="1.036350e-03" style="stop-color:#DC6164"/>
							<stop  offset="3.232381e-03" style="stop-color:#DD6567"/>
							<stop  offset="1.723470e-02" style="stop-color:#E07678"/>
							<stop  offset="3.410028e-02" style="stop-color:#E28384"/>
							<stop  offset="5.673844e-02" style="stop-color:#E48A8B"/>
							<stop  offset="0.1089" style="stop-color:#E48C8D"/>
							<stop  offset="0.1673" style="stop-color:#E69697"/>
							<stop  offset="0.2573" style="stop-color:#E79E9E"/>
							<stop  offset="0.4482" style="stop-color:#E7A0A0"/>
							<stop  offset="0.5257" style="stop-color:#E7A0A0"/>
							<stop  offset="0.9964" style="stop-color:#E7A0A0"/>
						</linearGradient>
						<path class="st61" d="M408.1,154.6c-0.3,3-3.1,5.2-6.1,4.9c-2.5-0.3-4.4-2.2-4.9-4.5c0,0-0.1-2.1-0.1-3.7c0-0.7,0-1.3,0-1.6
							c0-0.1,0-0.1,0-0.1l10.8-1c0,0,0,0.3,0.1,0.7c0,0.5,0.1,1.2,0.1,1.9C408.1,152.7,408.2,154.3,408.1,154.6z"/>
						
							<linearGradient id="SVGID_36_" gradientUnits="userSpaceOnUse" x1="298.6393" y1="200.2185" x2="297.5704" y2="235.9898" gradientTransform="matrix(0.8745 -3.630000e-02 -4.150000e-02 -0.9991 149.0745 362.33)">
							<stop  offset="1.036350e-03" style="stop-color:#DC6164"/>
							<stop  offset="3.232381e-03" style="stop-color:#DD6567"/>
							<stop  offset="1.723470e-02" style="stop-color:#E07678"/>
							<stop  offset="3.410028e-02" style="stop-color:#E28384"/>
							<stop  offset="5.673844e-02" style="stop-color:#E48A8B"/>
							<stop  offset="0.1089" style="stop-color:#E48C8D"/>
							<stop  offset="0.1673" style="stop-color:#E69697"/>
							<stop  offset="0.2573" style="stop-color:#E79E9E"/>
							<stop  offset="0.4482" style="stop-color:#E7A0A0"/>
							<stop  offset="0.5257" style="stop-color:#E7A0A0"/>
							<stop  offset="0.9964" style="stop-color:#E7A0A0"/>
						</linearGradient>
						<path class="st62" d="M411.8,138.2c0.4,8.6-4.1,12.8-9.2,13.2c-3.4,0.2-11.9-3.7-12.3-12.3c-0.6-14.8,4.4-14.4,10.3-14.7
							C406.5,124.2,411.1,122.6,411.8,138.2z"/>
						<g>
							<g>
								<g>
									<path d="M397.4,137.2c0,0.7-0.3,1.3-0.8,1.3s-0.9-0.5-0.9-1.2s0.3-1.3,0.8-1.3C396.9,136,397.3,136.6,397.4,137.2z"/>
									<path d="M407.2,136.6c0,0.7-0.3,1.3-0.8,1.3s-0.9-0.5-0.9-1.2s0.3-1.3,0.8-1.3C406.7,135.4,407.1,136,407.2,136.6z"/>
								</g>
								<path class="st52" d="M406.1,135.6c0.1-0.1,0.2-0.1,0.4-0.1c0.1,0,0.3,0.1,0.4,0.1c0.2,0.1,0.4,0.1,0.6,0.1s0.4-0.1,0.5-0.3
									"/>
								<path class="st52" d="M396.6,136.3c-0.1-0.1-0.3-0.1-0.4-0.1s-0.2,0.1-0.4,0.2c-0.2,0.1-0.4,0.2-0.6,0.2s-0.4-0.1-0.6-0.3"
									/>
							</g>
							
								<linearGradient id="SVGID_37_" gradientUnits="userSpaceOnUse" x1="500.9955" y1="159.8775" x2="504.3788" y2="159.8775" gradientTransform="matrix(1.2355 5.310000e-02 -0.2134 -1.0718 -180.7243 278.1995)">
								<stop  offset="0" style="stop-color:#191A43"/>
								<stop  offset="3.427930e-03" style="stop-color:#191A43"/>
								<stop  offset="0.2535" style="stop-color:#1C1D48"/>
								<stop  offset="0.5651" style="stop-color:#232458"/>
								<stop  offset="0.8851" style="stop-color:#2E2F6F"/>
							</linearGradient>
							<path class="st63" d="M406.9,133.1c0.5,0.2,1,0.4,1.3,0.7c0.2,0.2,0.3,0.4,0.2,0.6c-0.1,0.2-0.5,0.1-0.8,0
								c-0.7-0.2-1.4-0.4-2-0.4c-0.4,0-0.8,0-1.2-0.3c-0.5-0.4-0.3-1,0.2-1.1C405.2,132.5,406.2,132.8,406.9,133.1z"/>
							
								<linearGradient id="SVGID_38_" gradientUnits="userSpaceOnUse" x1="1805.8723" y1="298.4471" x2="1809.255" y2="298.4471" gradientTransform="matrix(-1.2243 0.1738 0.1075 -1.0875 2577.3323 144.2431)">
								<stop  offset="0" style="stop-color:#191A43"/>
								<stop  offset="3.427930e-03" style="stop-color:#191A43"/>
								<stop  offset="0.2535" style="stop-color:#1C1D48"/>
								<stop  offset="0.5651" style="stop-color:#232458"/>
								<stop  offset="0.8851" style="stop-color:#2E2F6F"/>
							</linearGradient>
							<path class="st64" d="M395.7,133.4c-0.5,0.2-0.9,0.5-1.2,0.9c-0.2,0.2-0.3,0.4-0.2,0.6c0.2,0.2,0.5,0,0.8-0.1
								c0.6-0.3,1.3-0.5,2-0.6c0.4-0.1,0.8-0.1,1.1-0.4c0.5-0.4,0.3-1-0.3-1C397.4,132.7,396.3,133.1,395.7,133.4z"/>
							<g>
								<path class="st3" d="M404,142.8c0-0.5-4.5-0.3-4.5,0.4c0,0.4,0.2,0.8,0.4,1.1c1.3-0.4,2.6-0.7,4-0.7
									C404,143.3,404,143.1,404,142.8z"/>
								<path class="st3" d="M400,144.3c0.4,0.6,1.2,1,2,0.9c0.9-0.1,1.7-0.7,2-1.6C402.6,143.6,401.2,143.8,400,144.3z"/>
							</g>
							<path class="st51" d="M401.4,136.8c-0.2,0.7-0.5,1.4-0.7,2c-0.1,0.4-0.3,0.8-0.1,1.2c0.1,0.4,0.5,0.6,0.9,0.6
								s0.8-0.3,0.9-0.6"/>
						</g>
					</g>
					
						<linearGradient id="SVGID_39_" gradientUnits="userSpaceOnUse" x1="385.764" y1="222.3128" x2="385.0095" y2="247.5661" gradientTransform="matrix(0.9977 -6.800000e-02 -6.800000e-02 -0.9977 31.6943 386.4892)">
						<stop  offset="0" style="stop-color:#191A43"/>
						<stop  offset="3.427930e-03" style="stop-color:#191A43"/>
						<stop  offset="0.2535" style="stop-color:#1C1D48"/>
						<stop  offset="0.5651" style="stop-color:#232458"/>
						<stop  offset="0.8851" style="stop-color:#2E2F6F"/>
					</linearGradient>
					<path class="st65" d="M391.3,138.2c0,0,2.2-4.1,1.6-8.9c0,0,2.5,4.3,18.1,2.5c0,0-0.4,4.5,0.3,5.5c0.8,1,1.8-3,1.8-3l1.3-6.2
						c-0.5-3.4-4.3-6.9-7.5-8.1c0,0-7.5-1.1-10.9,0.1c-3.2,1.2-7.4,5.4-7.9,8.7l-0.9,6.7l2.8,2.2L391.3,138.2z"/>
					<g>
						<g>
							<path class="st20" d="M387.5,136.1C387.5,136.2,387.5,136.2,387.5,136.1c-1.3,0.7-1.6,2.6-0.7,4.3s2.6,2.6,3.8,2.1l0,0
								c0.3-0.1,0.5-0.3,0.6-0.5c0.7-0.9,0.7-2.4,0-3.8c-0.7-1.4-2-2.3-3.1-2.2C388,136,387.7,136,387.5,136.1"/>
						</g>
						<g>
							<path class="st20" d="M413.9,134.3C413.9,134.4,413.9,134.4,413.9,134.3c1.4,0.5,1.9,2.3,1.3,4.2c-0.6,1.8-2.2,3-3.5,2.6l0,0
								c-0.3-0.1-0.5-0.2-0.7-0.4c-0.8-0.8-1.1-2.3-0.6-3.7c0.5-1.5,1.6-2.5,2.7-2.6C413.4,134.2,413.6,134.3,413.9,134.3"/>
						</g>
					</g>
					<g>
						<path class="st59" d="M407.7,159c-2.4,2.3-5.3,2-5.3,2c-2.1-0.1-4.1-1.4-5.1-3c-1.7-2.7-1.2-4.1-1.3-4.8l1.1-0.2
							c0,1.6,0.1,1.9,0.1,1.9c0.4,2.4,2.4,4.3,4.9,4.5c3,0.3,5.8-1.9,6.1-4.9c0-0.3-0.1-2-0.2-3.5l1.2-1l0.1,0.4
							C409.3,151,410.1,156.6,407.7,159z"/>
					</g>
				</g>
			</g>
			<g>
				<g>
					<g>
						<g>
							<g>
								
									<linearGradient id="SVGID_40_" gradientUnits="userSpaceOnUse" x1="1598.6083" y1="-566.3191" x2="1624.8153" y2="-566.3191" gradientTransform="matrix(0.1508 0.9886 0.9886 -0.1508 679.312 -1387.8866)">
									<stop  offset="0.6283" style="stop-color:#E7A0A0"/>
									<stop  offset="0.6803" style="stop-color:#E7A0A0"/>
									<stop  offset="0.9964" style="stop-color:#E7A0A0"/>
								</linearGradient>
								<path class="st66" d="M352.1,302.6c0,0-0.8-23.4,1.2-23.6l4.3-0.5l0.8-0.1l13.9-1.6l2.1,12.2l-9.8,1.6
									c-0.9,0.2-1.7,0.8-2.1,1.7l-0.7,2l-0.6,1.7l-0.9,2.9l0,0l-1.6,5.3C357.7,305.9,352.2,303.7,352.1,302.6z"/>
							</g>
							<path class="st22" d="M357.7,305.5c-1.4,1.5-3.9,1.7-5.4,0.2c-0.1-0.1-0.1-0.1-0.2-0.2c-0.8-1-1.2-2.2-1.2-3.5
								c-0.1-2.2-0.2-5.6-0.1-6.2l0.5-9.3c0.1-2,1.4-7.6,3.4-7.8l5.5-0.6c-0.3,2.3-7.1,25-0.1,21l-1.6,5.3
								C358.4,304.7,358.1,305.1,357.7,305.5z"/>
						</g>
						<polygon class="st22" points="354.7,278.6 347.9,280 349.2,286.7 351.3,286.4 						"/>
					</g>
					<g>
						<g>
							<g>
								
									<linearGradient id="SVGID_41_" gradientUnits="userSpaceOnUse" x1="1603.7954" y1="-533.9179" x2="1630.0024" y2="-533.9179" gradientTransform="matrix(0.1508 0.9886 0.9886 -0.1508 679.312 -1387.8866)">
									<stop  offset="0.6283" style="stop-color:#E7A0A0"/>
									<stop  offset="0.6803" style="stop-color:#E7A0A0"/>
									<stop  offset="0.9964" style="stop-color:#E7A0A0"/>
								</linearGradient>
								<path class="st67" d="M386.5,302.6c0,0-0.8-23.4,1.2-23.6l4.3-0.5l0.8-0.1l10.7-1.3l2.1,12.2l-6.6,1.3
									c-0.9,0.2-1.7,0.8-2.1,1.7l-0.7,2l-0.6,1.7l-0.9,2.9l0,0l-1.6,5.3C392.1,305.9,386.6,303.7,386.5,302.6z"/>
							</g>
							<path class="st22" d="M392.2,305.5c-1.4,1.5-3.9,1.7-5.4,0.2c-0.1-0.1-0.1-0.1-0.2-0.2c-0.8-1-1.2-2.2-1.2-3.5
								c-0.1-2.2-0.2-5.6-0.1-6.2l0.5-9.3c0.1-2,1.4-7.6,3.4-7.8l5.5-0.6c-0.3,2.3-7.1,25-0.1,21l-1.6,5.3
								C392.8,304.7,392.5,305.1,392.2,305.5z"/>
						</g>
						<polygon class="st22" points="389.1,278.6 382.3,280 383.6,286.7 385.7,286.4 						"/>
					</g>
				</g>
				<path class="st68" d="M405.9,201.3c0,0,2.4,21.3,5.4,27.8c3,6.6,15.1,40.4,15.1,40.4l-26,6.9l4.1,16.8c0,0,23.3-2.7,34.2-3.3
					c0,0,10.2-1.4,11.2-11.4c0.9-10.1-21.4-78.2-21.4-78.2L405.9,201.3z"/>
				
					<linearGradient id="SVGID_42_" gradientUnits="userSpaceOnUse" x1="441.8891" y1="126.4349" x2="406.2181" y2="38.1463" gradientTransform="matrix(1 0 0 -1 0 332)">
					<stop  offset="1.749700e-04" style="stop-color:#1A1B50;stop-opacity:0"/>
					<stop  offset="0.1384" style="stop-color:#1C1E56;stop-opacity:0.1388"/>
					<stop  offset="0.3253" style="stop-color:#232667;stop-opacity:0.3265"/>
					<stop  offset="0.54" style="stop-color:#2F3284;stop-opacity:0.5421"/>
					<stop  offset="0.7734" style="stop-color:#3E44AB;stop-opacity:0.7765"/>
					<stop  offset="0.9959" style="stop-color:#5058D7"/>
				</linearGradient>
				<path class="st69" d="M405.4,201.4c0,0,2.5,22.2,5.6,28.8c3,6.6,15.5,39.3,15.5,39.3l-25.4,6.9l3.5,16.8c0,0,22.7-2.6,34.2-3.3
					c0,0,10.2-1.4,11.2-11.4c0.9-10.1-20.4-77.9-20.4-77.9L405.4,201.4z"/>
				<path class="st68" d="M387.3,201.4c0,0-5.9,16.1-3.9,29.5c1.1,7.2,12.6,38.3,12.6,38.3l-28.4,6.4l2.5,16.2
					c0,0,23.9-1.6,34.8-0.5c0,0,10.3,0.3,12.8-9.5s-8.7-80.5-8.7-80.5L387.3,201.4z"/>
				<g>
					<path class="st70" d="M409.4,204.2c0.3-0.6,1.1-1,1.7-0.7s0.8,1.2,0.3,1.6c-0.3,0.2-0.7,0.2-1,0"/>
					<path class="st27" d="M420.5,200.9c0,0,1.9,11.5,13.5,16.1"/>
					<path class="st27" d="M393.5,201.4c0,0-0.9,18.6-10.2,18.1"/>
					<line class="st27" x1="411" y1="209.6" x2="413.9" y2="235.7"/>
				</g>
			</g>
		</g>
	</g>
	<g>
		<g>
			<path class="st71" d="M453.8,155.8c-0.5-0.1-2.4-0.6-3.8-0.8c-0.2-1.7-0.8-5.1-1-6.7c0-0.2-0.2-0.2-0.3,0
				c-0.1,0.9-0.9,4.8-1.2,6.7c-1.3,0.2-3,0.5-3.6,0.7c-0.2,0-0.2,0.3,0,0.4c1,0.2,2.5,0.5,3.6,0.7c0.2,1.9,0.8,5.4,1.1,6.4
				c0.1,0.3,0.4,0.3,0.5,0c0.4-1.9,0.8-4.9,1-6.4c1.2-0.2,2.9-0.5,3.8-0.7C453.9,155.9,453.9,155.8,453.8,155.8z"/>
			<path class="st71" d="M290.3,48.2c-0.3-0.1-1.6-0.4-2.5-0.5c-0.1-1.1-0.5-3.4-0.7-4.4c0-0.1-0.2-0.1-0.2,0
				c-0.1,0.6-0.6,3.1-0.8,4.4c-0.8,0.1-2,0.3-2.4,0.4c-0.1,0-0.1,0.2,0,0.2c0.7,0.1,1.6,0.3,2.4,0.5c0.1,1.2,0.5,3.6,0.7,4.2
				c0,0.2,0.3,0.2,0.3,0c0.2-1.2,0.5-3.2,0.7-4.2c0.8-0.1,1.9-0.4,2.5-0.5C290.3,48.3,290.3,48.2,290.3,48.2z"/>
			<path class="st71" d="M33,149.7c-0.3-0.1-1.6-0.4-2.5-0.5c-0.1-1.1-0.5-3.4-0.7-4.4c0-0.1-0.2-0.1-0.2,0
				c-0.1,0.6-0.6,3.1-0.8,4.4c-0.8,0.1-2,0.3-2.4,0.4c-0.1,0-0.1,0.2,0,0.2c0.7,0.1,1.6,0.3,2.4,0.5c0.1,1.2,0.5,3.6,0.7,4.2
				c0,0.2,0.3,0.2,0.3,0c0.2-1.2,0.5-3.2,0.7-4.2C31.3,150.2,32.4,149.9,33,149.7C33,149.8,33,149.7,33,149.7z"/>
			<path class="st22" d="M154.5,163.3c-0.3-0.1-1.6-0.4-2.5-0.5c-0.1-1.1-0.5-3.4-0.7-4.4c0-0.1-0.2-0.1-0.2,0
				c-0.1,0.6-0.6,3.1-0.8,4.4c-0.8,0.1-2,0.3-2.4,0.4c-0.1,0-0.1,0.2,0,0.2c0.7,0.1,1.6,0.3,2.4,0.5c0.1,1.2,0.5,3.6,0.7,4.2
				c0,0.2,0.3,0.2,0.3,0c0.2-1.2,0.5-3.2,0.7-4.2C152.8,163.8,153.9,163.5,154.5,163.3C154.6,163.4,154.6,163.3,154.5,163.3z"/>
			<path class="st22" d="M455.4,117c-0.3-0.1-1.6-0.4-2.5-0.5c-0.1-1.1-0.5-3.4-0.7-4.4c0-0.1-0.2-0.1-0.2,0
				c-0.1,0.6-0.6,3.1-0.8,4.4c-0.8,0.1-2,0.3-2.4,0.4c-0.1,0-0.1,0.2,0,0.2c0.7,0.1,1.6,0.3,2.4,0.5c0.1,1.2,0.5,3.6,0.7,4.2
				c0,0.2,0.3,0.2,0.3,0c0.2-1.2,0.5-3.2,0.7-4.2C453.7,117.5,454.8,117.2,455.4,117C455.4,117.2,455.4,117.1,455.4,117z"/>
			<path class="st22" d="M249.9,91.4c-0.3-0.1-1.6-0.4-2.5-0.5c-0.1-1.1-0.5-3.4-0.7-4.4c0-0.1-0.2-0.1-0.2,0
				c-0.1,0.6-0.6,3.1-0.8,4.4c-0.8,0.1-2,0.3-2.4,0.4c-0.1,0-0.1,0.2,0,0.2c0.7,0.1,1.6,0.3,2.4,0.5c0.1,1.2,0.5,3.6,0.7,4.2
				c0,0.2,0.3,0.2,0.3,0c0.2-1.2,0.5-3.2,0.7-4.2C248.2,91.9,249.3,91.6,249.9,91.4L249.9,91.4z"/>
			<path class="st71" d="M80.6,51.4c-0.5-0.1-2.4-0.6-3.8-0.8c-0.2-1.7-0.8-5.1-1-6.7c0-0.2-0.2-0.2-0.3,0c-0.1,0.9-0.9,4.8-1.2,6.7
				c-1.3,0.2-3,0.5-3.6,0.7c-0.2,0-0.2,0.3,0,0.4c1,0.2,2.5,0.5,3.6,0.7c0.2,1.9,0.8,5.4,1.1,6.4c0.1,0.3,0.4,0.3,0.5,0
				c0.4-1.9,0.8-4.9,1-6.4c1.2-0.2,2.9-0.5,3.8-0.7C80.7,51.5,80.7,51.4,80.6,51.4z"/>
			<g>
				<path class="st72" d="M400.1,97.1C400.2,97.1,400.3,97.2,400.1,97.1c-0.5,0.9-2,3-2.2,3.2s-1.9,1.5-2.9,2.1
					c-0.1,0.1-0.3,0-0.2-0.2c0.3-0.5,1.8-2.6,2.2-3C397.6,98.9,399.7,97.4,400.1,97.1z"/>
				<path class="st72" d="M400.3,102.5C400.4,102.6,400.3,102.7,400.3,102.5c-0.9-0.5-2.9-1.8-3.2-2.1c-0.3-0.3-1.5-2-2.1-3
					c-0.1-0.1,0-0.3,0.2-0.2c0.5,0.3,2.6,1.8,3,2.2C398.6,99.9,400,102.1,400.3,102.5z"/>
			</g>
			<g>
				<path class="st72" d="M261.9,138.8C261.9,138.8,262,138.9,261.9,138.8c-0.5,0.9-2,3-2.2,3.2s-1.9,1.5-2.9,2.1
					c-0.1,0.1-0.3,0-0.2-0.2c0.3-0.5,1.8-2.6,2.2-3C259.3,140.6,261.4,139.2,261.9,138.8z"/>
				<path class="st72" d="M262,144.3C262.1,144.3,262,144.4,262,144.3c-0.9-0.5-2.9-1.8-3.2-2.1c-0.3-0.3-1.5-2-2.1-3
					c-0.1-0.1,0-0.3,0.2-0.2c0.5,0.3,2.6,1.8,3,2.2C260.4,141.6,261.7,143.8,262,144.3z"/>
			</g>
			<g>
				<path class="st72" d="M121,44.7C121,44.7,121.1,44.7,121,44.7c-0.3,0.6-1.3,1.9-1.4,2s-1.2,0.9-1.9,1.4c-0.1,0.1-0.2,0-0.1-0.1
					c0.2-0.3,1.1-1.6,1.4-1.9S120.7,44.9,121,44.7z"/>
				<path class="st72" d="M121.1,48.2C121.1,48.2,121.1,48.3,121.1,48.2c-0.6-0.3-1.8-1.1-2-1.3s-0.9-1.3-1.4-1.9
					c-0.1-0.1,0-0.2,0.1-0.1c0.3,0.2,1.6,1.1,1.9,1.4C120,46.5,120.9,47.9,121.1,48.2z"/>
			</g>
			<g>
				<path class="st72" d="M42.6,119.7C42.6,119.7,42.7,119.8,42.6,119.7c-0.3,0.6-1.3,1.9-1.4,2c-0.1,0.1-1.2,0.9-1.9,1.4
					c-0.1,0.1-0.2,0-0.1-0.1c0.2-0.3,1.1-1.6,1.4-1.9C40.9,120.8,42.3,119.9,42.6,119.7z"/>
				<path class="st72" d="M42.7,123.2C42.7,123.2,42.7,123.3,42.7,123.2c-0.6-0.3-1.8-1.1-2-1.3c-0.2-0.2-0.9-1.3-1.4-1.9
					c-0.1-0.1,0-0.2,0.1-0.1c0.3,0.2,1.6,1.1,1.9,1.4C41.6,121.5,42.5,122.9,42.7,123.2z"/>
			</g>
			<g>
				<path class="st72" d="M288.7,134.7C288.7,134.6,288.8,134.7,288.7,134.7c-0.3,0.6-1.3,1.9-1.4,2s-1.2,0.9-1.9,1.4
					c-0.1,0.1-0.2,0-0.1-0.1c0.2-0.3,1.1-1.6,1.4-1.9S288.4,134.9,288.7,134.7z"/>
				<path class="st72" d="M288.8,138.1C288.8,138.2,288.8,138.2,288.8,138.1c-0.6-0.3-1.8-1.1-2-1.3s-0.9-1.3-1.4-1.9
					c-0.1-0.1,0-0.2,0.1-0.1c0.3,0.2,1.6,1.1,1.9,1.4C287.7,136.4,288.6,137.8,288.8,138.1z"/>
			</g>
			<g>
				<path class="st22" d="M373.5,57.9C373.5,57.9,373.6,57.9,373.5,57.9c-0.3,0.6-1.3,1.9-1.4,2s-1.2,0.9-1.9,1.4
					c-0.1,0.1-0.2,0-0.1-0.1c0.2-0.3,1.1-1.6,1.4-1.9S373.2,58.1,373.5,57.9z"/>
				<path class="st22" d="M373.6,61.3C373.6,61.4,373.6,61.4,373.6,61.3c-0.6-0.3-1.8-1.1-2-1.3s-0.9-1.3-1.4-1.9
					c-0.1-0.1,0-0.2,0.1-0.1c0.3,0.2,1.6,1.1,1.9,1.4C372.5,59.7,373.4,61.1,373.6,61.3z"/>
			</g>
			<g>
				<path class="st22" d="M235.7,194.5C235.8,194.5,235.8,194.5,235.7,194.5c-0.3,0.6-1.3,1.9-1.4,2c-0.1,0.1-1.2,0.9-1.9,1.4
					c-0.1,0.1-0.2,0-0.1-0.1c0.2-0.3,1.1-1.6,1.4-1.9C234.1,195.6,235.4,194.7,235.7,194.5z"/>
				<path class="st22" d="M235.8,197.9C235.8,198,235.8,198,235.8,197.9c-0.6-0.3-1.8-1.1-2-1.3s-0.9-1.3-1.4-1.9
					c-0.1-0.1,0-0.2,0.1-0.1c0.3,0.2,1.6,1.1,1.9,1.4C234.8,196.3,235.6,197.7,235.8,197.9z"/>
			</g>
			<g>
				<path class="st72" d="M464,136.7C464,136.7,464.1,136.7,464,136.7c-0.3,0.6-1.3,1.9-1.4,2s-1.2,0.9-1.9,1.4
					c-0.1,0.1-0.2,0-0.1-0.1c0.2-0.3,1.1-1.6,1.4-1.9S463.7,136.9,464,136.7z"/>
				<path class="st72" d="M464.1,140.2C464.1,140.2,464.1,140.3,464.1,140.2c-0.6-0.3-1.8-1.1-2-1.3s-0.9-1.3-1.4-1.9
					c-0.1-0.1,0-0.2,0.1-0.1c0.3,0.2,1.6,1.1,1.9,1.4C463,138.5,463.9,139.9,464.1,140.2z"/>
			</g>
			<g>
				<path class="st72" d="M203.7,105.3C203.7,105.2,203.8,105.3,203.7,105.3c-0.5,0.9-2,3-2.2,3.2s-1.9,1.5-2.9,2.1
					c-0.1,0.1-0.3,0-0.2-0.2c0.3-0.5,1.8-2.6,2.2-3C201.1,107,203.2,105.6,203.7,105.3z"/>
				<path class="st72" d="M203.8,110.7C203.9,110.8,203.8,110.9,203.8,110.7c-0.9-0.5-2.9-1.8-3.2-2.1c-0.3-0.3-1.5-2-2.1-3
					c-0.1-0.1,0-0.3,0.2-0.2c0.5,0.3,2.6,1.8,3,2.2C202.1,108,203.5,110.3,203.8,110.7z"/>
			</g>
			<path class="st71" d="M370.7,35c0-1.7,1.3-3,3-3s3,1.3,3,3s-1.3,3-3,3C372.1,38,370.7,36.7,370.7,35z"/>
			<path class="st71" d="M129.3,64.8c0-1.2,1-2.2,2.2-2.2s2.2,1,2.2,2.2c0,1.2-1,2.2-2.2,2.2S129.3,66,129.3,64.8z"/>
			<path class="st71" d="M155.3,189.1c0-1.7,1.3-3,3-3s3,1.3,3,3s-1.3,3-3,3C156.7,192.1,155.3,190.8,155.3,189.1z"/>
			<path class="st73" d="M56.3,127.1c0-1.7,1.3-3,3-3s3,1.3,3,3c0,1.7-1.3,3-3,3S56.3,128.8,56.3,127.1z"/>
			<path class="st73" d="M175.3,89.6c0-1.7,1.3-3,3-3s3,1.3,3,3s-1.3,3-3,3S175.3,91.3,175.3,89.6z"/>
			<path class="st73" d="M265.8,121.8c0-1.7,1.3-3,3-3s3,1.3,3,3s-1.3,3-3,3S265.8,123.5,265.8,121.8z"/>
			<path class="st73" d="M414.7,63.3c0-1.7,1.3-3,3-3s3,1.3,3,3s-1.3,3-3,3S414.7,64.9,414.7,63.3z"/>
			<path class="st74" d="M369.7,122.5c0-1.7,1.3-3,3-3s3,1.3,3,3s-1.3,3-3,3S369.7,124.2,369.7,122.5z"/>
		</g>
		<g class="st75">
			<g>
				<path class="st76" d="M3.4,39c7.9-8.3,18.4-14.1,29.7-16.3"/>
				<path class="st76" d="M3.7,32.6c6-6.3,13.9-10.6,22.4-12.3"/>
			</g>
			<g>
				<path class="st76" d="M428.1,69.9c11.5,0.4,22.8,4.3,32,11.2"/>
				<path class="st76" d="M433.1,65.9c8.7,0.3,17.2,3.3,24.1,8.5"/>
			</g>
			<g>
				<path class="st76" d="M162.3,322.8c6-10.5,16.2-18.5,27.8-21.7"/>
				<path class="st76" d="M162.2,314.5c4.9-7.3,12.3-13,20.7-15.8"/>
			</g>
			<g>
				<path class="st76" d="M46.8,262.1c11.8,2.6,22.5,10,29,20.1"/>
				<path class="st76" d="M54.6,259.5c8.5,2.5,16.1,7.9,21.2,15.1"/>
			</g>
			<g>
				<path class="st76" d="M24.1,184.7c2.7,11.8,0.6,24.6-5.7,34.8"/>
				<path class="st76" d="M29.7,190.7c1.3,8.7-0.3,17.9-4.5,25.7"/>
			</g>
			<g>
				<path class="st76" d="M323.3,270.6c0.9,12-3.2,24.4-11.1,33.5"/>
				<path class="st76" d="M327.9,277.4c0,8.8-3,17.6-8.5,24.6"/>
			</g>
			<g>
				<path class="st76" d="M222.2,61.1c-7-9.8-9.9-22.5-8-34.4"/>
				<path class="st76" d="M214.7,57.7c-4.6-7.6-6.6-16.7-5.6-25.4"/>
			</g>
			<g>
				<path class="st76" d="M333.2,12.2c11.6-3.5,24.5-2.2,35.1,3.4"/>
				<path class="st76" d="M338.8,6.2c8.6-1.9,17.9-0.9,25.9,2.9"/>
			</g>
		</g>
	</g>
</g>
<g id="DESIGNED_BY_FREEPIK" class="st0">
	<g class="st1">
		<g id="XMLID_1_">
			<g id="XMLID_20_">
				<path id="XMLID_28_" class="st77" d="M247.1,402.3c-0.4,0.4-0.8,0.9-1.1,1.5l-0.5-0.2c-0.1-0.3-0.3-0.5-0.7-0.5
					c-0.3,0-0.6,0.3-0.5,0.7c0,0.3,0.3,0.6,0.7,0.5c0.1,0,0.1,0,0.2-0.1l0.5,0.2c-0.3,0.6-0.4,1.1-0.5,1.7l0.7,0.1
					c0.2-1.3,0.8-2.5,1.8-3.5L247.1,402.3z"/>
				<path id="XMLID_27_" class="st77" d="M252.5,400c-0.2,0-0.3,0-0.5,0l-0.1-0.6c0.2-0.1,0.3-0.4,0.3-0.6c0-0.4-0.4-0.7-0.8-0.6
					c-0.4,0-0.7,0.4-0.6,0.8c0,0.3,0.2,0.5,0.4,0.6l0.1,0.6c-0.7,0.1-1.4,0.3-2.1,0.6l0.3,0.7c0.9-0.4,1.9-0.7,3-0.7
					c0.5,0,1,0.1,1.5,0.2l0.2-0.7C253.6,400.1,253.1,400,252.5,400z"/>
				<path id="XMLID_26_" class="st77" d="M259.2,402.6c0.3,0,0.6-0.3,0.5-0.7c0-0.3-0.3-0.6-0.7-0.5c-0.3,0-0.5,0.3-0.5,0.6
					l-0.4,0.4c-0.4-0.4-0.9-0.8-1.4-1.1l-0.4,0.6c1.1,0.7,2,1.7,2.6,2.9l0.7-0.3c-0.3-0.6-0.6-1.1-0.9-1.5L259.2,402.6
					C259,402.6,259.1,402.6,259.2,402.6z"/>
				<path id="XMLID_25_" class="st77" d="M252,410.2c-0.4,0-0.8,0-1.2,0c-0.9,0-1.7-0.1-2.5-0.2c-0.4-0.1-0.8-0.2-1.3-0.3
					c1,1.9,3.1,3.1,5.4,3.1c2.9,0,5.3-1.9,5.9-4.5c-0.7,0.4-1.5,0.8-2.5,1.1C254.8,409.9,253.4,410.2,252,410.2z"/>
				<path id="XMLID_21_" class="st77" d="M252.5,401.5c-3.4,0-6.1,2.7-6.1,5.9c0,0.4,0,0.8,0.1,1.3c0.7,0.5,2.7,0.9,5.3,0.7
					c2.9-0.2,5.3-1,6.7-2.2c0-0.2,0-0.4,0-0.6C258.2,403.8,255.6,401.5,252.5,401.5z M250.4,408.1c-1,0-1.8-0.8-1.8-1.8
					s0.8-1.8,1.8-1.8s1.8,0.8,1.8,1.8C252.2,407.2,251.4,408.1,250.4,408.1z M255.1,407.2c-0.8,0-1.4-0.6-1.4-1.4s0.6-1.4,1.4-1.4
					c0.8,0,1.4,0.6,1.4,1.4C256.5,406.5,255.9,407.2,255.1,407.2z"/>
			</g>
			<path id="XMLID_18_" class="st77" d="M268.6,403.4c-0.3-0.1-0.8-0.3-1.4-0.2c-0.6,0.1-0.8,0.3-0.8,1v0.9h2.2v1.7h-2.2v5.5h-1.9
				v-5.5h-1.3v-1.7h1.3v-0.9c0-1.7,0.9-2.8,2.6-2.8c0.6,0,1.2,0.1,1.6,0.3L268.6,403.4z"/>
			<path id="XMLID_16_" class="st77" d="M273.3,406.7c-0.2,0-0.4,0-0.5,0c-0.9,0-1.5,0.5-1.5,1.6v3.9h-1.9V405h1.9v0.8
				c0.5-0.7,1.1-1,2-1c0.4,0,0.8,0.1,1.1,0.3L273.3,406.7z"/>
			<path id="XMLID_13_" class="st77" d="M280.9,408.6c0,0.2,0,0.5,0,0.7h-5.1c0.2,1,0.9,1.5,1.8,1.5c0.6,0,1.3-0.3,1.8-0.7l1.1,1.2
				c-0.8,0.7-1.9,1.1-3.1,1.1c-2.2,0-3.7-1.5-3.7-3.8s1.5-3.8,3.6-3.8C279.5,404.9,280.9,406.4,280.9,408.6z M275.8,408h3.2
				c-0.2-0.9-0.7-1.4-1.6-1.4C276.5,406.5,276,407.1,275.8,408z"/>
			<path id="XMLID_10_" class="st77" d="M288.6,408.6c0,0.2,0,0.5,0,0.7h-5.1c0.2,1,0.9,1.5,1.8,1.5c0.6,0,1.3-0.3,1.8-0.7l1.1,1.2
				c-0.8,0.7-1.9,1.1-3.1,1.1c-2.2,0-3.7-1.5-3.7-3.8s1.5-3.8,3.6-3.8C287.2,404.9,288.6,406.4,288.6,408.6z M283.5,408h3.2
				c-0.2-0.9-0.7-1.4-1.6-1.4C284.2,406.5,283.6,407.1,283.5,408z"/>
			<path id="XMLID_7_" class="st77" d="M296.9,408.6c0,2.2-1.5,3.8-3.5,3.8c-1,0-1.6-0.4-2.1-0.9v3.7h-1.9v-10.1h1.9v0.8
				c0.5-0.6,1.2-1,2.1-1C295.4,404.9,296.9,406.5,296.9,408.6z M291.2,408.6c0,1.1,0.7,2,1.8,2c1.1,0,1.9-0.9,1.9-2s-0.7-2-1.9-2
				C292,406.7,291.2,407.5,291.2,408.6z"/>
			<path id="XMLID_4_" class="st77" d="M300,402.7c0,0.7-0.5,1.2-1.2,1.2s-1.2-0.5-1.2-1.2s0.5-1.2,1.2-1.2S300,402,300,402.7z
				 M299.8,412.2h-1.9V405h1.9V412.2z"/>
			<path id="XMLID_2_" class="st77" d="M303,407.6l2.7-2.6h2.4l-3.5,3.4l3.5,3.8h-2.4l-2.7-2.9v2.9h-1.9v-10.7h1.9V407.6z"/>
		</g>
		<g>
			<path class="st77" d="M171.4,412.2v-1.1c-0.5,0.7-1.4,1.2-2.4,1.2c-1.8,0-3.1-1.4-3.1-3.7c0-2.3,1.3-3.7,3.1-3.7
				c1,0,1.8,0.5,2.4,1.2v-3.8h1.1v9.8h-1.1V412.2z M171.4,410.2V407c-0.4-0.6-1.2-1.1-2.1-1.1c-1.4,0-2.3,1.2-2.3,2.7
				c0,1.6,0.8,2.7,2.3,2.7C170.1,411.4,171,410.9,171.4,410.2z"/>
			<path class="st77" d="M173.9,408.6c0-2.1,1.5-3.7,3.5-3.7c2.1,0,3.4,1.7,3.4,3.8v0.3H175c0.1,1.3,1,2.4,2.5,2.4
				c0.8,0,1.6-0.3,2.2-0.9l0.5,0.7c-0.7,0.7-1.7,1.1-2.8,1.1C175.4,412.3,173.9,410.8,173.9,408.6z M177.4,405.8
				c-1.5,0-2.3,1.3-2.3,2.4h4.6C179.7,407.1,179,405.8,177.4,405.8z"/>
			<path class="st77" d="M181.6,411.2l0.6-0.8c0.5,0.5,1.4,1,2.3,1c1.1,0,1.7-0.5,1.7-1.2c0-1.7-4.4-0.7-4.4-3.3c0-1.1,1-2,2.6-2
				c1.2,0,2.1,0.5,2.6,1l-0.5,0.8c-0.4-0.5-1.2-0.9-2.1-0.9c-1,0-1.6,0.5-1.6,1.1c0,1.6,4.4,0.5,4.4,3.3c0,1.2-1,2.1-2.8,2.1
				C183.3,412.3,182.3,412,181.6,411.2z"/>
			<path class="st77" d="M188.4,403.3c0-0.4,0.3-0.7,0.7-0.7s0.7,0.3,0.7,0.7c0,0.4-0.3,0.7-0.7,0.7
				C188.8,404.1,188.4,403.8,188.4,403.3z M188.6,412.2v-7.1h1.1v7.1H188.6z"/>
			<path class="st77" d="M191.5,414l0.6-0.8c0.6,0.7,1.3,1,2.3,1c1.2,0,2.3-0.6,2.3-2.1v-1c-0.5,0.7-1.4,1.3-2.4,1.3
				c-1.8,0-3.1-1.4-3.1-3.7c0-2.3,1.3-3.7,3.1-3.7c1,0,1.8,0.5,2.4,1.2v-1.1h1.1v6.9c0,2.3-1.6,3.1-3.4,3.1
				C193.2,415,192.4,414.8,191.5,414z M196.7,410.1V407c-0.4-0.6-1.2-1.1-2.1-1.1c-1.4,0-2.3,1.1-2.3,2.7s0.8,2.7,2.3,2.7
				C195.4,411.3,196.3,410.7,196.7,410.1z"/>
			<path class="st77" d="M204.4,412.2v-4.6c0-1.2-0.6-1.6-1.6-1.6c-0.9,0-1.7,0.5-2.1,1.1v5.2h-1.1v-7.1h1.1v1
				c0.5-0.6,1.5-1.2,2.5-1.2c1.5,0,2.3,0.7,2.3,2.3v5L204.4,412.2L204.4,412.2z"/>
			<path class="st77" d="M206.9,408.6c0-2.1,1.5-3.7,3.5-3.7c2.1,0,3.4,1.7,3.4,3.8v0.3H208c0.1,1.3,1,2.4,2.5,2.4
				c0.8,0,1.6-0.3,2.2-0.9l0.5,0.7c-0.7,0.7-1.7,1.1-2.8,1.1C208.4,412.3,206.9,410.8,206.9,408.6z M210.4,405.8
				c-1.5,0-2.3,1.3-2.3,2.4h4.6C212.7,407.1,212,405.8,210.4,405.8z"/>
			<path class="st77" d="M220.3,412.2v-1.1c-0.5,0.7-1.4,1.2-2.4,1.2c-1.8,0-3.1-1.4-3.1-3.7c0-2.3,1.3-3.7,3.1-3.7
				c1,0,1.8,0.5,2.4,1.2v-3.8h1.1v9.8h-1.1V412.2z M220.3,410.2V407c-0.4-0.6-1.2-1.1-2.1-1.1c-1.4,0-2.3,1.2-2.3,2.7
				c0,1.6,0.8,2.7,2.3,2.7C219.1,411.4,219.9,410.9,220.3,410.2z"/>
			<path class="st77" d="M226.6,412.2v-9.8h1.1v3.8c0.6-0.8,1.4-1.2,2.4-1.2c1.8,0,3.1,1.5,3.1,3.7c0,2.3-1.3,3.7-3.1,3.7
				c-1,0-1.9-0.5-2.4-1.2v1.1h-1.1V412.2z M229.9,411.4c1.4,0,2.3-1.2,2.3-2.7c0-1.6-0.8-2.7-2.3-2.7c-0.9,0-1.7,0.5-2.1,1.1v3.2
				C228.1,410.9,229,411.4,229.9,411.4z"/>
			<path class="st77" d="M234.5,413.9c0.2,0.1,0.4,0.1,0.6,0.1c0.5,0,0.8-0.2,1.1-0.7l0.5-1.1l-3-7.1h1.2l2.4,5.8l2.3-5.8h1.2
				l-3.5,8.5c-0.4,1-1.1,1.4-2.1,1.4c-0.2,0-0.6,0-0.8-0.1L234.5,413.9z"/>
		</g>
	</g>
</g>
</svg>
