<?xml version="1.0" encoding="UTF-8" standalone="no"?>
<!DOCTYPE svg PUBLIC "-//W3C//DTD SVG 1.1//EN"
 "http://www.w3.org/Graphics/SVG/1.1/DTD/svg11.dtd">
<!-- Generated by graphviz version 2.40.1 (20161225.0304)
 -->
<!-- Title: dependencies Pages: 1 -->
<svg width="1751pt" height="211pt"
 viewBox="0.00 0.00 1751.00 211.00" xmlns="http://www.w3.org/2000/svg" xmlns:xlink="http://www.w3.org/1999/xlink">
<g id="graph0" class="graph" transform="scale(1 1) rotate(0) translate(4 207)">
<title>dependencies</title>
<polygon fill="#ffffff" stroke="transparent" points="-4,4 -4,-207 1747,-207 1747,4 -4,4"/>
<text text-anchor="start" x="850.5091" y="-42.4" font-family="sans-serif" font-weight="bold" font-size="14.00" fill="#000000">Legend</text>
<polygon fill="#ffffb3" stroke="transparent" points="637.5,-10 637.5,-30 657.5,-30 657.5,-10 637.5,-10"/>
<text text-anchor="start" x="661.129" y="-15.4" font-family="sans-serif" font-size="14.00" fill="#000000"> &#160;Declarations</text>
<polygon fill="#8dd3c7" stroke="transparent" points="750.5,-10 750.5,-30 770.5,-30 770.5,-10 750.5,-10"/>
<text text-anchor="start" x="774.2251" y="-15.4" font-family="sans-serif" font-size="14.00" fill="#000000"> &#160;Module</text>
<polygon fill="#80b1d3" stroke="transparent" points="836.5,-10 836.5,-30 856.5,-30 856.5,-10 836.5,-10"/>
<text text-anchor="start" x="860.2812" y="-15.4" font-family="sans-serif" font-size="14.00" fill="#000000"> &#160;Bootstrap</text>
<polygon fill="#fdb462" stroke="transparent" points="933.5,-10 933.5,-30 953.5,-30 953.5,-10 933.5,-10"/>
<text text-anchor="start" x="957.1732" y="-15.4" font-family="sans-serif" font-size="14.00" fill="#000000"> &#160;Providers</text>
<polygon fill="#fb8072" stroke="transparent" points="1029.5,-10 1029.5,-30 1049.5,-30 1049.5,-10 1029.5,-10"/>
<text text-anchor="start" x="1053.2258" y="-15.4" font-family="sans-serif" font-size="14.00" fill="#000000"> &#160;Exports</text>
<g id="clust1" class="cluster">
<title>cluster_AccountPageModule</title>
<polygon fill="none" stroke="#000000" stroke-dasharray="1,5" points="8,-70 8,-195 1735,-195 1735,-70 8,-70"/>
</g>
<g id="clust2" class="cluster">
<title>cluster_AccountPageModule_declarations</title>
<polygon fill="none" stroke="#000000" points="1177,-78 1177,-130 1727,-130 1727,-78 1177,-78"/>
</g>
<g id="clust7" class="cluster">
<title>cluster_AccountPageModule_imports</title>
<polygon fill="none" stroke="#000000" points="16,-78 16,-130 1169,-130 1169,-78 16,-78"/>
</g>
<!-- AccountPage -->
<g id="node1" class="node">
<title>AccountPage</title>
<polygon fill="#ffffb3" stroke="#000000" points="1719.1389,-122 1628.8611,-122 1628.8611,-86 1719.1389,-86 1719.1389,-122"/>
<text text-anchor="middle" x="1674" y="-99.8" font-family="Times,serif" font-size="14.00" fill="#000000">AccountPage</text>
</g>
<!-- AccountPageModule -->
<g id="node5" class="node">
<title>AccountPageModule</title>
<polygon fill="#8dd3c7" stroke="#000000" points="1051.1881,-187 1048.1881,-191 1027.1881,-191 1024.1881,-187 916.8119,-187 916.8119,-151 1051.1881,-151 1051.1881,-187"/>
<text text-anchor="middle" x="984" y="-164.8" font-family="Times,serif" font-size="14.00" fill="#000000">AccountPageModule</text>
</g>
<!-- AccountPage&#45;&gt;AccountPageModule -->
<g id="edge1" class="edge">
<title>AccountPage&#45;&gt;AccountPageModule</title>
<path fill="none" stroke="#000000" d="M1674,-122.0109C1674,-144.4852 1674,-180 1674,-180 1674,-180 1061.1014,-180 1061.1014,-180"/>
<polygon fill="#000000" stroke="#000000" points="1061.1015,-176.5001 1051.1014,-180 1061.1014,-183.5001 1061.1015,-176.5001"/>
</g>
<!-- ProfileComponent -->
<g id="node2" class="node">
<title>ProfileComponent</title>
<polygon fill="#ffffb3" stroke="#000000" points="1610.9328,-122 1491.0672,-122 1491.0672,-86 1610.9328,-86 1610.9328,-122"/>
<text text-anchor="middle" x="1551" y="-99.8" font-family="Times,serif" font-size="14.00" fill="#000000">ProfileComponent</text>
</g>
<!-- ProfileComponent&#45;&gt;AccountPageModule -->
<g id="edge2" class="edge">
<title>ProfileComponent&#45;&gt;AccountPageModule</title>
<path fill="none" stroke="#000000" d="M1551,-122.1289C1551,-142.5724 1551,-173 1551,-173 1551,-173 1061.2689,-173 1061.2689,-173"/>
<polygon fill="#000000" stroke="#000000" points="1061.269,-169.5001 1051.2689,-173 1061.2689,-176.5001 1061.269,-169.5001"/>
</g>
<!-- BorrowingsComponent -->
<g id="node3" class="node">
<title>BorrowingsComponent</title>
<polygon fill="#ffffb3" stroke="#000000" points="1473.9326,-122 1326.0674,-122 1326.0674,-86 1473.9326,-86 1473.9326,-122"/>
<text text-anchor="middle" x="1400" y="-99.8" font-family="Times,serif" font-size="14.00" fill="#000000">BorrowingsComponent</text>
</g>
<!-- BorrowingsComponent&#45;&gt;AccountPageModule -->
<g id="edge3" class="edge">
<title>BorrowingsComponent&#45;&gt;AccountPageModule</title>
<path fill="none" stroke="#000000" d="M1400,-122.2667C1400,-140.5552 1400,-166 1400,-166 1400,-166 1061.2999,-166 1061.2999,-166"/>
<polygon fill="#000000" stroke="#000000" points="1061.3,-162.5001 1051.2999,-166 1061.2999,-169.5001 1061.3,-162.5001"/>
</g>
<!-- PenaltyComponent -->
<g id="node4" class="node">
<title>PenaltyComponent</title>
<polygon fill="#ffffb3" stroke="#000000" points="1308.8258,-122 1185.1742,-122 1185.1742,-86 1308.8258,-86 1308.8258,-122"/>
<text text-anchor="middle" x="1247" y="-99.8" font-family="Times,serif" font-size="14.00" fill="#000000">PenaltyComponent</text>
</g>
<!-- PenaltyComponent&#45;&gt;AccountPageModule -->
<g id="edge4" class="edge">
<title>PenaltyComponent&#45;&gt;AccountPageModule</title>
<path fill="none" stroke="#000000" d="M1247,-122.0091C1247,-138.0494 1247,-159 1247,-159 1247,-159 1061.3875,-159 1061.3875,-159"/>
<polygon fill="#000000" stroke="#000000" points="1061.3875,-155.5001 1051.3875,-159 1061.3875,-162.5001 1061.3875,-155.5001"/>
</g>
<!-- CommonModule -->
<g id="node6" class="node">
<title>CommonModule</title>
<polygon fill="#8dd3c7" stroke="#000000" points="1160.6681,-122 1157.6681,-126 1136.6681,-126 1133.6681,-122 1049.3319,-122 1049.3319,-86 1160.6681,-86 1160.6681,-122"/>
<text text-anchor="middle" x="1105" y="-99.8" font-family="Times,serif" font-size="14.00" fill="#000000">CommonModule</text>
</g>
<!-- CommonModule&#45;&gt;AccountPageModule -->
<g id="edge5" class="edge">
<title>CommonModule&#45;&gt;AccountPageModule</title>
<path fill="none" stroke="#000000" d="M1049.1254,-104C1043.8456,-104 1040.4152,-104 1040.4152,-104 1040.4152,-104 1040.4152,-140.8939 1040.4152,-140.8939"/>
<polygon fill="#000000" stroke="#000000" points="1036.9152,-140.8938 1040.4152,-150.8939 1043.9152,-140.8939 1036.9152,-140.8938"/>
</g>
<!-- FormsModule -->
<g id="node7" class="node">
<title>FormsModule</title>
<polygon fill="#8dd3c7" stroke="#000000" points="1031.8288,-122 1028.8288,-126 1007.8288,-126 1004.8288,-122 936.1712,-122 936.1712,-86 1031.8288,-86 1031.8288,-122"/>
<text text-anchor="middle" x="984" y="-99.8" font-family="Times,serif" font-size="14.00" fill="#000000">FormsModule</text>
</g>
<!-- FormsModule&#45;&gt;AccountPageModule -->
<g id="edge6" class="edge">
<title>FormsModule&#45;&gt;AccountPageModule</title>
<path fill="none" stroke="#000000" d="M984,-122.1061C984,-122.1061 984,-140.991 984,-140.991"/>
<polygon fill="#000000" stroke="#000000" points="980.5001,-140.9909 984,-150.991 987.5001,-140.991 980.5001,-140.9909"/>
</g>
<!-- IonicModule -->
<g id="node8" class="node">
<title>IonicModule</title>
<polygon fill="#8dd3c7" stroke="#000000" points="918.3162,-122 915.3162,-126 894.3162,-126 891.3162,-122 829.6838,-122 829.6838,-86 918.3162,-86 918.3162,-122"/>
<text text-anchor="middle" x="874" y="-99.8" font-family="Times,serif" font-size="14.00" fill="#000000">IonicModule</text>
</g>
<!-- IonicModule&#45;&gt;AccountPageModule -->
<g id="edge7" class="edge">
<title>IonicModule&#45;&gt;AccountPageModule</title>
<path fill="none" stroke="#000000" d="M918.4542,-104C923.7077,-104 927.2469,-104 927.2469,-104 927.2469,-104 927.2469,-140.8939 927.2469,-140.8939"/>
<polygon fill="#000000" stroke="#000000" points="923.7469,-140.8938 927.2469,-150.8939 930.7469,-140.8939 923.7469,-140.8938"/>
</g>
<!-- RouterModule.forChild(args) -->
<g id="node9" class="node">
<title>RouterModule.forChild(args)</title>
<polygon fill="#8dd3c7" stroke="#000000" points="811.7323,-122 808.7323,-126 787.7323,-126 784.7323,-122 630.2677,-122 630.2677,-86 811.7323,-86 811.7323,-122"/>
<text text-anchor="middle" x="721" y="-99.8" font-family="Times,serif" font-size="14.00" fill="#000000">RouterModule.forChild(args)</text>
</g>
<!-- RouterModule.forChild(args)&#45;&gt;AccountPageModule -->
<g id="edge8" class="edge">
<title>RouterModule.forChild(args)&#45;&gt;AccountPageModule</title>
<path fill="none" stroke="#000000" d="M721,-122.0091C721,-138.0494 721,-159 721,-159 721,-159 906.6125,-159 906.6125,-159"/>
<polygon fill="#000000" stroke="#000000" points="906.6125,-162.5001 916.6125,-159 906.6125,-155.5001 906.6125,-162.5001"/>
</g>
<!-- MenuTitleComponentModule -->
<g id="node10" class="node">
<title>MenuTitleComponentModule</title>
<polygon fill="#8dd3c7" stroke="#000000" points="611.9804,-122 608.9804,-126 587.9804,-126 584.9804,-122 428.0196,-122 428.0196,-86 611.9804,-86 611.9804,-122"/>
<text text-anchor="middle" x="520" y="-99.8" font-family="Times,serif" font-size="14.00" fill="#000000">MenuTitleComponentModule</text>
</g>
<!-- MenuTitleComponentModule&#45;&gt;AccountPageModule -->
<g id="edge9" class="edge">
<title>MenuTitleComponentModule&#45;&gt;AccountPageModule</title>
<path fill="none" stroke="#000000" d="M520,-122.2667C520,-140.5552 520,-166 520,-166 520,-166 906.5304,-166 906.5304,-166"/>
<polygon fill="#000000" stroke="#000000" points="906.5305,-169.5001 916.5304,-166 906.5304,-162.5001 906.5305,-169.5001"/>
</g>
<!-- AccountTabMenuComponentModule -->
<g id="node11" class="node">
<title>AccountTabMenuComponentModule</title>
<polygon fill="#8dd3c7" stroke="#000000" points="410.2352,-122 407.2352,-126 386.2352,-126 383.2352,-122 183.7648,-122 183.7648,-86 410.2352,-86 410.2352,-122"/>
<text text-anchor="middle" x="297" y="-99.8" font-family="Times,serif" font-size="14.00" fill="#000000">AccountTabMenuComponentModule</text>
</g>
<!-- AccountTabMenuComponentModule&#45;&gt;AccountPageModule -->
<g id="edge10" class="edge">
<title>AccountTabMenuComponentModule&#45;&gt;AccountPageModule</title>
<path fill="none" stroke="#000000" d="M297,-122.1289C297,-142.5724 297,-173 297,-173 297,-173 906.8767,-173 906.8767,-173"/>
<polygon fill="#000000" stroke="#000000" points="906.8767,-176.5001 916.8767,-173 906.8767,-169.5001 906.8767,-176.5001"/>
</g>
<!-- MatExpansionModule -->
<g id="node12" class="node">
<title>MatExpansionModule</title>
<polygon fill="#8dd3c7" stroke="#000000" points="165.7021,-122 162.7021,-126 141.7021,-126 138.7021,-122 24.2979,-122 24.2979,-86 165.7021,-86 165.7021,-122"/>
<text text-anchor="middle" x="95" y="-99.8" font-family="Times,serif" font-size="14.00" fill="#000000">MatExpansionModule</text>
</g>
<!-- MatExpansionModule&#45;&gt;AccountPageModule -->
<g id="edge11" class="edge">
<title>MatExpansionModule&#45;&gt;AccountPageModule</title>
<path fill="none" stroke="#000000" d="M95,-122.0109C95,-144.4852 95,-180 95,-180 95,-180 906.8161,-180 906.8161,-180"/>
<polygon fill="#000000" stroke="#000000" points="906.8161,-183.5001 916.8161,-180 906.8161,-176.5001 906.8161,-183.5001"/>
</g>
</g>
</svg>
