<?xml version="1.0" encoding="UTF-8" standalone="no"?>
<!DOCTYPE svg PUBLIC "-//W3C//DTD SVG 1.1//EN"
 "http://www.w3.org/Graphics/SVG/1.1/DTD/svg11.dtd">
<!-- Generated by graphviz version 2.40.1 (20161225.0304)
 -->
<!-- Title: dependencies Pages: 1 -->
<svg width="1591pt" height="211pt"
 viewBox="0.00 0.00 1591.00 211.00" xmlns="http://www.w3.org/2000/svg" xmlns:xlink="http://www.w3.org/1999/xlink">
<g id="graph0" class="graph" transform="scale(1 1) rotate(0) translate(4 207)">
<title>dependencies</title>
<polygon fill="#ffffff" stroke="transparent" points="-4,4 -4,-207 1587,-207 1587,4 -4,4"/>
<text text-anchor="start" x="770.5091" y="-42.4" font-family="sans-serif" font-weight="bold" font-size="14.00" fill="#000000">Legend</text>
<polygon fill="#ffffb3" stroke="transparent" points="557.5,-10 557.5,-30 577.5,-30 577.5,-10 557.5,-10"/>
<text text-anchor="start" x="581.129" y="-15.4" font-family="sans-serif" font-size="14.00" fill="#000000"> &#160;Declarations</text>
<polygon fill="#8dd3c7" stroke="transparent" points="670.5,-10 670.5,-30 690.5,-30 690.5,-10 670.5,-10"/>
<text text-anchor="start" x="694.2251" y="-15.4" font-family="sans-serif" font-size="14.00" fill="#000000"> &#160;Module</text>
<polygon fill="#80b1d3" stroke="transparent" points="756.5,-10 756.5,-30 776.5,-30 776.5,-10 756.5,-10"/>
<text text-anchor="start" x="780.2812" y="-15.4" font-family="sans-serif" font-size="14.00" fill="#000000"> &#160;Bootstrap</text>
<polygon fill="#fdb462" stroke="transparent" points="853.5,-10 853.5,-30 873.5,-30 873.5,-10 853.5,-10"/>
<text text-anchor="start" x="877.1732" y="-15.4" font-family="sans-serif" font-size="14.00" fill="#000000"> &#160;Providers</text>
<polygon fill="#fb8072" stroke="transparent" points="949.5,-10 949.5,-30 969.5,-30 969.5,-10 949.5,-10"/>
<text text-anchor="start" x="973.2258" y="-15.4" font-family="sans-serif" font-size="14.00" fill="#000000"> &#160;Exports</text>
<g id="clust1" class="cluster">
<title>cluster_AccountPageModule</title>
<polygon fill="none" stroke="#000000" stroke-dasharray="1,5" points="8,-70 8,-195 1575,-195 1575,-70 8,-70"/>
</g>
<g id="clust2" class="cluster">
<title>cluster_AccountPageModule_declarations</title>
<polygon fill="none" stroke="#000000" points="1017,-78 1017,-130 1567,-130 1567,-78 1017,-78"/>
</g>
<g id="clust7" class="cluster">
<title>cluster_AccountPageModule_imports</title>
<polygon fill="none" stroke="#000000" points="16,-78 16,-130 1009,-130 1009,-78 16,-78"/>
</g>
<!-- AccountPage -->
<g id="node1" class="node">
<title>AccountPage</title>
<polygon fill="#ffffb3" stroke="#000000" points="1559.1389,-122 1468.8611,-122 1468.8611,-86 1559.1389,-86 1559.1389,-122"/>
<text text-anchor="middle" x="1514" y="-99.8" font-family="Times,serif" font-size="14.00" fill="#000000">AccountPage</text>
</g>
<!-- AccountPageModule -->
<g id="node5" class="node">
<title>AccountPageModule</title>
<polygon fill="#8dd3c7" stroke="#000000" points="951.1881,-187 948.1881,-191 927.1881,-191 924.1881,-187 816.8119,-187 816.8119,-151 951.1881,-151 951.1881,-187"/>
<text text-anchor="middle" x="884" y="-164.8" font-family="Times,serif" font-size="14.00" fill="#000000">AccountPageModule</text>
</g>
<!-- AccountPage&#45;&gt;AccountPageModule -->
<g id="edge1" class="edge">
<title>AccountPage&#45;&gt;AccountPageModule</title>
<path fill="none" stroke="#000000" d="M1514,-122.0109C1514,-144.4852 1514,-180 1514,-180 1514,-180 961.1225,-180 961.1225,-180"/>
<polygon fill="#000000" stroke="#000000" points="961.1226,-176.5001 951.1225,-180 961.1225,-183.5001 961.1226,-176.5001"/>
</g>
<!-- ProfileComponent -->
<g id="node2" class="node">
<title>ProfileComponent</title>
<polygon fill="#ffffb3" stroke="#000000" points="1450.9328,-122 1331.0672,-122 1331.0672,-86 1450.9328,-86 1450.9328,-122"/>
<text text-anchor="middle" x="1391" y="-99.8" font-family="Times,serif" font-size="14.00" fill="#000000">ProfileComponent</text>
</g>
<!-- ProfileComponent&#45;&gt;AccountPageModule -->
<g id="edge2" class="edge">
<title>ProfileComponent&#45;&gt;AccountPageModule</title>
<path fill="none" stroke="#000000" d="M1391,-122.1289C1391,-142.5724 1391,-173 1391,-173 1391,-173 961.3257,-173 961.3257,-173"/>
<polygon fill="#000000" stroke="#000000" points="961.3257,-169.5001 951.3257,-173 961.3257,-176.5001 961.3257,-169.5001"/>
</g>
<!-- BorrowingsComponent -->
<g id="node3" class="node">
<title>BorrowingsComponent</title>
<polygon fill="#ffffb3" stroke="#000000" points="1313.9326,-122 1166.0674,-122 1166.0674,-86 1313.9326,-86 1313.9326,-122"/>
<text text-anchor="middle" x="1240" y="-99.8" font-family="Times,serif" font-size="14.00" fill="#000000">BorrowingsComponent</text>
</g>
<!-- BorrowingsComponent&#45;&gt;AccountPageModule -->
<g id="edge3" class="edge">
<title>BorrowingsComponent&#45;&gt;AccountPageModule</title>
<path fill="none" stroke="#000000" d="M1240,-122.2667C1240,-140.5552 1240,-166 1240,-166 1240,-166 961.3794,-166 961.3794,-166"/>
<polygon fill="#000000" stroke="#000000" points="961.3794,-162.5001 951.3794,-166 961.3794,-169.5001 961.3794,-162.5001"/>
</g>
<!-- PenaltyComponent -->
<g id="node4" class="node">
<title>PenaltyComponent</title>
<polygon fill="#ffffb3" stroke="#000000" points="1148.8258,-122 1025.1742,-122 1025.1742,-86 1148.8258,-86 1148.8258,-122"/>
<text text-anchor="middle" x="1087" y="-99.8" font-family="Times,serif" font-size="14.00" fill="#000000">PenaltyComponent</text>
</g>
<!-- PenaltyComponent&#45;&gt;AccountPageModule -->
<g id="edge4" class="edge">
<title>PenaltyComponent&#45;&gt;AccountPageModule</title>
<path fill="none" stroke="#000000" d="M1087,-122.0091C1087,-138.0494 1087,-159 1087,-159 1087,-159 961.3141,-159 961.3141,-159"/>
<polygon fill="#000000" stroke="#000000" points="961.3141,-155.5001 951.3141,-159 961.3141,-162.5001 961.3141,-155.5001"/>
</g>
<!-- CommonModule -->
<g id="node6" class="node">
<title>CommonModule</title>
<polygon fill="#8dd3c7" stroke="#000000" points="1000.6681,-122 997.6681,-126 976.6681,-126 973.6681,-122 889.3319,-122 889.3319,-86 1000.6681,-86 1000.6681,-122"/>
<text text-anchor="middle" x="945" y="-99.8" font-family="Times,serif" font-size="14.00" fill="#000000">CommonModule</text>
</g>
<!-- CommonModule&#45;&gt;AccountPageModule -->
<g id="edge5" class="edge">
<title>CommonModule&#45;&gt;AccountPageModule</title>
<path fill="none" stroke="#000000" d="M920.1301,-122.1061C920.1301,-122.1061 920.1301,-140.991 920.1301,-140.991"/>
<polygon fill="#000000" stroke="#000000" points="916.6302,-140.9909 920.1301,-150.991 923.6302,-140.991 916.6302,-140.9909"/>
</g>
<!-- FormsModule -->
<g id="node7" class="node">
<title>FormsModule</title>
<polygon fill="#8dd3c7" stroke="#000000" points="871.8288,-122 868.8288,-126 847.8288,-126 844.8288,-122 776.1712,-122 776.1712,-86 871.8288,-86 871.8288,-122"/>
<text text-anchor="middle" x="824" y="-99.8" font-family="Times,serif" font-size="14.00" fill="#000000">FormsModule</text>
</g>
<!-- FormsModule&#45;&gt;AccountPageModule -->
<g id="edge6" class="edge">
<title>FormsModule&#45;&gt;AccountPageModule</title>
<path fill="none" stroke="#000000" d="M844.2851,-122.1061C844.2851,-122.1061 844.2851,-140.991 844.2851,-140.991"/>
<polygon fill="#000000" stroke="#000000" points="840.7851,-140.9909 844.2851,-150.991 847.7851,-140.991 840.7851,-140.9909"/>
</g>
<!-- IonicModule -->
<g id="node8" class="node">
<title>IonicModule</title>
<polygon fill="#8dd3c7" stroke="#000000" points="758.3162,-122 755.3162,-126 734.3162,-126 731.3162,-122 669.6838,-122 669.6838,-86 758.3162,-86 758.3162,-122"/>
<text text-anchor="middle" x="714" y="-99.8" font-family="Times,serif" font-size="14.00" fill="#000000">IonicModule</text>
</g>
<!-- IonicModule&#45;&gt;AccountPageModule -->
<g id="edge7" class="edge">
<title>IonicModule&#45;&gt;AccountPageModule</title>
<path fill="none" stroke="#000000" d="M714,-122.0091C714,-138.0494 714,-159 714,-159 714,-159 806.8115,-159 806.8115,-159"/>
<polygon fill="#000000" stroke="#000000" points="806.8115,-162.5001 816.8115,-159 806.8115,-155.5001 806.8115,-162.5001"/>
</g>
<!-- RouterModule.forChild(args) -->
<g id="node9" class="node">
<title>RouterModule.forChild(args)</title>
<polygon fill="#8dd3c7" stroke="#000000" points="651.7323,-122 648.7323,-126 627.7323,-126 624.7323,-122 470.2677,-122 470.2677,-86 651.7323,-86 651.7323,-122"/>
<text text-anchor="middle" x="561" y="-99.8" font-family="Times,serif" font-size="14.00" fill="#000000">RouterModule.forChild(args)</text>
</g>
<!-- RouterModule.forChild(args)&#45;&gt;AccountPageModule -->
<g id="edge8" class="edge">
<title>RouterModule.forChild(args)&#45;&gt;AccountPageModule</title>
<path fill="none" stroke="#000000" d="M561,-122.2667C561,-140.5552 561,-166 561,-166 561,-166 806.6818,-166 806.6818,-166"/>
<polygon fill="#000000" stroke="#000000" points="806.6818,-169.5001 816.6818,-166 806.6817,-162.5001 806.6818,-169.5001"/>
</g>
<!-- MenuTitleComponentModule -->
<g id="node10" class="node">
<title>MenuTitleComponentModule</title>
<polygon fill="#8dd3c7" stroke="#000000" points="451.9804,-122 448.9804,-126 427.9804,-126 424.9804,-122 268.0196,-122 268.0196,-86 451.9804,-86 451.9804,-122"/>
<text text-anchor="middle" x="360" y="-99.8" font-family="Times,serif" font-size="14.00" fill="#000000">MenuTitleComponentModule</text>
</g>
<!-- MenuTitleComponentModule&#45;&gt;AccountPageModule -->
<g id="edge9" class="edge">
<title>MenuTitleComponentModule&#45;&gt;AccountPageModule</title>
<path fill="none" stroke="#000000" d="M360,-122.1289C360,-142.5724 360,-173 360,-173 360,-173 806.8361,-173 806.8361,-173"/>
<polygon fill="#000000" stroke="#000000" points="806.8361,-176.5001 816.8361,-173 806.836,-169.5001 806.8361,-176.5001"/>
</g>
<!-- AccountTabMenuComponentModule -->
<g id="node11" class="node">
<title>AccountTabMenuComponentModule</title>
<polygon fill="#8dd3c7" stroke="#000000" points="250.2352,-122 247.2352,-126 226.2352,-126 223.2352,-122 23.7648,-122 23.7648,-86 250.2352,-86 250.2352,-122"/>
<text text-anchor="middle" x="137" y="-99.8" font-family="Times,serif" font-size="14.00" fill="#000000">AccountTabMenuComponentModule</text>
</g>
<!-- AccountTabMenuComponentModule&#45;&gt;AccountPageModule -->
<g id="edge10" class="edge">
<title>AccountTabMenuComponentModule&#45;&gt;AccountPageModule</title>
<path fill="none" stroke="#000000" d="M137,-122.0109C137,-144.4852 137,-180 137,-180 137,-180 806.7216,-180 806.7216,-180"/>
<polygon fill="#000000" stroke="#000000" points="806.7217,-183.5001 816.7216,-180 806.7216,-176.5001 806.7217,-183.5001"/>
</g>
</g>
</svg>
