<?xml version="1.0" encoding="UTF-8" standalone="no"?>
<!DOCTYPE svg PUBLIC "-//W3C//DTD SVG 1.1//EN"
 "http://www.w3.org/Graphics/SVG/1.1/DTD/svg11.dtd">
<!-- Generated by graphviz version 2.40.1 (20161225.0304)
 -->
<!-- Title: dependencies Pages: 1 -->
<svg width="580pt" height="211pt"
 viewBox="0.00 0.00 580.00 211.00" xmlns="http://www.w3.org/2000/svg" xmlns:xlink="http://www.w3.org/1999/xlink">
<g id="graph0" class="graph" transform="scale(1 1) rotate(0) translate(4 207)">
<title>dependencies</title>
<polygon fill="#ffffff" stroke="transparent" points="-4,4 -4,-207 576,-207 576,4 -4,4"/>
<text text-anchor="start" x="265.0091" y="-42.4" font-family="sans-serif" font-weight="bold" font-size="14.00" fill="#000000">Legend</text>
<polygon fill="#ffffb3" stroke="transparent" points="52,-10 52,-30 72,-30 72,-10 52,-10"/>
<text text-anchor="start" x="75.629" y="-15.4" font-family="sans-serif" font-size="14.00" fill="#000000"> &#160;Declarations</text>
<polygon fill="#8dd3c7" stroke="transparent" points="165,-10 165,-30 185,-30 185,-10 165,-10"/>
<text text-anchor="start" x="188.7251" y="-15.4" font-family="sans-serif" font-size="14.00" fill="#000000"> &#160;Module</text>
<polygon fill="#80b1d3" stroke="transparent" points="251,-10 251,-30 271,-30 271,-10 251,-10"/>
<text text-anchor="start" x="274.7812" y="-15.4" font-family="sans-serif" font-size="14.00" fill="#000000"> &#160;Bootstrap</text>
<polygon fill="#fdb462" stroke="transparent" points="348,-10 348,-30 368,-30 368,-10 348,-10"/>
<text text-anchor="start" x="371.6732" y="-15.4" font-family="sans-serif" font-size="14.00" fill="#000000"> &#160;Providers</text>
<polygon fill="#fb8072" stroke="transparent" points="444,-10 444,-30 464,-30 464,-10 444,-10"/>
<text text-anchor="start" x="467.7258" y="-15.4" font-family="sans-serif" font-size="14.00" fill="#000000"> &#160;Exports</text>
<g id="clust1" class="cluster">
<title>cluster_RequestbookPageModule</title>
<polygon fill="none" stroke="#000000" stroke-dasharray="1,5" points="8,-70 8,-195 564,-195 564,-70 8,-70"/>
</g>
<g id="clust2" class="cluster">
<title>cluster_RequestbookPageModule_declarations</title>
<polygon fill="none" stroke="#000000" points="16,-78 16,-130 556,-130 556,-78 16,-78"/>
</g>
<!-- DropZoneDirective -->
<g id="node1" class="node">
<title>DropZoneDirective</title>
<polygon fill="#ffffb3" stroke="#000000" points="547.6178,-122 422.3822,-122 422.3822,-86 547.6178,-86 547.6178,-122"/>
<text text-anchor="middle" x="485" y="-99.8" font-family="Times,serif" font-size="14.00" fill="#000000">DropZoneDirective</text>
</g>
<!-- RequestbookPageModule -->
<g id="node5" class="node">
<title>RequestbookPageModule</title>
<polygon fill="#8dd3c7" stroke="#000000" points="374.8627,-187 371.8627,-191 350.8627,-191 347.8627,-187 215.1373,-187 215.1373,-151 374.8627,-151 374.8627,-187"/>
<text text-anchor="middle" x="295" y="-164.8" font-family="Times,serif" font-size="14.00" fill="#000000">RequestbookPageModule</text>
</g>
<!-- DropZoneDirective&#45;&gt;RequestbookPageModule -->
<g id="edge1" class="edge">
<title>DropZoneDirective&#45;&gt;RequestbookPageModule</title>
<path fill="none" stroke="#000000" d="M485,-122.1061C485,-141.3391 485,-169 485,-169 485,-169 385.0264,-169 385.0264,-169"/>
<polygon fill="#000000" stroke="#000000" points="385.0265,-165.5001 375.0264,-169 385.0264,-172.5001 385.0265,-165.5001"/>
</g>
<!-- FileSizePipe -->
<g id="node2" class="node">
<title>FileSizePipe</title>
<polygon fill="#ffffb3" stroke="#000000" points="404.2689,-122 317.7311,-122 317.7311,-86 404.2689,-86 404.2689,-122"/>
<text text-anchor="middle" x="361" y="-99.8" font-family="Times,serif" font-size="14.00" fill="#000000">FileSizePipe</text>
</g>
<!-- FileSizePipe&#45;&gt;RequestbookPageModule -->
<g id="edge2" class="edge">
<title>FileSizePipe&#45;&gt;RequestbookPageModule</title>
<path fill="none" stroke="#000000" d="M346.2735,-122.1061C346.2735,-122.1061 346.2735,-140.991 346.2735,-140.991"/>
<polygon fill="#000000" stroke="#000000" points="342.7736,-140.9909 346.2735,-150.991 349.7736,-140.991 342.7736,-140.9909"/>
</g>
<!-- FileuploadComponent -->
<g id="node3" class="node">
<title>FileuploadComponent</title>
<polygon fill="#ffffb3" stroke="#000000" points="299.7162,-122 158.2838,-122 158.2838,-86 299.7162,-86 299.7162,-122"/>
<text text-anchor="middle" x="229" y="-99.8" font-family="Times,serif" font-size="14.00" fill="#000000">FileuploadComponent</text>
</g>
<!-- FileuploadComponent&#45;&gt;RequestbookPageModule -->
<g id="edge3" class="edge">
<title>FileuploadComponent&#45;&gt;RequestbookPageModule</title>
<path fill="none" stroke="#000000" d="M257.3384,-122.1061C257.3384,-122.1061 257.3384,-140.991 257.3384,-140.991"/>
<polygon fill="#000000" stroke="#000000" points="253.8384,-140.9909 257.3384,-150.991 260.8384,-140.991 253.8384,-140.9909"/>
</g>
<!-- RequestbookPage -->
<g id="node4" class="node">
<title>RequestbookPage</title>
<polygon fill="#ffffb3" stroke="#000000" points="140.3132,-122 23.6868,-122 23.6868,-86 140.3132,-86 140.3132,-122"/>
<text text-anchor="middle" x="82" y="-99.8" font-family="Times,serif" font-size="14.00" fill="#000000">RequestbookPage</text>
</g>
<!-- RequestbookPage&#45;&gt;RequestbookPageModule -->
<g id="edge4" class="edge">
<title>RequestbookPage&#45;&gt;RequestbookPageModule</title>
<path fill="none" stroke="#000000" d="M82,-122.1061C82,-141.3391 82,-169 82,-169 82,-169 205.0807,-169 205.0807,-169"/>
<polygon fill="#000000" stroke="#000000" points="205.0807,-172.5001 215.0807,-169 205.0806,-165.5001 205.0807,-172.5001"/>
</g>
</g>
</svg>
