<?xml version="1.0" encoding="UTF-8" standalone="no"?>
<!DOCTYPE svg PUBLIC "-//W3C//DTD SVG 1.1//EN"
 "http://www.w3.org/Graphics/SVG/1.1/DTD/svg11.dtd">
<!-- Generated by graphviz version 2.40.1 (20161225.0304)
 -->
<!-- Title: dependencies Pages: 1 -->
<svg width="1168pt" height="211pt"
 viewBox="0.00 0.00 1168.00 211.00" xmlns="http://www.w3.org/2000/svg" xmlns:xlink="http://www.w3.org/1999/xlink">
<g id="graph0" class="graph" transform="scale(1 1) rotate(0) translate(4 207)">
<title>dependencies</title>
<polygon fill="#ffffff" stroke="transparent" points="-4,4 -4,-207 1164,-207 1164,4 -4,4"/>
<text text-anchor="start" x="559.0091" y="-42.4" font-family="sans-serif" font-weight="bold" font-size="14.00" fill="#000000">Legend</text>
<polygon fill="#ffffb3" stroke="transparent" points="346,-10 346,-30 366,-30 366,-10 346,-10"/>
<text text-anchor="start" x="369.629" y="-15.4" font-family="sans-serif" font-size="14.00" fill="#000000"> &#160;Declarations</text>
<polygon fill="#8dd3c7" stroke="transparent" points="459,-10 459,-30 479,-30 479,-10 459,-10"/>
<text text-anchor="start" x="482.7251" y="-15.4" font-family="sans-serif" font-size="14.00" fill="#000000"> &#160;Module</text>
<polygon fill="#80b1d3" stroke="transparent" points="545,-10 545,-30 565,-30 565,-10 545,-10"/>
<text text-anchor="start" x="568.7812" y="-15.4" font-family="sans-serif" font-size="14.00" fill="#000000"> &#160;Bootstrap</text>
<polygon fill="#fdb462" stroke="transparent" points="642,-10 642,-30 662,-30 662,-10 642,-10"/>
<text text-anchor="start" x="665.6732" y="-15.4" font-family="sans-serif" font-size="14.00" fill="#000000"> &#160;Providers</text>
<polygon fill="#fb8072" stroke="transparent" points="738,-10 738,-30 758,-30 758,-10 738,-10"/>
<text text-anchor="start" x="761.7258" y="-15.4" font-family="sans-serif" font-size="14.00" fill="#000000"> &#160;Exports</text>
<g id="clust1" class="cluster">
<title>cluster_LoginPageModule</title>
<polygon fill="none" stroke="#000000" stroke-dasharray="1,5" points="8,-70 8,-195 1152,-195 1152,-70 8,-70"/>
</g>
<g id="clust2" class="cluster">
<title>cluster_LoginPageModule_declarations</title>
<polygon fill="none" stroke="#000000" points="862,-78 862,-130 1144,-130 1144,-78 862,-78"/>
</g>
<g id="clust5" class="cluster">
<title>cluster_LoginPageModule_imports</title>
<polygon fill="none" stroke="#000000" points="16,-78 16,-130 854,-130 854,-78 16,-78"/>
</g>
<!-- LoginPage -->
<g id="node1" class="node">
<title>LoginPage</title>
<polygon fill="#ffffb3" stroke="#000000" points="1136.1558,-122 1059.8442,-122 1059.8442,-86 1136.1558,-86 1136.1558,-122"/>
<text text-anchor="middle" x="1098" y="-99.8" font-family="Times,serif" font-size="14.00" fill="#000000">LoginPage</text>
</g>
<!-- LoginPageModule -->
<g id="node3" class="node">
<title>LoginPageModule</title>
<polygon fill="#8dd3c7" stroke="#000000" points="674.205,-187 671.205,-191 650.205,-191 647.205,-187 553.795,-187 553.795,-151 674.205,-151 674.205,-187"/>
<text text-anchor="middle" x="614" y="-164.8" font-family="Times,serif" font-size="14.00" fill="#000000">LoginPageModule</text>
</g>
<!-- LoginPage&#45;&gt;LoginPageModule -->
<g id="edge1" class="edge">
<title>LoginPage&#45;&gt;LoginPageModule</title>
<path fill="none" stroke="#000000" d="M1098,-122.2921C1098,-144.2057 1098,-178 1098,-178 1098,-178 684.3203,-178 684.3203,-178"/>
<polygon fill="#000000" stroke="#000000" points="684.3204,-174.5001 674.3203,-178 684.3203,-181.5001 684.3204,-174.5001"/>
</g>
<!-- ForgetPasswordComponent -->
<g id="node2" class="node">
<title>ForgetPasswordComponent</title>
<polygon fill="#ffffb3" stroke="#000000" points="1041.535,-122 870.465,-122 870.465,-86 1041.535,-86 1041.535,-122"/>
<text text-anchor="middle" x="956" y="-99.8" font-family="Times,serif" font-size="14.00" fill="#000000">ForgetPasswordComponent</text>
</g>
<!-- ForgetPasswordComponent&#45;&gt;LoginPageModule -->
<g id="edge2" class="edge">
<title>ForgetPasswordComponent&#45;&gt;LoginPageModule</title>
<path fill="none" stroke="#000000" d="M956,-122.1061C956,-141.3391 956,-169 956,-169 956,-169 684.3555,-169 684.3555,-169"/>
<polygon fill="#000000" stroke="#000000" points="684.3555,-165.5001 674.3555,-169 684.3554,-172.5001 684.3555,-165.5001"/>
</g>
<!-- CommonModule -->
<g id="node4" class="node">
<title>CommonModule</title>
<polygon fill="#8dd3c7" stroke="#000000" points="845.6681,-122 842.6681,-126 821.6681,-126 818.6681,-122 734.3319,-122 734.3319,-86 845.6681,-86 845.6681,-122"/>
<text text-anchor="middle" x="790" y="-99.8" font-family="Times,serif" font-size="14.00" fill="#000000">CommonModule</text>
</g>
<!-- CommonModule&#45;&gt;LoginPageModule -->
<g id="edge3" class="edge">
<title>CommonModule&#45;&gt;LoginPageModule</title>
<path fill="none" stroke="#000000" d="M790,-122.027C790,-138.3976 790,-160 790,-160 790,-160 684.5692,-160 684.5692,-160"/>
<polygon fill="#000000" stroke="#000000" points="684.5693,-156.5001 674.5692,-160 684.5692,-163.5001 684.5693,-156.5001"/>
</g>
<!-- FormsModule -->
<g id="node5" class="node">
<title>FormsModule</title>
<polygon fill="#8dd3c7" stroke="#000000" points="716.8288,-122 713.8288,-126 692.8288,-126 689.8288,-122 621.1712,-122 621.1712,-86 716.8288,-86 716.8288,-122"/>
<text text-anchor="middle" x="669" y="-99.8" font-family="Times,serif" font-size="14.00" fill="#000000">FormsModule</text>
</g>
<!-- FormsModule&#45;&gt;LoginPageModule -->
<g id="edge4" class="edge">
<title>FormsModule&#45;&gt;LoginPageModule</title>
<path fill="none" stroke="#000000" d="M647.7192,-122.1061C647.7192,-122.1061 647.7192,-140.991 647.7192,-140.991"/>
<polygon fill="#000000" stroke="#000000" points="644.2192,-140.9909 647.7192,-150.991 651.2192,-140.991 644.2192,-140.9909"/>
</g>
<!-- IonicModule -->
<g id="node6" class="node">
<title>IonicModule</title>
<polygon fill="#8dd3c7" stroke="#000000" points="603.3162,-122 600.3162,-126 579.3162,-126 576.3162,-122 514.6838,-122 514.6838,-86 603.3162,-86 603.3162,-122"/>
<text text-anchor="middle" x="559" y="-99.8" font-family="Times,serif" font-size="14.00" fill="#000000">IonicModule</text>
</g>
<!-- IonicModule&#45;&gt;LoginPageModule -->
<g id="edge5" class="edge">
<title>IonicModule&#45;&gt;LoginPageModule</title>
<path fill="none" stroke="#000000" d="M578.5277,-122.1061C578.5277,-122.1061 578.5277,-140.991 578.5277,-140.991"/>
<polygon fill="#000000" stroke="#000000" points="575.0278,-140.9909 578.5277,-150.991 582.0278,-140.991 575.0278,-140.9909"/>
</g>
<!-- RouterModule.forChild(args) -->
<g id="node7" class="node">
<title>RouterModule.forChild(args)</title>
<polygon fill="#8dd3c7" stroke="#000000" points="496.7323,-122 493.7323,-126 472.7323,-126 469.7323,-122 315.2677,-122 315.2677,-86 496.7323,-86 496.7323,-122"/>
<text text-anchor="middle" x="406" y="-99.8" font-family="Times,serif" font-size="14.00" fill="#000000">RouterModule.forChild(args)</text>
</g>
<!-- RouterModule.forChild(args)&#45;&gt;LoginPageModule -->
<g id="edge6" class="edge">
<title>RouterModule.forChild(args)&#45;&gt;LoginPageModule</title>
<path fill="none" stroke="#000000" d="M406,-122.027C406,-138.3976 406,-160 406,-160 406,-160 543.8378,-160 543.8378,-160"/>
<polygon fill="#000000" stroke="#000000" points="543.8378,-163.5001 553.8378,-160 543.8377,-156.5001 543.8378,-163.5001"/>
</g>
<!-- MatInputModule -->
<g id="node8" class="node">
<title>MatInputModule</title>
<polygon fill="#8dd3c7" stroke="#000000" points="297.6513,-122 294.6513,-126 273.6513,-126 270.6513,-122 186.3487,-122 186.3487,-86 297.6513,-86 297.6513,-122"/>
<text text-anchor="middle" x="242" y="-99.8" font-family="Times,serif" font-size="14.00" fill="#000000">MatInputModule</text>
</g>
<!-- MatInputModule&#45;&gt;LoginPageModule -->
<g id="edge7" class="edge">
<title>MatInputModule&#45;&gt;LoginPageModule</title>
<path fill="none" stroke="#000000" d="M242,-122.1061C242,-141.3391 242,-169 242,-169 242,-169 543.8183,-169 543.8183,-169"/>
<polygon fill="#000000" stroke="#000000" points="543.8184,-172.5001 553.8183,-169 543.8183,-165.5001 543.8184,-172.5001"/>
</g>
<!-- ReactiveFormsModule -->
<g id="node9" class="node">
<title>ReactiveFormsModule</title>
<polygon fill="#8dd3c7" stroke="#000000" points="168.3047,-122 165.3047,-126 144.3047,-126 141.3047,-122 23.6953,-122 23.6953,-86 168.3047,-86 168.3047,-122"/>
<text text-anchor="middle" x="96" y="-99.8" font-family="Times,serif" font-size="14.00" fill="#000000">ReactiveFormsModule</text>
</g>
<!-- ReactiveFormsModule&#45;&gt;LoginPageModule -->
<g id="edge8" class="edge">
<title>ReactiveFormsModule&#45;&gt;LoginPageModule</title>
<path fill="none" stroke="#000000" d="M96,-122.2921C96,-144.2057 96,-178 96,-178 96,-178 543.8191,-178 543.8191,-178"/>
<polygon fill="#000000" stroke="#000000" points="543.8192,-181.5001 553.8191,-178 543.8191,-174.5001 543.8192,-181.5001"/>
</g>
</g>
</svg>
