<?xml version="1.0" encoding="UTF-8" standalone="no"?>
<!DOCTYPE svg PUBLIC "-//W3C//DTD SVG 1.1//EN"
 "http://www.w3.org/Graphics/SVG/1.1/DTD/svg11.dtd">
<!-- Generated by graphviz version 2.40.1 (20161225.0304)
 -->
<!-- Title: dependencies Pages: 1 -->
<svg width="776pt" height="284pt"
 viewBox="0.00 0.00 776.00 284.00" xmlns="http://www.w3.org/2000/svg" xmlns:xlink="http://www.w3.org/1999/xlink">
<g id="graph0" class="graph" transform="scale(1 1) rotate(0) translate(4 280)">
<title>dependencies</title>
<polygon fill="#ffffff" stroke="transparent" points="-4,4 -4,-280 772,-280 772,4 -4,4"/>
<text text-anchor="start" x="363.0091" y="-42.4" font-family="sans-serif" font-weight="bold" font-size="14.00" fill="#000000">Legend</text>
<polygon fill="#ffffb3" stroke="transparent" points="150,-10 150,-30 170,-30 170,-10 150,-10"/>
<text text-anchor="start" x="173.629" y="-15.4" font-family="sans-serif" font-size="14.00" fill="#000000"> &#160;Declarations</text>
<polygon fill="#8dd3c7" stroke="transparent" points="263,-10 263,-30 283,-30 283,-10 263,-10"/>
<text text-anchor="start" x="286.7251" y="-15.4" font-family="sans-serif" font-size="14.00" fill="#000000"> &#160;Module</text>
<polygon fill="#80b1d3" stroke="transparent" points="349,-10 349,-30 369,-30 369,-10 349,-10"/>
<text text-anchor="start" x="372.7812" y="-15.4" font-family="sans-serif" font-size="14.00" fill="#000000"> &#160;Bootstrap</text>
<polygon fill="#fdb462" stroke="transparent" points="446,-10 446,-30 466,-30 466,-10 446,-10"/>
<text text-anchor="start" x="469.6732" y="-15.4" font-family="sans-serif" font-size="14.00" fill="#000000"> &#160;Providers</text>
<polygon fill="#fb8072" stroke="transparent" points="542,-10 542,-30 562,-30 562,-10 542,-10"/>
<text text-anchor="start" x="565.7258" y="-15.4" font-family="sans-serif" font-size="14.00" fill="#000000"> &#160;Exports</text>
<g id="clust1" class="cluster">
<title>cluster_CaptchaComponentModule</title>
<polygon fill="none" stroke="#000000" stroke-dasharray="1,5" points="8,-70 8,-268 760,-268 760,-70 8,-70"/>
</g>
<g id="clust2" class="cluster">
<title>cluster_CaptchaComponentModule_declarations</title>
<polygon fill="none" stroke="#000000" points="608,-78 608,-130 752,-130 752,-78 608,-78"/>
</g>
<g id="clust4" class="cluster">
<title>cluster_CaptchaComponentModule_imports</title>
<polygon fill="none" stroke="#000000" points="466,-78 466,-130 600,-130 600,-78 466,-78"/>
</g>
<g id="clust5" class="cluster">
<title>cluster_CaptchaComponentModule_exports</title>
<polygon fill="none" stroke="#000000" points="460,-208 460,-260 606,-260 606,-208 460,-208"/>
</g>
<g id="clust7" class="cluster">
<title>cluster_CaptchaComponentModule_providers</title>
<polygon fill="none" stroke="#000000" points="16,-78 16,-130 458,-130 458,-78 16,-78"/>
</g>
<!-- CaptchaComponent -->
<g id="node1" class="node">
<title>CaptchaComponent</title>
<polygon fill="#ffffb3" stroke="#000000" points="743.7036,-122 616.2964,-122 616.2964,-86 743.7036,-86 743.7036,-122"/>
<text text-anchor="middle" x="680" y="-99.8" font-family="Times,serif" font-size="14.00" fill="#000000">CaptchaComponent</text>
</g>
<!-- CaptchaComponentModule -->
<g id="node2" class="node">
<title>CaptchaComponentModule</title>
<polygon fill="#8dd3c7" stroke="#000000" points="618.2534,-187 615.2534,-191 594.2534,-191 591.2534,-187 447.7466,-187 447.7466,-151 618.2534,-151 618.2534,-187"/>
<text text-anchor="middle" x="533" y="-164.8" font-family="Times,serif" font-size="14.00" fill="#000000">CaptchaComponentModule</text>
</g>
<!-- CaptchaComponent&#45;&gt;CaptchaComponentModule -->
<g id="edge1" class="edge">
<title>CaptchaComponent&#45;&gt;CaptchaComponentModule</title>
<path fill="none" stroke="#000000" d="M616.3464,-104C609.0508,-104 604.1617,-104 604.1617,-104 604.1617,-104 604.1617,-140.8939 604.1617,-140.8939"/>
<polygon fill="#000000" stroke="#000000" points="600.6617,-140.8938 604.1617,-150.8939 607.6617,-140.8939 600.6617,-140.8938"/>
</g>
<!-- CaptchaComponent  -->
<g id="node4" class="node">
<title>CaptchaComponent </title>
<polygon fill="#fb8072" stroke="#000000" points="598.2037,-252 467.7963,-252 467.7963,-216 598.2037,-216 598.2037,-252"/>
<text text-anchor="middle" x="533" y="-229.8" font-family="Times,serif" font-size="14.00" fill="#000000">CaptchaComponent </text>
</g>
<!-- CaptchaComponentModule&#45;&gt;CaptchaComponent  -->
<g id="edge3" class="edge">
<title>CaptchaComponentModule&#45;&gt;CaptchaComponent </title>
<path fill="none" stroke="#000000" stroke-dasharray="5,2" d="M533,-187.1061C533,-187.1061 533,-205.991 533,-205.991"/>
<polygon fill="#000000" stroke="#000000" points="529.5001,-205.9909 533,-215.991 536.5001,-205.991 529.5001,-205.9909"/>
</g>
<!-- RecaptchaModule -->
<g id="node3" class="node">
<title>RecaptchaModule</title>
<polygon fill="#8dd3c7" stroke="#000000" points="591.8501,-122 588.8501,-126 567.8501,-126 564.8501,-122 474.1499,-122 474.1499,-86 591.8501,-86 591.8501,-122"/>
<text text-anchor="middle" x="533" y="-99.8" font-family="Times,serif" font-size="14.00" fill="#000000">RecaptchaModule</text>
</g>
<!-- RecaptchaModule&#45;&gt;CaptchaComponentModule -->
<g id="edge2" class="edge">
<title>RecaptchaModule&#45;&gt;CaptchaComponentModule</title>
<path fill="none" stroke="#000000" d="M533,-122.1061C533,-122.1061 533,-140.991 533,-140.991"/>
<polygon fill="#000000" stroke="#000000" points="529.5001,-140.9909 533,-150.991 536.5001,-140.991 529.5001,-140.9909"/>
</g>
<!-- { provide: RECAPTCHA_SETTINGS, useValue: &#160;} -->
<g id="node5" class="node">
<title>{ provide: RECAPTCHA_SETTINGS, useValue: &#160;}</title>
<ellipse fill="#fdb462" stroke="#000000" cx="237" cy="-104" rx="213.3149" ry="18"/>
<text text-anchor="middle" x="237" y="-99.8" font-family="Times,serif" font-size="14.00" fill="#000000">{ provide: RECAPTCHA_SETTINGS, useValue: &#160;}</text>
</g>
<!-- { provide: RECAPTCHA_SETTINGS, useValue: &#160;}&#45;&gt;CaptchaComponentModule -->
<g id="edge4" class="edge">
<title>{ provide: RECAPTCHA_SETTINGS, useValue: &#160;}&#45;&gt;CaptchaComponentModule</title>
<path fill="none" stroke="#000000" d="M450.4484,-104C457.9099,-104 462.2412,-104 462.2412,-104 462.2412,-104 462.2412,-140.8939 462.2412,-140.8939"/>
<polygon fill="#000000" stroke="#000000" points="458.7413,-140.8938 462.2412,-150.8939 465.7413,-140.8939 458.7413,-140.8938"/>
</g>
</g>
</svg>
