<?xml version="1.0" encoding="UTF-8" standalone="no"?>
<!DOCTYPE svg PUBLIC "-//W3C//DTD SVG 1.1//EN"
 "http://www.w3.org/Graphics/SVG/1.1/DTD/svg11.dtd">
<!-- Generated by graphviz version 2.40.1 (20161225.0304)
 -->
<!-- Title: dependencies Pages: 1 -->
<svg width="504pt" height="211pt"
 viewBox="0.00 0.00 504.00 211.00" xmlns="http://www.w3.org/2000/svg" xmlns:xlink="http://www.w3.org/1999/xlink">
<g id="graph0" class="graph" transform="scale(1 1) rotate(0) translate(4 207)">
<title>dependencies</title>
<polygon fill="#ffffff" stroke="transparent" points="-4,4 -4,-207 500,-207 500,4 -4,4"/>
<text text-anchor="start" x="227.0091" y="-42.4" font-family="sans-serif" font-weight="bold" font-size="14.00" fill="#000000">Legend</text>
<polygon fill="#ffffb3" stroke="transparent" points="14,-10 14,-30 34,-30 34,-10 14,-10"/>
<text text-anchor="start" x="37.629" y="-15.4" font-family="sans-serif" font-size="14.00" fill="#000000"> &#160;Declarations</text>
<polygon fill="#8dd3c7" stroke="transparent" points="127,-10 127,-30 147,-30 147,-10 127,-10"/>
<text text-anchor="start" x="150.7251" y="-15.4" font-family="sans-serif" font-size="14.00" fill="#000000"> &#160;Module</text>
<polygon fill="#80b1d3" stroke="transparent" points="213,-10 213,-30 233,-30 233,-10 213,-10"/>
<text text-anchor="start" x="236.7812" y="-15.4" font-family="sans-serif" font-size="14.00" fill="#000000"> &#160;Bootstrap</text>
<polygon fill="#fdb462" stroke="transparent" points="310,-10 310,-30 330,-30 330,-10 310,-10"/>
<text text-anchor="start" x="333.6732" y="-15.4" font-family="sans-serif" font-size="14.00" fill="#000000"> &#160;Providers</text>
<polygon fill="#fb8072" stroke="transparent" points="406,-10 406,-30 426,-30 426,-10 406,-10"/>
<text text-anchor="start" x="429.7258" y="-15.4" font-family="sans-serif" font-size="14.00" fill="#000000"> &#160;Exports</text>
<g id="clust1" class="cluster">
<title>cluster_HomePageModule</title>
<polygon fill="none" stroke="#000000" stroke-dasharray="1,5" points="101,-70 101,-195 395,-195 395,-70 101,-70"/>
</g>
<g id="clust2" class="cluster">
<title>cluster_HomePageModule_declarations</title>
<polygon fill="none" stroke="#000000" points="109,-78 109,-130 387,-130 387,-78 109,-78"/>
</g>
<!-- CollapsibleListComponent -->
<g id="node1" class="node">
<title>CollapsibleListComponent</title>
<polygon fill="#ffffb3" stroke="#000000" points="379.3836,-122 212.6164,-122 212.6164,-86 379.3836,-86 379.3836,-122"/>
<text text-anchor="middle" x="296" y="-99.8" font-family="Times,serif" font-size="14.00" fill="#000000">CollapsibleListComponent</text>
</g>
<!-- HomePageModule -->
<g id="node3" class="node">
<title>HomePageModule</title>
<polygon fill="#8dd3c7" stroke="#000000" points="292.4734,-187 289.4734,-191 268.4734,-191 265.4734,-187 171.5266,-187 171.5266,-151 292.4734,-151 292.4734,-187"/>
<text text-anchor="middle" x="232" y="-164.8" font-family="Times,serif" font-size="14.00" fill="#000000">HomePageModule</text>
</g>
<!-- CollapsibleListComponent&#45;&gt;HomePageModule -->
<g id="edge1" class="edge">
<title>CollapsibleListComponent&#45;&gt;HomePageModule</title>
<path fill="none" stroke="#000000" d="M252.5225,-122.1061C252.5225,-122.1061 252.5225,-140.991 252.5225,-140.991"/>
<polygon fill="#000000" stroke="#000000" points="249.0225,-140.9909 252.5225,-150.991 256.0225,-140.991 249.0225,-140.9909"/>
</g>
<!-- HomePage -->
<g id="node2" class="node">
<title>HomePage</title>
<polygon fill="#ffffb3" stroke="#000000" points="194.9248,-122 117.0752,-122 117.0752,-86 194.9248,-86 194.9248,-122"/>
<text text-anchor="middle" x="156" y="-99.8" font-family="Times,serif" font-size="14.00" fill="#000000">HomePage</text>
</g>
<!-- HomePage&#45;&gt;HomePageModule -->
<g id="edge2" class="edge">
<title>HomePage&#45;&gt;HomePageModule</title>
<path fill="none" stroke="#000000" d="M183.1126,-122.1061C183.1126,-122.1061 183.1126,-140.991 183.1126,-140.991"/>
<polygon fill="#000000" stroke="#000000" points="179.6126,-140.9909 183.1126,-150.991 186.6126,-140.991 179.6126,-140.9909"/>
</g>
</g>
</svg>
