<?xml version="1.0" encoding="UTF-8" standalone="no"?>
<!DOCTYPE svg PUBLIC "-//W3C//DTD SVG 1.1//EN"
 "http://www.w3.org/Graphics/SVG/1.1/DTD/svg11.dtd">
<!-- Generated by graphviz version 2.40.1 (20161225.0304)
 -->
<!-- Title: dependencies Pages: 1 -->
<svg width="737pt" height="211pt"
 viewBox="0.00 0.00 737.00 211.00" xmlns="http://www.w3.org/2000/svg" xmlns:xlink="http://www.w3.org/1999/xlink">
<g id="graph0" class="graph" transform="scale(1 1) rotate(0) translate(4 207)">
<title>dependencies</title>
<polygon fill="#ffffff" stroke="transparent" points="-4,4 -4,-207 733,-207 733,4 -4,4"/>
<text text-anchor="start" x="343.5091" y="-42.4" font-family="sans-serif" font-weight="bold" font-size="14.00" fill="#000000">Legend</text>
<polygon fill="#ffffb3" stroke="transparent" points="130.5,-10 130.5,-30 150.5,-30 150.5,-10 130.5,-10"/>
<text text-anchor="start" x="154.129" y="-15.4" font-family="sans-serif" font-size="14.00" fill="#000000"> &#160;Declarations</text>
<polygon fill="#8dd3c7" stroke="transparent" points="243.5,-10 243.5,-30 263.5,-30 263.5,-10 243.5,-10"/>
<text text-anchor="start" x="267.2251" y="-15.4" font-family="sans-serif" font-size="14.00" fill="#000000"> &#160;Module</text>
<polygon fill="#80b1d3" stroke="transparent" points="329.5,-10 329.5,-30 349.5,-30 349.5,-10 329.5,-10"/>
<text text-anchor="start" x="353.2812" y="-15.4" font-family="sans-serif" font-size="14.00" fill="#000000"> &#160;Bootstrap</text>
<polygon fill="#fdb462" stroke="transparent" points="426.5,-10 426.5,-30 446.5,-30 446.5,-10 426.5,-10"/>
<text text-anchor="start" x="450.1732" y="-15.4" font-family="sans-serif" font-size="14.00" fill="#000000"> &#160;Providers</text>
<polygon fill="#fb8072" stroke="transparent" points="522.5,-10 522.5,-30 542.5,-30 542.5,-10 522.5,-10"/>
<text text-anchor="start" x="546.2258" y="-15.4" font-family="sans-serif" font-size="14.00" fill="#000000"> &#160;Exports</text>
<g id="clust1" class="cluster">
<title>cluster_AccountPageModule</title>
<polygon fill="none" stroke="#000000" stroke-dasharray="1,5" points="8,-70 8,-195 721,-195 721,-70 8,-70"/>
</g>
<g id="clust2" class="cluster">
<title>cluster_AccountPageModule_declarations</title>
<polygon fill="none" stroke="#000000" points="16,-78 16,-130 713,-130 713,-78 16,-78"/>
</g>
<!-- AccountPage -->
<g id="node1" class="node">
<title>AccountPage</title>
<polygon fill="#ffffb3" stroke="#000000" points="705.1389,-122 614.8611,-122 614.8611,-86 705.1389,-86 705.1389,-122"/>
<text text-anchor="middle" x="660" y="-99.8" font-family="Times,serif" font-size="14.00" fill="#000000">AccountPage</text>
</g>
<!-- AccountPageModule -->
<g id="node6" class="node">
<title>AccountPageModule</title>
<polygon fill="#8dd3c7" stroke="#000000" points="434.1881,-187 431.1881,-191 410.1881,-191 407.1881,-187 299.8119,-187 299.8119,-151 434.1881,-151 434.1881,-187"/>
<text text-anchor="middle" x="367" y="-164.8" font-family="Times,serif" font-size="14.00" fill="#000000">AccountPageModule</text>
</g>
<!-- AccountPage&#45;&gt;AccountPageModule -->
<g id="edge1" class="edge">
<title>AccountPage&#45;&gt;AccountPageModule</title>
<path fill="none" stroke="#000000" d="M660,-122.2843C660,-143.3211 660,-175 660,-175 660,-175 444.2201,-175 444.2201,-175"/>
<polygon fill="#000000" stroke="#000000" points="444.2202,-171.5001 434.2201,-175 444.2201,-178.5001 444.2202,-171.5001"/>
</g>
<!-- BorrowingsComponent -->
<g id="node2" class="node">
<title>BorrowingsComponent</title>
<polygon fill="#ffffb3" stroke="#000000" points="596.9326,-122 449.0674,-122 449.0674,-86 596.9326,-86 596.9326,-122"/>
<text text-anchor="middle" x="523" y="-99.8" font-family="Times,serif" font-size="14.00" fill="#000000">BorrowingsComponent</text>
</g>
<!-- BorrowingsComponent&#45;&gt;AccountPageModule -->
<g id="edge2" class="edge">
<title>BorrowingsComponent&#45;&gt;AccountPageModule</title>
<path fill="none" stroke="#000000" d="M523,-122.0225C523,-139.3734 523,-163 523,-163 523,-163 444.5166,-163 444.5166,-163"/>
<polygon fill="#000000" stroke="#000000" points="444.5166,-159.5001 434.5166,-163 444.5165,-166.5001 444.5166,-159.5001"/>
</g>
<!-- LoadingComponent -->
<g id="node3" class="node">
<title>LoadingComponent</title>
<polygon fill="#ffffb3" stroke="#000000" points="430.9902,-122 303.0098,-122 303.0098,-86 430.9902,-86 430.9902,-122"/>
<text text-anchor="middle" x="367" y="-99.8" font-family="Times,serif" font-size="14.00" fill="#000000">LoadingComponent</text>
</g>
<!-- LoadingComponent&#45;&gt;AccountPageModule -->
<g id="edge3" class="edge">
<title>LoadingComponent&#45;&gt;AccountPageModule</title>
<path fill="none" stroke="#000000" d="M367,-122.1061C367,-122.1061 367,-140.991 367,-140.991"/>
<polygon fill="#000000" stroke="#000000" points="363.5001,-140.9909 367,-150.991 370.5001,-140.991 363.5001,-140.9909"/>
</g>
<!-- PenaltyComponent -->
<g id="node4" class="node">
<title>PenaltyComponent</title>
<polygon fill="#ffffb3" stroke="#000000" points="284.8258,-122 161.1742,-122 161.1742,-86 284.8258,-86 284.8258,-122"/>
<text text-anchor="middle" x="223" y="-99.8" font-family="Times,serif" font-size="14.00" fill="#000000">PenaltyComponent</text>
</g>
<!-- PenaltyComponent&#45;&gt;AccountPageModule -->
<g id="edge4" class="edge">
<title>PenaltyComponent&#45;&gt;AccountPageModule</title>
<path fill="none" stroke="#000000" d="M223,-122.0225C223,-139.3734 223,-163 223,-163 223,-163 289.6378,-163 289.6378,-163"/>
<polygon fill="#000000" stroke="#000000" points="289.6378,-166.5001 299.6378,-163 289.6377,-159.5001 289.6378,-166.5001"/>
</g>
<!-- ProfileComponent -->
<g id="node5" class="node">
<title>ProfileComponent</title>
<polygon fill="#ffffb3" stroke="#000000" points="143.9328,-122 24.0672,-122 24.0672,-86 143.9328,-86 143.9328,-122"/>
<text text-anchor="middle" x="84" y="-99.8" font-family="Times,serif" font-size="14.00" fill="#000000">ProfileComponent</text>
</g>
<!-- ProfileComponent&#45;&gt;AccountPageModule -->
<g id="edge5" class="edge">
<title>ProfileComponent&#45;&gt;AccountPageModule</title>
<path fill="none" stroke="#000000" d="M84,-122.2843C84,-143.3211 84,-175 84,-175 84,-175 289.574,-175 289.574,-175"/>
<polygon fill="#000000" stroke="#000000" points="289.574,-178.5001 299.574,-175 289.574,-171.5001 289.574,-178.5001"/>
</g>
</g>
</svg>
