<?xml version="1.0" encoding="UTF-8" standalone="no"?>
<!DOCTYPE svg PUBLIC "-//W3C//DTD SVG 1.1//EN"
 "http://www.w3.org/Graphics/SVG/1.1/DTD/svg11.dtd">
<!-- Generated by graphviz version 2.40.1 (20161225.0304)
 -->
<!-- Title: dependencies Pages: 1 -->
<svg width="1215pt" height="211pt"
 viewBox="0.00 0.00 1215.00 211.00" xmlns="http://www.w3.org/2000/svg" xmlns:xlink="http://www.w3.org/1999/xlink">
<g id="graph0" class="graph" transform="scale(1 1) rotate(0) translate(4 207)">
<title>dependencies</title>
<polygon fill="#ffffff" stroke="transparent" points="-4,4 -4,-207 1211,-207 1211,4 -4,4"/>
<text text-anchor="start" x="582.5091" y="-42.4" font-family="sans-serif" font-weight="bold" font-size="14.00" fill="#000000">Legend</text>
<polygon fill="#ffffb3" stroke="transparent" points="369.5,-10 369.5,-30 389.5,-30 389.5,-10 369.5,-10"/>
<text text-anchor="start" x="393.129" y="-15.4" font-family="sans-serif" font-size="14.00" fill="#000000"> &#160;Declarations</text>
<polygon fill="#8dd3c7" stroke="transparent" points="482.5,-10 482.5,-30 502.5,-30 502.5,-10 482.5,-10"/>
<text text-anchor="start" x="506.2251" y="-15.4" font-family="sans-serif" font-size="14.00" fill="#000000"> &#160;Module</text>
<polygon fill="#80b1d3" stroke="transparent" points="568.5,-10 568.5,-30 588.5,-30 588.5,-10 568.5,-10"/>
<text text-anchor="start" x="592.2812" y="-15.4" font-family="sans-serif" font-size="14.00" fill="#000000"> &#160;Bootstrap</text>
<polygon fill="#fdb462" stroke="transparent" points="665.5,-10 665.5,-30 685.5,-30 685.5,-10 665.5,-10"/>
<text text-anchor="start" x="689.1732" y="-15.4" font-family="sans-serif" font-size="14.00" fill="#000000"> &#160;Providers</text>
<polygon fill="#fb8072" stroke="transparent" points="761.5,-10 761.5,-30 781.5,-30 781.5,-10 761.5,-10"/>
<text text-anchor="start" x="785.2258" y="-15.4" font-family="sans-serif" font-size="14.00" fill="#000000"> &#160;Exports</text>
<g id="clust1" class="cluster">
<title>cluster_BooksearchPageModule</title>
<polygon fill="none" stroke="#000000" stroke-dasharray="1,5" points="8,-70 8,-195 1199,-195 1199,-70 8,-70"/>
</g>
<g id="clust2" class="cluster">
<title>cluster_BooksearchPageModule_declarations</title>
<polygon fill="none" stroke="#000000" points="773,-78 773,-130 1191,-130 1191,-78 773,-78"/>
</g>
<g id="clust6" class="cluster">
<title>cluster_BooksearchPageModule_imports</title>
<polygon fill="none" stroke="#000000" points="16,-78 16,-130 765,-130 765,-78 16,-78"/>
</g>
<!-- BooksearchPage -->
<g id="node1" class="node">
<title>BooksearchPage</title>
<polygon fill="#ffffb3" stroke="#000000" points="1182.7978,-122 1073.2022,-122 1073.2022,-86 1182.7978,-86 1182.7978,-122"/>
<text text-anchor="middle" x="1128" y="-99.8" font-family="Times,serif" font-size="14.00" fill="#000000">BooksearchPage</text>
</g>
<!-- BooksearchPageModule -->
<g id="node4" class="node">
<title>BooksearchPageModule</title>
<polygon fill="#8dd3c7" stroke="#000000" points="716.3473,-187 713.3473,-191 692.3473,-191 689.3473,-187 563.6527,-187 563.6527,-151 716.3473,-151 716.3473,-187"/>
<text text-anchor="middle" x="640" y="-164.8" font-family="Times,serif" font-size="14.00" fill="#000000">BooksearchPageModule</text>
</g>
<!-- BooksearchPage&#45;&gt;BooksearchPageModule -->
<g id="edge1" class="edge">
<title>BooksearchPage&#45;&gt;BooksearchPageModule</title>
<path fill="none" stroke="#000000" d="M1128,-122.2921C1128,-144.2057 1128,-178 1128,-178 1128,-178 726.5182,-178 726.5182,-178"/>
<polygon fill="#000000" stroke="#000000" points="726.5183,-174.5001 716.5182,-178 726.5182,-181.5001 726.5183,-174.5001"/>
</g>
<!-- BookViewComponent -->
<g id="node2" class="node">
<title>BookViewComponent</title>
<polygon fill="#ffffb3" stroke="#000000" points="1054.9874,-122 913.0126,-122 913.0126,-86 1054.9874,-86 1054.9874,-122"/>
<text text-anchor="middle" x="984" y="-99.8" font-family="Times,serif" font-size="14.00" fill="#000000">BookViewComponent</text>
</g>
<!-- BookViewComponent&#45;&gt;BooksearchPageModule -->
<g id="edge2" class="edge">
<title>BookViewComponent&#45;&gt;BooksearchPageModule</title>
<path fill="none" stroke="#000000" d="M984,-122.1061C984,-141.3391 984,-169 984,-169 984,-169 726.7721,-169 726.7721,-169"/>
<polygon fill="#000000" stroke="#000000" points="726.7722,-165.5001 716.7721,-169 726.7721,-172.5001 726.7722,-165.5001"/>
</g>
<!-- BookSearchView -->
<g id="node3" class="node">
<title>BookSearchView</title>
<polygon fill="#ffffb3" stroke="#000000" points="895.2423,-122 780.7577,-122 780.7577,-86 895.2423,-86 895.2423,-122"/>
<text text-anchor="middle" x="838" y="-99.8" font-family="Times,serif" font-size="14.00" fill="#000000">BookSearchView</text>
</g>
<!-- BookSearchView&#45;&gt;BooksearchPageModule -->
<g id="edge3" class="edge">
<title>BookSearchView&#45;&gt;BooksearchPageModule</title>
<path fill="none" stroke="#000000" d="M838,-122.027C838,-138.3976 838,-160 838,-160 838,-160 726.552,-160 726.552,-160"/>
<polygon fill="#000000" stroke="#000000" points="726.552,-156.5001 716.552,-160 726.5519,-163.5001 726.552,-156.5001"/>
</g>
<!-- CommonModule -->
<g id="node5" class="node">
<title>CommonModule</title>
<polygon fill="#8dd3c7" stroke="#000000" points="756.6681,-122 753.6681,-126 732.6681,-126 729.6681,-122 645.3319,-122 645.3319,-86 756.6681,-86 756.6681,-122"/>
<text text-anchor="middle" x="701" y="-99.8" font-family="Times,serif" font-size="14.00" fill="#000000">CommonModule</text>
</g>
<!-- CommonModule&#45;&gt;BooksearchPageModule -->
<g id="edge4" class="edge">
<title>CommonModule&#45;&gt;BooksearchPageModule</title>
<path fill="none" stroke="#000000" d="M680.7949,-122.1061C680.7949,-122.1061 680.7949,-140.991 680.7949,-140.991"/>
<polygon fill="#000000" stroke="#000000" points="677.295,-140.9909 680.7949,-150.991 684.295,-140.991 677.295,-140.9909"/>
</g>
<!-- FormsModule -->
<g id="node6" class="node">
<title>FormsModule</title>
<polygon fill="#8dd3c7" stroke="#000000" points="627.8288,-122 624.8288,-126 603.8288,-126 600.8288,-122 532.1712,-122 532.1712,-86 627.8288,-86 627.8288,-122"/>
<text text-anchor="middle" x="580" y="-99.8" font-family="Times,serif" font-size="14.00" fill="#000000">FormsModule</text>
</g>
<!-- FormsModule&#45;&gt;BooksearchPageModule -->
<g id="edge5" class="edge">
<title>FormsModule&#45;&gt;BooksearchPageModule</title>
<path fill="none" stroke="#000000" d="M595.6202,-122.1061C595.6202,-122.1061 595.6202,-140.991 595.6202,-140.991"/>
<polygon fill="#000000" stroke="#000000" points="592.1203,-140.9909 595.6202,-150.991 599.1203,-140.991 592.1203,-140.9909"/>
</g>
<!-- IonicModule -->
<g id="node7" class="node">
<title>IonicModule</title>
<polygon fill="#8dd3c7" stroke="#000000" points="514.3162,-122 511.3162,-126 490.3162,-126 487.3162,-122 425.6838,-122 425.6838,-86 514.3162,-86 514.3162,-122"/>
<text text-anchor="middle" x="470" y="-99.8" font-family="Times,serif" font-size="14.00" fill="#000000">IonicModule</text>
</g>
<!-- IonicModule&#45;&gt;BooksearchPageModule -->
<g id="edge6" class="edge">
<title>IonicModule&#45;&gt;BooksearchPageModule</title>
<path fill="none" stroke="#000000" d="M470,-122.027C470,-138.3976 470,-160 470,-160 470,-160 553.4544,-160 553.4544,-160"/>
<polygon fill="#000000" stroke="#000000" points="553.4544,-163.5001 563.4544,-160 553.4543,-156.5001 553.4544,-163.5001"/>
</g>
<!-- RouterModule.forChild(args) -->
<g id="node8" class="node">
<title>RouterModule.forChild(args)</title>
<polygon fill="#8dd3c7" stroke="#000000" points="407.7323,-122 404.7323,-126 383.7323,-126 380.7323,-122 226.2677,-122 226.2677,-86 407.7323,-86 407.7323,-122"/>
<text text-anchor="middle" x="317" y="-99.8" font-family="Times,serif" font-size="14.00" fill="#000000">RouterModule.forChild(args)</text>
</g>
<!-- RouterModule.forChild(args)&#45;&gt;BooksearchPageModule -->
<g id="edge7" class="edge">
<title>RouterModule.forChild(args)&#45;&gt;BooksearchPageModule</title>
<path fill="none" stroke="#000000" d="M317,-122.1061C317,-141.3391 317,-169 317,-169 317,-169 553.4535,-169 553.4535,-169"/>
<polygon fill="#000000" stroke="#000000" points="553.4535,-172.5001 563.4535,-169 553.4535,-165.5001 553.4535,-172.5001"/>
</g>
<!-- MenuTitleComponentModule -->
<g id="node9" class="node">
<title>MenuTitleComponentModule</title>
<polygon fill="#8dd3c7" stroke="#000000" points="207.9804,-122 204.9804,-126 183.9804,-126 180.9804,-122 24.0196,-122 24.0196,-86 207.9804,-86 207.9804,-122"/>
<text text-anchor="middle" x="116" y="-99.8" font-family="Times,serif" font-size="14.00" fill="#000000">MenuTitleComponentModule</text>
</g>
<!-- MenuTitleComponentModule&#45;&gt;BooksearchPageModule -->
<g id="edge8" class="edge">
<title>MenuTitleComponentModule&#45;&gt;BooksearchPageModule</title>
<path fill="none" stroke="#000000" d="M116,-122.2921C116,-144.2057 116,-178 116,-178 116,-178 553.5255,-178 553.5255,-178"/>
<polygon fill="#000000" stroke="#000000" points="553.5255,-181.5001 563.5255,-178 553.5255,-174.5001 553.5255,-181.5001"/>
</g>
</g>
</svg>
