<?xml version="1.0" encoding="UTF-8" standalone="no"?>
<!DOCTYPE svg PUBLIC "-//W3C//DTD SVG 1.1//EN"
 "http://www.w3.org/Graphics/SVG/1.1/DTD/svg11.dtd">
<!-- Generated by graphviz version 2.40.1 (20161225.0304)
 -->
<!-- Title: dependencies Pages: 1 -->
<svg width="504pt" height="284pt"
 viewBox="0.00 0.00 504.00 284.00" xmlns="http://www.w3.org/2000/svg" xmlns:xlink="http://www.w3.org/1999/xlink">
<g id="graph0" class="graph" transform="scale(1 1) rotate(0) translate(4 280)">
<title>dependencies</title>
<polygon fill="#ffffff" stroke="transparent" points="-4,4 -4,-280 500,-280 500,4 -4,4"/>
<text text-anchor="start" x="227.0091" y="-42.4" font-family="sans-serif" font-weight="bold" font-size="14.00" fill="#000000">Legend</text>
<polygon fill="#ffffb3" stroke="transparent" points="14,-10 14,-30 34,-30 34,-10 14,-10"/>
<text text-anchor="start" x="37.629" y="-15.4" font-family="sans-serif" font-size="14.00" fill="#000000"> &#160;Declarations</text>
<polygon fill="#8dd3c7" stroke="transparent" points="127,-10 127,-30 147,-30 147,-10 127,-10"/>
<text text-anchor="start" x="150.7251" y="-15.4" font-family="sans-serif" font-size="14.00" fill="#000000"> &#160;Module</text>
<polygon fill="#80b1d3" stroke="transparent" points="213,-10 213,-30 233,-30 233,-10 213,-10"/>
<text text-anchor="start" x="236.7812" y="-15.4" font-family="sans-serif" font-size="14.00" fill="#000000"> &#160;Bootstrap</text>
<polygon fill="#fdb462" stroke="transparent" points="310,-10 310,-30 330,-30 330,-10 310,-10"/>
<text text-anchor="start" x="333.6732" y="-15.4" font-family="sans-serif" font-size="14.00" fill="#000000"> &#160;Providers</text>
<polygon fill="#fb8072" stroke="transparent" points="406,-10 406,-30 426,-30 426,-10 406,-10"/>
<text text-anchor="start" x="429.7258" y="-15.4" font-family="sans-serif" font-size="14.00" fill="#000000"> &#160;Exports</text>
<g id="clust1" class="cluster">
<title>cluster_AppModule</title>
<polygon fill="none" stroke="#000000" stroke-dasharray="1,5" points="34,-70 34,-268 462,-268 462,-70 34,-70"/>
</g>
<g id="clust2" class="cluster">
<title>cluster_AppModule_declarations</title>
<polygon fill="none" stroke="#000000" points="332,-78 332,-130 454,-130 454,-78 332,-78"/>
</g>
<g id="clust4" class="cluster">
<title>cluster_AppModule_imports</title>
<polygon fill="none" stroke="#000000" points="180,-78 180,-130 324,-130 324,-78 180,-78"/>
</g>
<g id="clust6" class="cluster">
<title>cluster_AppModule_bootstrap</title>
<polygon fill="none" stroke="#000000" points="190,-208 190,-260 314,-260 314,-208 190,-208"/>
</g>
<g id="clust7" class="cluster">
<title>cluster_AppModule_providers</title>
<polygon fill="none" stroke="#000000" points="42,-78 42,-130 172,-130 172,-78 42,-78"/>
</g>
<!-- AppComponent -->
<g id="node1" class="node">
<title>AppComponent</title>
<polygon fill="#ffffb3" stroke="#000000" points="445.9399,-122 340.0601,-122 340.0601,-86 445.9399,-86 445.9399,-122"/>
<text text-anchor="middle" x="393" y="-99.8" font-family="Times,serif" font-size="14.00" fill="#000000">AppComponent</text>
</g>
<!-- AppModule -->
<g id="node2" class="node">
<title>AppModule</title>
<polygon fill="#8dd3c7" stroke="#000000" points="293.6571,-187 290.6571,-191 269.6571,-191 266.6571,-187 210.3429,-187 210.3429,-151 293.6571,-151 293.6571,-187"/>
<text text-anchor="middle" x="252" y="-164.8" font-family="Times,serif" font-size="14.00" fill="#000000">AppModule</text>
</g>
<!-- AppComponent&#45;&gt;AppModule -->
<g id="edge1" class="edge">
<title>AppComponent&#45;&gt;AppModule</title>
<path fill="none" stroke="#000000" d="M393,-122.1061C393,-141.3391 393,-169 393,-169 393,-169 303.9229,-169 303.9229,-169"/>
<polygon fill="#000000" stroke="#000000" points="303.9229,-165.5001 293.9229,-169 303.9229,-172.5001 303.9229,-165.5001"/>
</g>
<!-- AppComponent  -->
<g id="node4" class="node">
<title>AppComponent </title>
<polygon fill="#80b1d3" stroke="#000000" points="306.439,-252 197.561,-252 197.561,-216 306.439,-216 306.439,-252"/>
<text text-anchor="middle" x="252" y="-229.8" font-family="Times,serif" font-size="14.00" fill="#000000">AppComponent </text>
</g>
<!-- AppModule&#45;&gt;AppComponent  -->
<g id="edge3" class="edge">
<title>AppModule&#45;&gt;AppComponent </title>
<path fill="none" stroke="#000000" stroke-dasharray="1,5" d="M252,-187.1061C252,-187.1061 252,-205.991 252,-205.991"/>
<polygon fill="#000000" stroke="#000000" points="248.5001,-205.9909 252,-215.991 255.5001,-205.991 248.5001,-205.9909"/>
</g>
<!-- AppRoutingModule -->
<g id="node3" class="node">
<title>AppRoutingModule</title>
<polygon fill="#8dd3c7" stroke="#000000" points="316.2744,-122 313.2744,-126 292.2744,-126 289.2744,-122 187.7256,-122 187.7256,-86 316.2744,-86 316.2744,-122"/>
<text text-anchor="middle" x="252" y="-99.8" font-family="Times,serif" font-size="14.00" fill="#000000">AppRoutingModule</text>
</g>
<!-- AppRoutingModule&#45;&gt;AppModule -->
<g id="edge2" class="edge">
<title>AppRoutingModule&#45;&gt;AppModule</title>
<path fill="none" stroke="#000000" d="M252,-122.1061C252,-122.1061 252,-140.991 252,-140.991"/>
<polygon fill="#000000" stroke="#000000" points="248.5001,-140.9909 252,-150.991 255.5001,-140.991 248.5001,-140.9909"/>
</g>
<!-- FcmService -->
<g id="node5" class="node">
<title>FcmService</title>
<ellipse fill="#fdb462" stroke="#000000" cx="107" cy="-104" rx="57.3185" ry="18"/>
<text text-anchor="middle" x="107" y="-99.8" font-family="Times,serif" font-size="14.00" fill="#000000">FcmService</text>
</g>
<!-- FcmService&#45;&gt;AppModule -->
<g id="edge4" class="edge">
<title>FcmService&#45;&gt;AppModule</title>
<path fill="none" stroke="#000000" d="M107,-122.1061C107,-141.3391 107,-169 107,-169 107,-169 200.06,-169 200.06,-169"/>
<polygon fill="#000000" stroke="#000000" points="200.06,-172.5001 210.06,-169 200.06,-165.5001 200.06,-172.5001"/>
</g>
</g>
</svg>
