<?xml version="1.0" encoding="UTF-8" standalone="no"?>
<!DOCTYPE svg PUBLIC "-//W3C//DTD SVG 1.1//EN"
 "http://www.w3.org/Graphics/SVG/1.1/DTD/svg11.dtd">
<!-- Generated by graphviz version 2.40.1 (20161225.0304)
 -->
<!-- Title: dependencies Pages: 1 -->
<svg width="3843pt" height="284pt"
 viewBox="0.00 0.00 3843.00 284.00" xmlns="http://www.w3.org/2000/svg" xmlns:xlink="http://www.w3.org/1999/xlink">
<g id="graph0" class="graph" transform="scale(1 1) rotate(0) translate(4 280)">
<title>dependencies</title>
<polygon fill="#ffffff" stroke="transparent" points="-4,4 -4,-280 3839,-280 3839,4 -4,4"/>
<text text-anchor="start" x="1896.5091" y="-42.4" font-family="sans-serif" font-weight="bold" font-size="14.00" fill="#000000">Legend</text>
<polygon fill="#ffffb3" stroke="transparent" points="1683.5,-10 1683.5,-30 1703.5,-30 1703.5,-10 1683.5,-10"/>
<text text-anchor="start" x="1707.129" y="-15.4" font-family="sans-serif" font-size="14.00" fill="#000000"> &#160;Declarations</text>
<polygon fill="#8dd3c7" stroke="transparent" points="1796.5,-10 1796.5,-30 1816.5,-30 1816.5,-10 1796.5,-10"/>
<text text-anchor="start" x="1820.2251" y="-15.4" font-family="sans-serif" font-size="14.00" fill="#000000"> &#160;Module</text>
<polygon fill="#80b1d3" stroke="transparent" points="1882.5,-10 1882.5,-30 1902.5,-30 1902.5,-10 1882.5,-10"/>
<text text-anchor="start" x="1906.2812" y="-15.4" font-family="sans-serif" font-size="14.00" fill="#000000"> &#160;Bootstrap</text>
<polygon fill="#fdb462" stroke="transparent" points="1979.5,-10 1979.5,-30 1999.5,-30 1999.5,-10 1979.5,-10"/>
<text text-anchor="start" x="2003.1732" y="-15.4" font-family="sans-serif" font-size="14.00" fill="#000000"> &#160;Providers</text>
<polygon fill="#fb8072" stroke="transparent" points="2075.5,-10 2075.5,-30 2095.5,-30 2095.5,-10 2075.5,-10"/>
<text text-anchor="start" x="2099.2258" y="-15.4" font-family="sans-serif" font-size="14.00" fill="#000000"> &#160;Exports</text>
<g id="clust1" class="cluster">
<title>cluster_AppModule</title>
<polygon fill="none" stroke="#000000" stroke-dasharray="1,5" points="8,-70 8,-268 3827,-268 3827,-70 8,-70"/>
</g>
<g id="clust2" class="cluster">
<title>cluster_AppModule_declarations</title>
<polygon fill="none" stroke="#000000" points="3697,-78 3697,-130 3819,-130 3819,-78 3697,-78"/>
</g>
<g id="clust4" class="cluster">
<title>cluster_AppModule_imports</title>
<polygon fill="none" stroke="#000000" points="1462,-78 1462,-130 3689,-130 3689,-78 1462,-78"/>
</g>
<g id="clust6" class="cluster">
<title>cluster_AppModule_bootstrap</title>
<polygon fill="none" stroke="#000000" points="2015,-208 2015,-260 2139,-260 2139,-208 2015,-208"/>
</g>
<g id="clust7" class="cluster">
<title>cluster_AppModule_providers</title>
<polygon fill="none" stroke="#000000" points="16,-78 16,-130 1454,-130 1454,-78 16,-78"/>
</g>
<!-- AppComponent -->
<g id="node1" class="node">
<title>AppComponent</title>
<polygon fill="#ffffb3" stroke="#000000" points="3810.9399,-122 3705.0601,-122 3705.0601,-86 3810.9399,-86 3810.9399,-122"/>
<text text-anchor="middle" x="3758" y="-99.8" font-family="Times,serif" font-size="14.00" fill="#000000">AppComponent</text>
</g>
<!-- AppModule -->
<g id="node2" class="node">
<title>AppModule</title>
<polygon fill="#8dd3c7" stroke="#000000" points="2118.6571,-187 2115.6571,-191 2094.6571,-191 2091.6571,-187 2035.3429,-187 2035.3429,-151 2118.6571,-151 2118.6571,-187"/>
<text text-anchor="middle" x="2077" y="-164.8" font-family="Times,serif" font-size="14.00" fill="#000000">AppModule</text>
</g>
<!-- AppComponent&#45;&gt;AppModule -->
<g id="edge1" class="edge">
<title>AppComponent&#45;&gt;AppModule</title>
<path fill="none" stroke="#000000" d="M3758,-122.1532C3758,-145.7566 3758,-184 3758,-184 3758,-184 2128.9724,-184 2128.9724,-184"/>
<polygon fill="#000000" stroke="#000000" points="2128.9725,-180.5001 2118.9724,-184 2128.9724,-187.5001 2128.9725,-180.5001"/>
</g>
<!-- AppComponent  -->
<g id="node15" class="node">
<title>AppComponent </title>
<polygon fill="#80b1d3" stroke="#000000" points="2131.439,-252 2022.561,-252 2022.561,-216 2131.439,-216 2131.439,-252"/>
<text text-anchor="middle" x="2077" y="-229.8" font-family="Times,serif" font-size="14.00" fill="#000000">AppComponent </text>
</g>
<!-- AppModule&#45;&gt;AppComponent  -->
<g id="edge14" class="edge">
<title>AppModule&#45;&gt;AppComponent </title>
<path fill="none" stroke="#000000" stroke-dasharray="1,5" d="M2077,-187.1061C2077,-187.1061 2077,-205.991 2077,-205.991"/>
<polygon fill="#000000" stroke="#000000" points="2073.5001,-205.9909 2077,-215.991 2080.5001,-205.991 2073.5001,-205.9909"/>
</g>
<!-- BrowserModule -->
<g id="node3" class="node">
<title>BrowserModule</title>
<polygon fill="#8dd3c7" stroke="#000000" points="3681.4734,-122 3678.4734,-126 3657.4734,-126 3654.4734,-122 3574.5266,-122 3574.5266,-86 3681.4734,-86 3681.4734,-122"/>
<text text-anchor="middle" x="3628" y="-99.8" font-family="Times,serif" font-size="14.00" fill="#000000">BrowserModule</text>
</g>
<!-- BrowserModule&#45;&gt;AppModule -->
<g id="edge2" class="edge">
<title>BrowserModule&#45;&gt;AppModule</title>
<path fill="none" stroke="#000000" d="M3628,-122.0109C3628,-144.4852 3628,-180 3628,-180 3628,-180 2128.8868,-180 2128.8868,-180"/>
<polygon fill="#000000" stroke="#000000" points="2128.8868,-176.5001 2118.8868,-180 2128.8868,-183.5001 2128.8868,-176.5001"/>
</g>
<!-- IonicModule.forRoot() -->
<g id="node4" class="node">
<title>IonicModule.forRoot()</title>
<polygon fill="#8dd3c7" stroke="#000000" points="3556.1855,-122 3553.1855,-126 3532.1855,-126 3529.1855,-122 3411.8145,-122 3411.8145,-86 3556.1855,-86 3556.1855,-122"/>
<text text-anchor="middle" x="3484" y="-99.8" font-family="Times,serif" font-size="14.00" fill="#000000">IonicModule.forRoot()</text>
</g>
<!-- IonicModule.forRoot()&#45;&gt;AppModule -->
<g id="edge3" class="edge">
<title>IonicModule.forRoot()&#45;&gt;AppModule</title>
<path fill="none" stroke="#000000" d="M3484,-122.0449C3484,-143.6623 3484,-177 3484,-177 3484,-177 2128.727,-177 2128.727,-177"/>
<polygon fill="#000000" stroke="#000000" points="2128.727,-173.5001 2118.727,-177 2128.7269,-180.5001 2128.727,-173.5001"/>
</g>
<!-- RecaptchaModule.forRoot() -->
<g id="node5" class="node">
<title>RecaptchaModule.forRoot()</title>
<polygon fill="#8dd3c7" stroke="#000000" points="3394.2197,-122 3391.2197,-126 3370.2197,-126 3367.2197,-122 3219.7803,-122 3219.7803,-86 3394.2197,-86 3394.2197,-122"/>
<text text-anchor="middle" x="3307" y="-99.8" font-family="Times,serif" font-size="14.00" fill="#000000">RecaptchaModule.forRoot()</text>
</g>
<!-- RecaptchaModule.forRoot()&#45;&gt;AppModule -->
<g id="edge4" class="edge">
<title>RecaptchaModule.forRoot()&#45;&gt;AppModule</title>
<path fill="none" stroke="#000000" d="M3307,-122.1289C3307,-142.5724 3307,-173 3307,-173 3307,-173 2128.9836,-173 2128.9836,-173"/>
<polygon fill="#000000" stroke="#000000" points="2128.9836,-169.5001 2118.9836,-173 2128.9835,-176.5001 2128.9836,-169.5001"/>
</g>
<!-- AppRoutingModule -->
<g id="node6" class="node">
<title>AppRoutingModule</title>
<polygon fill="#8dd3c7" stroke="#000000" points="3202.2744,-122 3199.2744,-126 3178.2744,-126 3175.2744,-122 3073.7256,-122 3073.7256,-86 3202.2744,-86 3202.2744,-122"/>
<text text-anchor="middle" x="3138" y="-99.8" font-family="Times,serif" font-size="14.00" fill="#000000">AppRoutingModule</text>
</g>
<!-- AppRoutingModule&#45;&gt;AppModule -->
<g id="edge5" class="edge">
<title>AppRoutingModule&#45;&gt;AppModule</title>
<path fill="none" stroke="#000000" d="M3138,-122.1061C3138,-141.3391 3138,-169 3138,-169 3138,-169 2128.9192,-169 2128.9192,-169"/>
<polygon fill="#000000" stroke="#000000" points="2128.9193,-165.5001 2118.9192,-169 2128.9192,-172.5001 2128.9193,-165.5001"/>
</g>
<!-- BrowserAnimationsModule -->
<g id="node7" class="node">
<title>BrowserAnimationsModule</title>
<polygon fill="#8dd3c7" stroke="#000000" points="3055.3019,-122 3052.3019,-126 3031.3019,-126 3028.3019,-122 2882.6981,-122 2882.6981,-86 3055.3019,-86 3055.3019,-122"/>
<text text-anchor="middle" x="2969" y="-99.8" font-family="Times,serif" font-size="14.00" fill="#000000">BrowserAnimationsModule</text>
</g>
<!-- BrowserAnimationsModule&#45;&gt;AppModule -->
<g id="edge6" class="edge">
<title>BrowserAnimationsModule&#45;&gt;AppModule</title>
<path fill="none" stroke="#000000" d="M2969,-122.2667C2969,-140.5552 2969,-166 2969,-166 2969,-166 2128.8266,-166 2128.8266,-166"/>
<polygon fill="#000000" stroke="#000000" points="2128.8266,-162.5001 2118.8266,-166 2128.8266,-169.5001 2128.8266,-162.5001"/>
</g>
<!-- ReactiveFormsModule -->
<g id="node8" class="node">
<title>ReactiveFormsModule</title>
<polygon fill="#8dd3c7" stroke="#000000" points="2865.3047,-122 2862.3047,-126 2841.3047,-126 2838.3047,-122 2720.6953,-122 2720.6953,-86 2865.3047,-86 2865.3047,-122"/>
<text text-anchor="middle" x="2793" y="-99.8" font-family="Times,serif" font-size="14.00" fill="#000000">ReactiveFormsModule</text>
</g>
<!-- ReactiveFormsModule&#45;&gt;AppModule -->
<g id="edge7" class="edge">
<title>ReactiveFormsModule&#45;&gt;AppModule</title>
<path fill="none" stroke="#000000" d="M2793,-122.0336C2793,-139.0597 2793,-162 2793,-162 2793,-162 2128.8526,-162 2128.8526,-162"/>
<polygon fill="#000000" stroke="#000000" points="2128.8527,-158.5001 2118.8526,-162 2128.8526,-165.5001 2128.8527,-158.5001"/>
</g>
<!-- AngularFireModule.initializeApp(args) -->
<g id="node9" class="node">
<title>AngularFireModule.initializeApp(args)</title>
<polygon fill="#8dd3c7" stroke="#000000" points="2702.7057,-122 2699.7057,-126 2678.7057,-126 2675.7057,-122 2465.2943,-122 2465.2943,-86 2702.7057,-86 2702.7057,-122"/>
<text text-anchor="middle" x="2584" y="-99.8" font-family="Times,serif" font-size="14.00" fill="#000000">AngularFireModule.initializeApp(args)</text>
</g>
<!-- AngularFireModule.initializeApp(args)&#45;&gt;AppModule -->
<g id="edge8" class="edge">
<title>AngularFireModule.initializeApp(args)&#45;&gt;AppModule</title>
<path fill="none" stroke="#000000" d="M2584,-122.0091C2584,-138.0494 2584,-159 2584,-159 2584,-159 2128.9213,-159 2128.9213,-159"/>
<polygon fill="#000000" stroke="#000000" points="2128.9213,-155.5001 2118.9213,-159 2128.9212,-162.5001 2128.9213,-155.5001"/>
</g>
<!-- AngularFireAuthModule -->
<g id="node10" class="node">
<title>AngularFireAuthModule</title>
<polygon fill="#8dd3c7" stroke="#000000" points="2446.9678,-122 2443.9678,-126 2422.9678,-126 2419.9678,-122 2291.0322,-122 2291.0322,-86 2446.9678,-86 2446.9678,-122"/>
<text text-anchor="middle" x="2369" y="-99.8" font-family="Times,serif" font-size="14.00" fill="#000000">AngularFireAuthModule</text>
</g>
<!-- AngularFireAuthModule&#45;&gt;AppModule -->
<g id="edge9" class="edge">
<title>AngularFireAuthModule&#45;&gt;AppModule</title>
<path fill="none" stroke="#000000" d="M2369,-122.1243C2369,-136.7832 2369,-155 2369,-155 2369,-155 2128.8365,-155 2128.8365,-155"/>
<polygon fill="#000000" stroke="#000000" points="2128.8365,-151.5001 2118.8365,-155 2128.8364,-158.5001 2128.8365,-151.5001"/>
</g>
<!-- AngularFireMessagingModule -->
<g id="node11" class="node">
<title>AngularFireMessagingModule</title>
<polygon fill="#8dd3c7" stroke="#000000" points="2273.1246,-122 2270.1246,-126 2249.1246,-126 2246.1246,-122 2084.8754,-122 2084.8754,-86 2273.1246,-86 2273.1246,-122"/>
<text text-anchor="middle" x="2179" y="-99.8" font-family="Times,serif" font-size="14.00" fill="#000000">AngularFireMessagingModule</text>
</g>
<!-- AngularFireMessagingModule&#45;&gt;AppModule -->
<g id="edge10" class="edge">
<title>AngularFireMessagingModule&#45;&gt;AppModule</title>
<path fill="none" stroke="#000000" d="M2101.7581,-122.1061C2101.7581,-122.1061 2101.7581,-140.991 2101.7581,-140.991"/>
<polygon fill="#000000" stroke="#000000" points="2098.2581,-140.9909 2101.7581,-150.991 2105.2581,-140.991 2098.2581,-140.9909"/>
</g>
<!-- AngularFireFunctionsModule -->
<g id="node12" class="node">
<title>AngularFireFunctionsModule</title>
<polygon fill="#8dd3c7" stroke="#000000" points="2066.6937,-122 2063.6937,-126 2042.6937,-126 2039.6937,-122 1883.3063,-122 1883.3063,-86 2066.6937,-86 2066.6937,-122"/>
<text text-anchor="middle" x="1975" y="-99.8" font-family="Times,serif" font-size="14.00" fill="#000000">AngularFireFunctionsModule</text>
</g>
<!-- AngularFireFunctionsModule&#45;&gt;AppModule -->
<g id="edge11" class="edge">
<title>AngularFireFunctionsModule&#45;&gt;AppModule</title>
<path fill="none" stroke="#000000" d="M2050.8843,-122.1061C2050.8843,-122.1061 2050.8843,-140.991 2050.8843,-140.991"/>
<polygon fill="#000000" stroke="#000000" points="2047.3844,-140.9909 2050.8843,-150.991 2054.3844,-140.991 2047.3844,-140.9909"/>
</g>
<!-- AngularFirestoreModule -->
<g id="node13" class="node">
<title>AngularFirestoreModule</title>
<polygon fill="#8dd3c7" stroke="#000000" points="1865.6811,-122 1862.6811,-126 1841.6811,-126 1838.6811,-122 1710.3189,-122 1710.3189,-86 1865.6811,-86 1865.6811,-122"/>
<text text-anchor="middle" x="1788" y="-99.8" font-family="Times,serif" font-size="14.00" fill="#000000">AngularFirestoreModule</text>
</g>
<!-- AngularFirestoreModule&#45;&gt;AppModule -->
<g id="edge12" class="edge">
<title>AngularFirestoreModule&#45;&gt;AppModule</title>
<path fill="none" stroke="#000000" d="M1788,-122.1243C1788,-136.7832 1788,-155 1788,-155 1788,-155 2025.2856,-155 2025.2856,-155"/>
<polygon fill="#000000" stroke="#000000" points="2025.2856,-158.5001 2035.2856,-155 2025.2855,-151.5001 2025.2856,-158.5001"/>
</g>
<!-- ServiceWorkerModule.register(args) -->
<g id="node14" class="node">
<title>ServiceWorkerModule.register(args)</title>
<polygon fill="#8dd3c7" stroke="#000000" points="1692.3954,-122 1689.3954,-126 1668.3954,-126 1665.3954,-122 1469.6046,-122 1469.6046,-86 1692.3954,-86 1692.3954,-122"/>
<text text-anchor="middle" x="1581" y="-99.8" font-family="Times,serif" font-size="14.00" fill="#000000">ServiceWorkerModule.register(args)</text>
</g>
<!-- ServiceWorkerModule.register(args)&#45;&gt;AppModule -->
<g id="edge13" class="edge">
<title>ServiceWorkerModule.register(args)&#45;&gt;AppModule</title>
<path fill="none" stroke="#000000" d="M1581,-122.0091C1581,-138.0494 1581,-159 1581,-159 1581,-159 2025.1388,-159 2025.1388,-159"/>
<polygon fill="#000000" stroke="#000000" points="2025.1388,-162.5001 2035.1388,-159 2025.1388,-155.5001 2025.1388,-162.5001"/>
</g>
<!-- StatusBar -->
<g id="node16" class="node">
<title>StatusBar</title>
<ellipse fill="#fdb462" stroke="#000000" cx="1397" cy="-104" rx="48.6694" ry="18"/>
<text text-anchor="middle" x="1397" y="-99.8" font-family="Times,serif" font-size="14.00" fill="#000000">StatusBar</text>
</g>
<!-- StatusBar&#45;&gt;AppModule -->
<g id="edge15" class="edge">
<title>StatusBar&#45;&gt;AppModule</title>
<path fill="none" stroke="#000000" d="M1397,-122.0336C1397,-139.0597 1397,-162 1397,-162 1397,-162 2025.2317,-162 2025.2317,-162"/>
<polygon fill="#000000" stroke="#000000" points="2025.2317,-165.5001 2035.2317,-162 2025.2317,-158.5001 2025.2317,-165.5001"/>
</g>
<!-- SplashScreen -->
<g id="node17" class="node">
<title>SplashScreen</title>
<ellipse fill="#fdb462" stroke="#000000" cx="1267" cy="-104" rx="63.1189" ry="18"/>
<text text-anchor="middle" x="1267" y="-99.8" font-family="Times,serif" font-size="14.00" fill="#000000">SplashScreen</text>
</g>
<!-- SplashScreen&#45;&gt;AppModule -->
<g id="edge16" class="edge">
<title>SplashScreen&#45;&gt;AppModule</title>
<path fill="none" stroke="#000000" d="M1267,-122.2667C1267,-140.5552 1267,-166 1267,-166 1267,-166 2025.1565,-166 2025.1565,-166"/>
<polygon fill="#000000" stroke="#000000" points="2025.1566,-169.5001 2035.1565,-166 2025.1565,-162.5001 2025.1566,-169.5001"/>
</g>
<!-- { provide: RouteReuseStrategy, useClass: IonicRouteStrategy } -->
<g id="node18" class="node">
<title>{ provide: RouteReuseStrategy, useClass: IonicRouteStrategy }</title>
<ellipse fill="#fdb462" stroke="#000000" cx="929" cy="-104" rx="257.2723" ry="18"/>
<text text-anchor="middle" x="929" y="-99.8" font-family="Times,serif" font-size="14.00" fill="#000000">{ provide: RouteReuseStrategy, useClass: IonicRouteStrategy }</text>
</g>
<!-- { provide: RouteReuseStrategy, useClass: IonicRouteStrategy }&#45;&gt;AppModule -->
<g id="edge17" class="edge">
<title>{ provide: RouteReuseStrategy, useClass: IonicRouteStrategy }&#45;&gt;AppModule</title>
<path fill="none" stroke="#000000" d="M929,-122.1061C929,-141.3391 929,-169 929,-169 929,-169 2025.1229,-169 2025.1229,-169"/>
<polygon fill="#000000" stroke="#000000" points="2025.1229,-172.5001 2035.1229,-169 2025.1228,-165.5001 2025.1229,-172.5001"/>
</g>
<!-- FcmService -->
<g id="node19" class="node">
<title>FcmService</title>
<ellipse fill="#fdb462" stroke="#000000" cx="596" cy="-104" rx="57.3185" ry="18"/>
<text text-anchor="middle" x="596" y="-99.8" font-family="Times,serif" font-size="14.00" fill="#000000">FcmService</text>
</g>
<!-- FcmService&#45;&gt;AppModule -->
<g id="edge18" class="edge">
<title>FcmService&#45;&gt;AppModule</title>
<path fill="none" stroke="#000000" d="M596,-122.1289C596,-142.5724 596,-173 596,-173 596,-173 2025.0622,-173 2025.0622,-173"/>
<polygon fill="#000000" stroke="#000000" points="2025.0622,-176.5001 2035.0622,-173 2025.0621,-169.5001 2025.0622,-176.5001"/>
</g>
<!-- SwalService -->
<g id="node20" class="node">
<title>SwalService</title>
<ellipse fill="#fdb462" stroke="#000000" cx="462" cy="-104" rx="59.1045" ry="18"/>
<text text-anchor="middle" x="462" y="-99.8" font-family="Times,serif" font-size="14.00" fill="#000000">SwalService</text>
</g>
<!-- SwalService&#45;&gt;AppModule -->
<g id="edge19" class="edge">
<title>SwalService&#45;&gt;AppModule</title>
<path fill="none" stroke="#000000" d="M462,-122.0449C462,-143.6623 462,-177 462,-177 462,-177 2025.0451,-177 2025.0451,-177"/>
<polygon fill="#000000" stroke="#000000" points="2025.0451,-180.5001 2035.0451,-177 2025.045,-173.5001 2025.0451,-180.5001"/>
</g>
<!-- EventLoggerService -->
<g id="node21" class="node">
<title>EventLoggerService</title>
<ellipse fill="#fdb462" stroke="#000000" cx="294" cy="-104" rx="90.3101" ry="18"/>
<text text-anchor="middle" x="294" y="-99.8" font-family="Times,serif" font-size="14.00" fill="#000000">EventLoggerService</text>
</g>
<!-- EventLoggerService&#45;&gt;AppModule -->
<g id="edge20" class="edge">
<title>EventLoggerService&#45;&gt;AppModule</title>
<path fill="none" stroke="#000000" d="M294,-122.0109C294,-144.4852 294,-180 294,-180 294,-180 2025.1187,-180 2025.1187,-180"/>
<polygon fill="#000000" stroke="#000000" points="2025.1187,-183.5001 2035.1187,-180 2025.1186,-176.5001 2025.1187,-183.5001"/>
</g>
<!-- FirebaseAnalytics -->
<g id="node22" class="node">
<title>FirebaseAnalytics</title>
<ellipse fill="#fdb462" stroke="#000000" cx="105" cy="-104" rx="80.5123" ry="18"/>
<text text-anchor="middle" x="105" y="-99.8" font-family="Times,serif" font-size="14.00" fill="#000000">FirebaseAnalytics</text>
</g>
<!-- FirebaseAnalytics&#45;&gt;AppModule -->
<g id="edge21" class="edge">
<title>FirebaseAnalytics&#45;&gt;AppModule</title>
<path fill="none" stroke="#000000" d="M105,-122.1532C105,-145.7566 105,-184 105,-184 105,-184 2024.8997,-184 2024.8997,-184"/>
<polygon fill="#000000" stroke="#000000" points="2024.8997,-187.5001 2034.8997,-184 2024.8996,-180.5001 2024.8997,-187.5001"/>
</g>
</g>
</svg>
