<?xml version="1.0" encoding="UTF-8" standalone="no"?>
<!DOCTYPE svg PUBLIC "-//W3C//DTD SVG 1.1//EN"
 "http://www.w3.org/Graphics/SVG/1.1/DTD/svg11.dtd">
<!-- Generated by graphviz version 2.40.1 (20161225.0304)
 -->
<!-- Title: dependencies Pages: 1 -->
<svg width="4509pt" height="284pt"
 viewBox="0.00 0.00 4509.00 284.00" xmlns="http://www.w3.org/2000/svg" xmlns:xlink="http://www.w3.org/1999/xlink">
<g id="graph0" class="graph" transform="scale(1 1) rotate(0) translate(4 280)">
<title>dependencies</title>
<polygon fill="#ffffff" stroke="transparent" points="-4,4 -4,-280 4505,-280 4505,4 -4,4"/>
<text text-anchor="start" x="2229.5091" y="-42.4" font-family="sans-serif" font-weight="bold" font-size="14.00" fill="#000000">Legend</text>
<polygon fill="#ffffb3" stroke="transparent" points="2016.5,-10 2016.5,-30 2036.5,-30 2036.5,-10 2016.5,-10"/>
<text text-anchor="start" x="2040.129" y="-15.4" font-family="sans-serif" font-size="14.00" fill="#000000"> &#160;Declarations</text>
<polygon fill="#8dd3c7" stroke="transparent" points="2129.5,-10 2129.5,-30 2149.5,-30 2149.5,-10 2129.5,-10"/>
<text text-anchor="start" x="2153.2251" y="-15.4" font-family="sans-serif" font-size="14.00" fill="#000000"> &#160;Module</text>
<polygon fill="#80b1d3" stroke="transparent" points="2215.5,-10 2215.5,-30 2235.5,-30 2235.5,-10 2215.5,-10"/>
<text text-anchor="start" x="2239.2812" y="-15.4" font-family="sans-serif" font-size="14.00" fill="#000000"> &#160;Bootstrap</text>
<polygon fill="#fdb462" stroke="transparent" points="2312.5,-10 2312.5,-30 2332.5,-30 2332.5,-10 2312.5,-10"/>
<text text-anchor="start" x="2336.1732" y="-15.4" font-family="sans-serif" font-size="14.00" fill="#000000"> &#160;Providers</text>
<polygon fill="#fb8072" stroke="transparent" points="2408.5,-10 2408.5,-30 2428.5,-30 2428.5,-10 2408.5,-10"/>
<text text-anchor="start" x="2432.2258" y="-15.4" font-family="sans-serif" font-size="14.00" fill="#000000"> &#160;Exports</text>
<g id="clust1" class="cluster">
<title>cluster_AppModule</title>
<polygon fill="none" stroke="#000000" stroke-dasharray="1,5" points="8,-70 8,-268 4493,-268 4493,-70 8,-70"/>
</g>
<g id="clust2" class="cluster">
<title>cluster_AppModule_declarations</title>
<polygon fill="none" stroke="#000000" points="4363,-78 4363,-130 4485,-130 4485,-78 4363,-78"/>
</g>
<g id="clust4" class="cluster">
<title>cluster_AppModule_imports</title>
<polygon fill="none" stroke="#000000" points="1722,-78 1722,-130 4355,-130 4355,-78 1722,-78"/>
</g>
<g id="clust6" class="cluster">
<title>cluster_AppModule_bootstrap</title>
<polygon fill="none" stroke="#000000" points="2294,-208 2294,-260 2418,-260 2418,-208 2294,-208"/>
</g>
<g id="clust7" class="cluster">
<title>cluster_AppModule_providers</title>
<polygon fill="none" stroke="#000000" points="16,-78 16,-130 1714,-130 1714,-78 16,-78"/>
</g>
<!-- AppComponent -->
<g id="node1" class="node">
<title>AppComponent</title>
<polygon fill="#ffffb3" stroke="#000000" points="4476.9399,-122 4371.0601,-122 4371.0601,-86 4476.9399,-86 4476.9399,-122"/>
<text text-anchor="middle" x="4424" y="-99.8" font-family="Times,serif" font-size="14.00" fill="#000000">AppComponent</text>
</g>
<!-- AppModule -->
<g id="node2" class="node">
<title>AppModule</title>
<polygon fill="#8dd3c7" stroke="#000000" points="2397.6571,-187 2394.6571,-191 2373.6571,-191 2370.6571,-187 2314.3429,-187 2314.3429,-151 2397.6571,-151 2397.6571,-187"/>
<text text-anchor="middle" x="2356" y="-164.8" font-family="Times,serif" font-size="14.00" fill="#000000">AppModule</text>
</g>
<!-- AppComponent&#45;&gt;AppModule -->
<g id="edge1" class="edge">
<title>AppComponent&#45;&gt;AppModule</title>
<path fill="none" stroke="#000000" d="M4424,-122.1532C4424,-145.7566 4424,-184 4424,-184 4424,-184 2407.7764,-184 2407.7764,-184"/>
<polygon fill="#000000" stroke="#000000" points="2407.7764,-180.5001 2397.7764,-184 2407.7764,-187.5001 2407.7764,-180.5001"/>
</g>
<!-- AppComponent  -->
<g id="node17" class="node">
<title>AppComponent </title>
<polygon fill="#80b1d3" stroke="#000000" points="2410.439,-252 2301.561,-252 2301.561,-216 2410.439,-216 2410.439,-252"/>
<text text-anchor="middle" x="2356" y="-229.8" font-family="Times,serif" font-size="14.00" fill="#000000">AppComponent </text>
</g>
<!-- AppModule&#45;&gt;AppComponent  -->
<g id="edge16" class="edge">
<title>AppModule&#45;&gt;AppComponent </title>
<path fill="none" stroke="#000000" stroke-dasharray="1,5" d="M2356,-187.1061C2356,-187.1061 2356,-205.991 2356,-205.991"/>
<polygon fill="#000000" stroke="#000000" points="2352.5001,-205.9909 2356,-215.991 2359.5001,-205.991 2352.5001,-205.9909"/>
</g>
<!-- BrowserModule -->
<g id="node3" class="node">
<title>BrowserModule</title>
<polygon fill="#8dd3c7" stroke="#000000" points="4347.4734,-122 4344.4734,-126 4323.4734,-126 4320.4734,-122 4240.5266,-122 4240.5266,-86 4347.4734,-86 4347.4734,-122"/>
<text text-anchor="middle" x="4294" y="-99.8" font-family="Times,serif" font-size="14.00" fill="#000000">BrowserModule</text>
</g>
<!-- BrowserModule&#45;&gt;AppModule -->
<g id="edge2" class="edge">
<title>BrowserModule&#45;&gt;AppModule</title>
<path fill="none" stroke="#000000" d="M4294,-122.2479C4294,-145.0179 4294,-181 4294,-181 4294,-181 2407.8262,-181 2407.8262,-181"/>
<polygon fill="#000000" stroke="#000000" points="2407.8262,-177.5001 2397.8262,-181 2407.8262,-184.5001 2407.8262,-177.5001"/>
</g>
<!-- IonicModule.forRoot() -->
<g id="node4" class="node">
<title>IonicModule.forRoot()</title>
<polygon fill="#8dd3c7" stroke="#000000" points="4222.1855,-122 4219.1855,-126 4198.1855,-126 4195.1855,-122 4077.8145,-122 4077.8145,-86 4222.1855,-86 4222.1855,-122"/>
<text text-anchor="middle" x="4150" y="-99.8" font-family="Times,serif" font-size="14.00" fill="#000000">IonicModule.forRoot()</text>
</g>
<!-- IonicModule.forRoot()&#45;&gt;AppModule -->
<g id="edge3" class="edge">
<title>IonicModule.forRoot()&#45;&gt;AppModule</title>
<path fill="none" stroke="#000000" d="M4150,-122.2921C4150,-144.2057 4150,-178 4150,-178 4150,-178 2407.7047,-178 2407.7047,-178"/>
<polygon fill="#000000" stroke="#000000" points="2407.7047,-174.5001 2397.7047,-178 2407.7046,-181.5001 2407.7047,-174.5001"/>
</g>
<!-- RecaptchaModule.forRoot() -->
<g id="node5" class="node">
<title>RecaptchaModule.forRoot()</title>
<polygon fill="#8dd3c7" stroke="#000000" points="4060.2197,-122 4057.2197,-126 4036.2197,-126 4033.2197,-122 3885.7803,-122 3885.7803,-86 4060.2197,-86 4060.2197,-122"/>
<text text-anchor="middle" x="3973" y="-99.8" font-family="Times,serif" font-size="14.00" fill="#000000">RecaptchaModule.forRoot()</text>
</g>
<!-- RecaptchaModule.forRoot()&#45;&gt;AppModule -->
<g id="edge4" class="edge">
<title>RecaptchaModule.forRoot()&#45;&gt;AppModule</title>
<path fill="none" stroke="#000000" d="M3973,-122.2843C3973,-143.3211 3973,-175 3973,-175 3973,-175 2408.0069,-175 2408.0069,-175"/>
<polygon fill="#000000" stroke="#000000" points="2408.0069,-171.5001 2398.0069,-175 2408.0068,-178.5001 2408.0069,-171.5001"/>
</g>
<!-- AppRoutingModule -->
<g id="node6" class="node">
<title>AppRoutingModule</title>
<polygon fill="#8dd3c7" stroke="#000000" points="3868.2744,-122 3865.2744,-126 3844.2744,-126 3841.2744,-122 3739.7256,-122 3739.7256,-86 3868.2744,-86 3868.2744,-122"/>
<text text-anchor="middle" x="3804" y="-99.8" font-family="Times,serif" font-size="14.00" fill="#000000">AppRoutingModule</text>
</g>
<!-- AppRoutingModule&#45;&gt;AppModule -->
<g id="edge5" class="edge">
<title>AppRoutingModule&#45;&gt;AppModule</title>
<path fill="none" stroke="#000000" d="M3804,-122.2228C3804,-142.3652 3804,-172 3804,-172 3804,-172 2407.7742,-172 2407.7742,-172"/>
<polygon fill="#000000" stroke="#000000" points="2407.7743,-168.5001 2397.7742,-172 2407.7742,-175.5001 2407.7743,-168.5001"/>
</g>
<!-- BrowserAnimationsModule -->
<g id="node7" class="node">
<title>BrowserAnimationsModule</title>
<polygon fill="#8dd3c7" stroke="#000000" points="3721.3019,-122 3718.3019,-126 3697.3019,-126 3694.3019,-122 3548.6981,-122 3548.6981,-86 3721.3019,-86 3721.3019,-122"/>
<text text-anchor="middle" x="3635" y="-99.8" font-family="Times,serif" font-size="14.00" fill="#000000">BrowserAnimationsModule</text>
</g>
<!-- BrowserAnimationsModule&#45;&gt;AppModule -->
<g id="edge6" class="edge">
<title>BrowserAnimationsModule&#45;&gt;AppModule</title>
<path fill="none" stroke="#000000" d="M3635,-122.1061C3635,-141.3391 3635,-169 3635,-169 3635,-169 2407.8275,-169 2407.8275,-169"/>
<polygon fill="#000000" stroke="#000000" points="2407.8275,-165.5001 2397.8275,-169 2407.8274,-172.5001 2407.8275,-165.5001"/>
</g>
<!-- ReactiveFormsModule -->
<g id="node8" class="node">
<title>ReactiveFormsModule</title>
<polygon fill="#8dd3c7" stroke="#000000" points="3531.3047,-122 3528.3047,-126 3507.3047,-126 3504.3047,-122 3386.6953,-122 3386.6953,-86 3531.3047,-86 3531.3047,-122"/>
<text text-anchor="middle" x="3459" y="-99.8" font-family="Times,serif" font-size="14.00" fill="#000000">ReactiveFormsModule</text>
</g>
<!-- ReactiveFormsModule&#45;&gt;AppModule -->
<g id="edge7" class="edge">
<title>ReactiveFormsModule&#45;&gt;AppModule</title>
<path fill="none" stroke="#000000" d="M3459,-122.2667C3459,-140.5552 3459,-166 3459,-166 3459,-166 2407.892,-166 2407.892,-166"/>
<polygon fill="#000000" stroke="#000000" points="2407.8921,-162.5001 2397.892,-166 2407.892,-169.5001 2407.8921,-162.5001"/>
</g>
<!-- AngularFireModule.initializeApp(args) -->
<g id="node9" class="node">
<title>AngularFireModule.initializeApp(args)</title>
<polygon fill="#8dd3c7" stroke="#000000" points="3368.7057,-122 3365.7057,-126 3344.7057,-126 3341.7057,-122 3131.2943,-122 3131.2943,-86 3368.7057,-86 3368.7057,-122"/>
<text text-anchor="middle" x="3250" y="-99.8" font-family="Times,serif" font-size="14.00" fill="#000000">AngularFireModule.initializeApp(args)</text>
</g>
<!-- AngularFireModule.initializeApp(args)&#45;&gt;AppModule -->
<g id="edge8" class="edge">
<title>AngularFireModule.initializeApp(args)&#45;&gt;AppModule</title>
<path fill="none" stroke="#000000" d="M3250,-122.0225C3250,-139.3734 3250,-163 3250,-163 3250,-163 2407.9204,-163 2407.9204,-163"/>
<polygon fill="#000000" stroke="#000000" points="2407.9204,-159.5001 2397.9204,-163 2407.9203,-166.5001 2407.9204,-159.5001"/>
</g>
<!-- AngularFireAuthModule -->
<g id="node10" class="node">
<title>AngularFireAuthModule</title>
<polygon fill="#8dd3c7" stroke="#000000" points="3112.9678,-122 3109.9678,-126 3088.9678,-126 3085.9678,-122 2957.0322,-122 2957.0322,-86 3112.9678,-86 3112.9678,-122"/>
<text text-anchor="middle" x="3035" y="-99.8" font-family="Times,serif" font-size="14.00" fill="#000000">AngularFireAuthModule</text>
</g>
<!-- AngularFireAuthModule&#45;&gt;AppModule -->
<g id="edge9" class="edge">
<title>AngularFireAuthModule&#45;&gt;AppModule</title>
<path fill="none" stroke="#000000" d="M3035,-122.027C3035,-138.3976 3035,-160 3035,-160 3035,-160 2407.7069,-160 2407.7069,-160"/>
<polygon fill="#000000" stroke="#000000" points="2407.7069,-156.5001 2397.7069,-160 2407.7069,-163.5001 2407.7069,-156.5001"/>
</g>
<!-- AngularFireMessagingModule -->
<g id="node11" class="node">
<title>AngularFireMessagingModule</title>
<polygon fill="#8dd3c7" stroke="#000000" points="2939.1246,-122 2936.1246,-126 2915.1246,-126 2912.1246,-122 2750.8754,-122 2750.8754,-86 2939.1246,-86 2939.1246,-122"/>
<text text-anchor="middle" x="2845" y="-99.8" font-family="Times,serif" font-size="14.00" fill="#000000">AngularFireMessagingModule</text>
</g>
<!-- AngularFireMessagingModule&#45;&gt;AppModule -->
<g id="edge10" class="edge">
<title>AngularFireMessagingModule&#45;&gt;AppModule</title>
<path fill="none" stroke="#000000" d="M2845,-122.2396C2845,-137.5706 2845,-157 2845,-157 2845,-157 2407.6919,-157 2407.6919,-157"/>
<polygon fill="#000000" stroke="#000000" points="2407.6919,-153.5001 2397.6919,-157 2407.6918,-160.5001 2407.6919,-153.5001"/>
</g>
<!-- AngularFireFunctionsModule -->
<g id="node12" class="node">
<title>AngularFireFunctionsModule</title>
<polygon fill="#8dd3c7" stroke="#000000" points="2732.6937,-122 2729.6937,-126 2708.6937,-126 2705.6937,-122 2549.3063,-122 2549.3063,-86 2732.6937,-86 2732.6937,-122"/>
<text text-anchor="middle" x="2641" y="-99.8" font-family="Times,serif" font-size="14.00" fill="#000000">AngularFireFunctionsModule</text>
</g>
<!-- AngularFireFunctionsModule&#45;&gt;AppModule -->
<g id="edge11" class="edge">
<title>AngularFireFunctionsModule&#45;&gt;AppModule</title>
<path fill="none" stroke="#000000" d="M2641,-122.0511C2641,-136.373 2641,-154 2641,-154 2641,-154 2407.7467,-154 2407.7467,-154"/>
<polygon fill="#000000" stroke="#000000" points="2407.7467,-150.5001 2397.7467,-154 2407.7466,-157.5001 2407.7467,-150.5001"/>
</g>
<!-- AngularFirestoreModule -->
<g id="node13" class="node">
<title>AngularFirestoreModule</title>
<polygon fill="#8dd3c7" stroke="#000000" points="2531.6811,-122 2528.6811,-126 2507.6811,-126 2504.6811,-122 2376.3189,-122 2376.3189,-86 2531.6811,-86 2531.6811,-122"/>
<text text-anchor="middle" x="2454" y="-99.8" font-family="Times,serif" font-size="14.00" fill="#000000">AngularFirestoreModule</text>
</g>
<!-- AngularFirestoreModule&#45;&gt;AppModule -->
<g id="edge12" class="edge">
<title>AngularFirestoreModule&#45;&gt;AppModule</title>
<path fill="none" stroke="#000000" d="M2387.1189,-122.1061C2387.1189,-122.1061 2387.1189,-140.991 2387.1189,-140.991"/>
<polygon fill="#000000" stroke="#000000" points="2383.6189,-140.9909 2387.1189,-150.991 2390.6189,-140.991 2383.6189,-140.9909"/>
</g>
<!-- AngularFirePerformanceModule -->
<g id="node14" class="node">
<title>AngularFirePerformanceModule</title>
<polygon fill="#8dd3c7" stroke="#000000" points="2358.9846,-122 2355.9846,-126 2334.9846,-126 2331.9846,-122 2159.0154,-122 2159.0154,-86 2358.9846,-86 2358.9846,-122"/>
<text text-anchor="middle" x="2259" y="-99.8" font-family="Times,serif" font-size="14.00" fill="#000000">AngularFirePerformanceModule</text>
</g>
<!-- AngularFirePerformanceModule&#45;&gt;AppModule -->
<g id="edge13" class="edge">
<title>AngularFirePerformanceModule&#45;&gt;AppModule</title>
<path fill="none" stroke="#000000" d="M2336.4569,-122.1061C2336.4569,-122.1061 2336.4569,-140.991 2336.4569,-140.991"/>
<polygon fill="#000000" stroke="#000000" points="2332.957,-140.9909 2336.4569,-150.991 2339.957,-140.991 2332.957,-140.9909"/>
</g>
<!-- AngularFireStorageModule -->
<g id="node15" class="node">
<title>AngularFireStorageModule</title>
<polygon fill="#8dd3c7" stroke="#000000" points="2141.2338,-122 2138.2338,-126 2117.2338,-126 2114.2338,-122 1970.7662,-122 1970.7662,-86 2141.2338,-86 2141.2338,-122"/>
<text text-anchor="middle" x="2056" y="-99.8" font-family="Times,serif" font-size="14.00" fill="#000000">AngularFireStorageModule</text>
</g>
<!-- AngularFireStorageModule&#45;&gt;AppModule -->
<g id="edge14" class="edge">
<title>AngularFireStorageModule&#45;&gt;AppModule</title>
<path fill="none" stroke="#000000" d="M2056,-122.0511C2056,-136.373 2056,-154 2056,-154 2056,-154 2304.2863,-154 2304.2863,-154"/>
<polygon fill="#000000" stroke="#000000" points="2304.2863,-157.5001 2314.2863,-154 2304.2863,-150.5001 2304.2863,-157.5001"/>
</g>
<!-- ServiceWorkerModule.register(args) -->
<g id="node16" class="node">
<title>ServiceWorkerModule.register(args)</title>
<polygon fill="#8dd3c7" stroke="#000000" points="1952.3954,-122 1949.3954,-126 1928.3954,-126 1925.3954,-122 1729.6046,-122 1729.6046,-86 1952.3954,-86 1952.3954,-122"/>
<text text-anchor="middle" x="1841" y="-99.8" font-family="Times,serif" font-size="14.00" fill="#000000">ServiceWorkerModule.register(args)</text>
</g>
<!-- ServiceWorkerModule.register(args)&#45;&gt;AppModule -->
<g id="edge15" class="edge">
<title>ServiceWorkerModule.register(args)&#45;&gt;AppModule</title>
<path fill="none" stroke="#000000" d="M1841,-122.2396C1841,-137.5706 1841,-157 1841,-157 1841,-157 2304.2916,-157 2304.2916,-157"/>
<polygon fill="#000000" stroke="#000000" points="2304.2917,-160.5001 2314.2916,-157 2304.2916,-153.5001 2304.2917,-160.5001"/>
</g>
<!-- StatusBar -->
<g id="node18" class="node">
<title>StatusBar</title>
<ellipse fill="#fdb462" stroke="#000000" cx="1657" cy="-104" rx="48.6694" ry="18"/>
<text text-anchor="middle" x="1657" y="-99.8" font-family="Times,serif" font-size="14.00" fill="#000000">StatusBar</text>
</g>
<!-- StatusBar&#45;&gt;AppModule -->
<g id="edge17" class="edge">
<title>StatusBar&#45;&gt;AppModule</title>
<path fill="none" stroke="#000000" d="M1657,-122.027C1657,-138.3976 1657,-160 1657,-160 1657,-160 2304.1085,-160 2304.1085,-160"/>
<polygon fill="#000000" stroke="#000000" points="2304.1085,-163.5001 2314.1085,-160 2304.1084,-156.5001 2304.1085,-163.5001"/>
</g>
<!-- SplashScreen -->
<g id="node19" class="node">
<title>SplashScreen</title>
<ellipse fill="#fdb462" stroke="#000000" cx="1527" cy="-104" rx="63.1189" ry="18"/>
<text text-anchor="middle" x="1527" y="-99.8" font-family="Times,serif" font-size="14.00" fill="#000000">SplashScreen</text>
</g>
<!-- SplashScreen&#45;&gt;AppModule -->
<g id="edge18" class="edge">
<title>SplashScreen&#45;&gt;AppModule</title>
<path fill="none" stroke="#000000" d="M1527,-122.0225C1527,-139.3734 1527,-163 1527,-163 1527,-163 2304.3216,-163 2304.3216,-163"/>
<polygon fill="#000000" stroke="#000000" points="2304.3217,-166.5001 2314.3216,-163 2304.3216,-159.5001 2304.3217,-166.5001"/>
</g>
<!-- { provide: RouteReuseStrategy, useClass: IonicRouteStrategy } -->
<g id="node20" class="node">
<title>{ provide: RouteReuseStrategy, useClass: IonicRouteStrategy }</title>
<ellipse fill="#fdb462" stroke="#000000" cx="1189" cy="-104" rx="257.2723" ry="18"/>
<text text-anchor="middle" x="1189" y="-99.8" font-family="Times,serif" font-size="14.00" fill="#000000">{ provide: RouteReuseStrategy, useClass: IonicRouteStrategy }</text>
</g>
<!-- { provide: RouteReuseStrategy, useClass: IonicRouteStrategy }&#45;&gt;AppModule -->
<g id="edge19" class="edge">
<title>{ provide: RouteReuseStrategy, useClass: IonicRouteStrategy }&#45;&gt;AppModule</title>
<path fill="none" stroke="#000000" d="M1189,-122.2667C1189,-140.5552 1189,-166 1189,-166 1189,-166 2304.1218,-166 2304.1218,-166"/>
<polygon fill="#000000" stroke="#000000" points="2304.1218,-169.5001 2314.1218,-166 2304.1217,-162.5001 2304.1218,-169.5001"/>
</g>
<!-- FcmService -->
<g id="node21" class="node">
<title>FcmService</title>
<ellipse fill="#fdb462" stroke="#000000" cx="856" cy="-104" rx="57.3185" ry="18"/>
<text text-anchor="middle" x="856" y="-99.8" font-family="Times,serif" font-size="14.00" fill="#000000">FcmService</text>
</g>
<!-- FcmService&#45;&gt;AppModule -->
<g id="edge20" class="edge">
<title>FcmService&#45;&gt;AppModule</title>
<path fill="none" stroke="#000000" d="M856,-122.1061C856,-141.3391 856,-169 856,-169 856,-169 2304.3159,-169 2304.3159,-169"/>
<polygon fill="#000000" stroke="#000000" points="2304.3159,-172.5001 2314.3159,-169 2304.3158,-165.5001 2304.3159,-172.5001"/>
</g>
<!-- SwalService -->
<g id="node22" class="node">
<title>SwalService</title>
<ellipse fill="#fdb462" stroke="#000000" cx="722" cy="-104" rx="59.1045" ry="18"/>
<text text-anchor="middle" x="722" y="-99.8" font-family="Times,serif" font-size="14.00" fill="#000000">SwalService</text>
</g>
<!-- SwalService&#45;&gt;AppModule -->
<g id="edge21" class="edge">
<title>SwalService&#45;&gt;AppModule</title>
<path fill="none" stroke="#000000" d="M722,-122.2228C722,-142.3652 722,-172 722,-172 722,-172 2303.9667,-172 2303.9667,-172"/>
<polygon fill="#000000" stroke="#000000" points="2303.9668,-175.5001 2313.9667,-172 2303.9667,-168.5001 2303.9668,-175.5001"/>
</g>
<!-- EventLoggerService -->
<g id="node23" class="node">
<title>EventLoggerService</title>
<ellipse fill="#fdb462" stroke="#000000" cx="554" cy="-104" rx="90.3101" ry="18"/>
<text text-anchor="middle" x="554" y="-99.8" font-family="Times,serif" font-size="14.00" fill="#000000">EventLoggerService</text>
</g>
<!-- EventLoggerService&#45;&gt;AppModule -->
<g id="edge22" class="edge">
<title>EventLoggerService&#45;&gt;AppModule</title>
<path fill="none" stroke="#000000" d="M554,-122.2843C554,-143.3211 554,-175 554,-175 554,-175 2304.1093,-175 2304.1093,-175"/>
<polygon fill="#000000" stroke="#000000" points="2304.1094,-178.5001 2314.1093,-175 2304.1093,-171.5001 2304.1094,-178.5001"/>
</g>
<!-- FirebaseAnalytics -->
<g id="node24" class="node">
<title>FirebaseAnalytics</title>
<ellipse fill="#fdb462" stroke="#000000" cx="365" cy="-104" rx="80.5123" ry="18"/>
<text text-anchor="middle" x="365" y="-99.8" font-family="Times,serif" font-size="14.00" fill="#000000">FirebaseAnalytics</text>
</g>
<!-- FirebaseAnalytics&#45;&gt;AppModule -->
<g id="edge23" class="edge">
<title>FirebaseAnalytics&#45;&gt;AppModule</title>
<path fill="none" stroke="#000000" d="M365,-122.2921C365,-144.2057 365,-178 365,-178 365,-178 2303.9558,-178 2303.9558,-178"/>
<polygon fill="#000000" stroke="#000000" points="2303.9558,-181.5001 2313.9558,-178 2303.9557,-174.5001 2303.9558,-181.5001"/>
</g>
<!-- PlatformService -->
<g id="node25" class="node">
<title>PlatformService</title>
<ellipse fill="#fdb462" stroke="#000000" cx="192" cy="-104" rx="73.5695" ry="18"/>
<text text-anchor="middle" x="192" y="-99.8" font-family="Times,serif" font-size="14.00" fill="#000000">PlatformService</text>
</g>
<!-- PlatformService&#45;&gt;AppModule -->
<g id="edge24" class="edge">
<title>PlatformService&#45;&gt;AppModule</title>
<path fill="none" stroke="#000000" d="M192,-122.2479C192,-145.0179 192,-181 192,-181 192,-181 2304.2249,-181 2304.2249,-181"/>
<polygon fill="#000000" stroke="#000000" points="2304.2249,-184.5001 2314.2249,-181 2304.2248,-177.5001 2304.2249,-184.5001"/>
</g>
<!-- Device -->
<g id="node26" class="node">
<title>Device</title>
<ellipse fill="#fdb462" stroke="#000000" cx="62" cy="-104" rx="38.2607" ry="18"/>
<text text-anchor="middle" x="62" y="-99.8" font-family="Times,serif" font-size="14.00" fill="#000000">Device</text>
</g>
<!-- Device&#45;&gt;AppModule -->
<g id="edge25" class="edge">
<title>Device&#45;&gt;AppModule</title>
<path fill="none" stroke="#000000" d="M62,-122.1532C62,-145.7566 62,-184 62,-184 62,-184 2304.2251,-184 2304.2251,-184"/>
<polygon fill="#000000" stroke="#000000" points="2304.2251,-187.5001 2314.2251,-184 2304.225,-180.5001 2304.2251,-187.5001"/>
</g>
</g>
</svg>
