<?xml version="1.0" encoding="UTF-8" standalone="no"?>
<!DOCTYPE svg PUBLIC "-//W3C//DTD SVG 1.1//EN"
 "http://www.w3.org/Graphics/SVG/1.1/DTD/svg11.dtd">
<!-- Generated by graphviz version 2.40.1 (20161225.0304)
 -->
<!-- Title: dependencies Pages: 1 -->
<svg width="879pt" height="211pt"
 viewBox="0.00 0.00 879.00 211.00" xmlns="http://www.w3.org/2000/svg" xmlns:xlink="http://www.w3.org/1999/xlink">
<g id="graph0" class="graph" transform="scale(1 1) rotate(0) translate(4 207)">
<title>dependencies</title>
<polygon fill="#ffffff" stroke="transparent" points="-4,4 -4,-207 875,-207 875,4 -4,4"/>
<text text-anchor="start" x="414.5091" y="-42.4" font-family="sans-serif" font-weight="bold" font-size="14.00" fill="#000000">Legend</text>
<polygon fill="#ffffb3" stroke="transparent" points="201.5,-10 201.5,-30 221.5,-30 221.5,-10 201.5,-10"/>
<text text-anchor="start" x="225.129" y="-15.4" font-family="sans-serif" font-size="14.00" fill="#000000"> &#160;Declarations</text>
<polygon fill="#8dd3c7" stroke="transparent" points="314.5,-10 314.5,-30 334.5,-30 334.5,-10 314.5,-10"/>
<text text-anchor="start" x="338.2251" y="-15.4" font-family="sans-serif" font-size="14.00" fill="#000000"> &#160;Module</text>
<polygon fill="#80b1d3" stroke="transparent" points="400.5,-10 400.5,-30 420.5,-30 420.5,-10 400.5,-10"/>
<text text-anchor="start" x="424.2812" y="-15.4" font-family="sans-serif" font-size="14.00" fill="#000000"> &#160;Bootstrap</text>
<polygon fill="#fdb462" stroke="transparent" points="497.5,-10 497.5,-30 517.5,-30 517.5,-10 497.5,-10"/>
<text text-anchor="start" x="521.1732" y="-15.4" font-family="sans-serif" font-size="14.00" fill="#000000"> &#160;Providers</text>
<polygon fill="#fb8072" stroke="transparent" points="593.5,-10 593.5,-30 613.5,-30 613.5,-10 593.5,-10"/>
<text text-anchor="start" x="617.2258" y="-15.4" font-family="sans-serif" font-size="14.00" fill="#000000"> &#160;Exports</text>
<g id="clust1" class="cluster">
<title>cluster_InfoPageModule</title>
<polygon fill="none" stroke="#000000" stroke-dasharray="1,5" points="8,-70 8,-195 863,-195 863,-70 8,-70"/>
</g>
<g id="clust2" class="cluster">
<title>cluster_InfoPageModule_declarations</title>
<polygon fill="none" stroke="#000000" points="773,-78 773,-130 855,-130 855,-78 773,-78"/>
</g>
<g id="clust4" class="cluster">
<title>cluster_InfoPageModule_imports</title>
<polygon fill="none" stroke="#000000" points="16,-78 16,-130 765,-130 765,-78 16,-78"/>
</g>
<!-- InfoPage -->
<g id="node1" class="node">
<title>InfoPage</title>
<polygon fill="#ffffb3" stroke="#000000" points="847.0346,-122 780.9654,-122 780.9654,-86 847.0346,-86 847.0346,-122"/>
<text text-anchor="middle" x="814" y="-99.8" font-family="Times,serif" font-size="14.00" fill="#000000">InfoPage</text>
</g>
<!-- InfoPageModule -->
<g id="node2" class="node">
<title>InfoPageModule</title>
<polygon fill="#8dd3c7" stroke="#000000" points="580.0828,-187 577.0828,-191 556.0828,-191 553.0828,-187 469.9172,-187 469.9172,-151 580.0828,-151 580.0828,-187"/>
<text text-anchor="middle" x="525" y="-164.8" font-family="Times,serif" font-size="14.00" fill="#000000">InfoPageModule</text>
</g>
<!-- InfoPage&#45;&gt;InfoPageModule -->
<g id="edge1" class="edge">
<title>InfoPage&#45;&gt;InfoPageModule</title>
<path fill="none" stroke="#000000" d="M814,-122.2843C814,-143.3211 814,-175 814,-175 814,-175 590.3802,-175 590.3802,-175"/>
<polygon fill="#000000" stroke="#000000" points="590.3802,-171.5001 580.3802,-175 590.3801,-178.5001 590.3802,-171.5001"/>
</g>
<!-- CommonModule -->
<g id="node3" class="node">
<title>CommonModule</title>
<polygon fill="#8dd3c7" stroke="#000000" points="756.6681,-122 753.6681,-126 732.6681,-126 729.6681,-122 645.3319,-122 645.3319,-86 756.6681,-86 756.6681,-122"/>
<text text-anchor="middle" x="701" y="-99.8" font-family="Times,serif" font-size="14.00" fill="#000000">CommonModule</text>
</g>
<!-- CommonModule&#45;&gt;InfoPageModule -->
<g id="edge2" class="edge">
<title>CommonModule&#45;&gt;InfoPageModule</title>
<path fill="none" stroke="#000000" d="M701,-122.0225C701,-139.3734 701,-163 701,-163 701,-163 590.2046,-163 590.2046,-163"/>
<polygon fill="#000000" stroke="#000000" points="590.2046,-159.5001 580.2046,-163 590.2046,-166.5001 590.2046,-159.5001"/>
</g>
<!-- FormsModule -->
<g id="node4" class="node">
<title>FormsModule</title>
<polygon fill="#8dd3c7" stroke="#000000" points="627.8288,-122 624.8288,-126 603.8288,-126 600.8288,-122 532.1712,-122 532.1712,-86 627.8288,-86 627.8288,-122"/>
<text text-anchor="middle" x="580" y="-99.8" font-family="Times,serif" font-size="14.00" fill="#000000">FormsModule</text>
</g>
<!-- FormsModule&#45;&gt;InfoPageModule -->
<g id="edge3" class="edge">
<title>FormsModule&#45;&gt;InfoPageModule</title>
<path fill="none" stroke="#000000" d="M556.1887,-122.1061C556.1887,-122.1061 556.1887,-140.991 556.1887,-140.991"/>
<polygon fill="#000000" stroke="#000000" points="552.6887,-140.9909 556.1887,-150.991 559.6887,-140.991 552.6887,-140.9909"/>
</g>
<!-- IonicModule -->
<g id="node5" class="node">
<title>IonicModule</title>
<polygon fill="#8dd3c7" stroke="#000000" points="514.3162,-122 511.3162,-126 490.3162,-126 487.3162,-122 425.6838,-122 425.6838,-86 514.3162,-86 514.3162,-122"/>
<text text-anchor="middle" x="470" y="-99.8" font-family="Times,serif" font-size="14.00" fill="#000000">IonicModule</text>
</g>
<!-- IonicModule&#45;&gt;InfoPageModule -->
<g id="edge4" class="edge">
<title>IonicModule&#45;&gt;InfoPageModule</title>
<path fill="none" stroke="#000000" d="M492.0582,-122.1061C492.0582,-122.1061 492.0582,-140.991 492.0582,-140.991"/>
<polygon fill="#000000" stroke="#000000" points="488.5583,-140.9909 492.0582,-150.991 495.5583,-140.991 488.5583,-140.9909"/>
</g>
<!-- RouterModule.forChild(args) -->
<g id="node6" class="node">
<title>RouterModule.forChild(args)</title>
<polygon fill="#8dd3c7" stroke="#000000" points="407.7323,-122 404.7323,-126 383.7323,-126 380.7323,-122 226.2677,-122 226.2677,-86 407.7323,-86 407.7323,-122"/>
<text text-anchor="middle" x="317" y="-99.8" font-family="Times,serif" font-size="14.00" fill="#000000">RouterModule.forChild(args)</text>
</g>
<!-- RouterModule.forChild(args)&#45;&gt;InfoPageModule -->
<g id="edge5" class="edge">
<title>RouterModule.forChild(args)&#45;&gt;InfoPageModule</title>
<path fill="none" stroke="#000000" d="M317,-122.0225C317,-139.3734 317,-163 317,-163 317,-163 459.8059,-163 459.8059,-163"/>
<polygon fill="#000000" stroke="#000000" points="459.8059,-166.5001 469.8059,-163 459.8059,-159.5001 459.8059,-166.5001"/>
</g>
<!-- MenuTitleComponentModule -->
<g id="node7" class="node">
<title>MenuTitleComponentModule</title>
<polygon fill="#8dd3c7" stroke="#000000" points="207.9804,-122 204.9804,-126 183.9804,-126 180.9804,-122 24.0196,-122 24.0196,-86 207.9804,-86 207.9804,-122"/>
<text text-anchor="middle" x="116" y="-99.8" font-family="Times,serif" font-size="14.00" fill="#000000">MenuTitleComponentModule</text>
</g>
<!-- MenuTitleComponentModule&#45;&gt;InfoPageModule -->
<g id="edge6" class="edge">
<title>MenuTitleComponentModule&#45;&gt;InfoPageModule</title>
<path fill="none" stroke="#000000" d="M116,-122.2843C116,-143.3211 116,-175 116,-175 116,-175 459.8404,-175 459.8404,-175"/>
<polygon fill="#000000" stroke="#000000" points="459.8405,-178.5001 469.8404,-175 459.8404,-171.5001 459.8405,-178.5001"/>
</g>
</g>
</svg>
