<?xml version="1.0" encoding="UTF-8" standalone="no"?>
<!DOCTYPE svg PUBLIC "-//W3C//DTD SVG 1.1//EN"
 "http://www.w3.org/Graphics/SVG/1.1/DTD/svg11.dtd">
<!-- Generated by graphviz version 2.40.1 (20161225.0304)
 -->
<!-- Title: dependencies Pages: 1 -->
<svg width="833pt" height="211pt"
 viewBox="0.00 0.00 833.00 211.00" xmlns="http://www.w3.org/2000/svg" xmlns:xlink="http://www.w3.org/1999/xlink">
<g id="graph0" class="graph" transform="scale(1 1) rotate(0) translate(4 207)">
<title>dependencies</title>
<polygon fill="#ffffff" stroke="transparent" points="-4,4 -4,-207 829,-207 829,4 -4,4"/>
<text text-anchor="start" x="391.5091" y="-42.4" font-family="sans-serif" font-weight="bold" font-size="14.00" fill="#000000">Legend</text>
<polygon fill="#ffffb3" stroke="transparent" points="178.5,-10 178.5,-30 198.5,-30 198.5,-10 178.5,-10"/>
<text text-anchor="start" x="202.129" y="-15.4" font-family="sans-serif" font-size="14.00" fill="#000000"> &#160;Declarations</text>
<polygon fill="#8dd3c7" stroke="transparent" points="291.5,-10 291.5,-30 311.5,-30 311.5,-10 291.5,-10"/>
<text text-anchor="start" x="315.2251" y="-15.4" font-family="sans-serif" font-size="14.00" fill="#000000"> &#160;Module</text>
<polygon fill="#80b1d3" stroke="transparent" points="377.5,-10 377.5,-30 397.5,-30 397.5,-10 377.5,-10"/>
<text text-anchor="start" x="401.2812" y="-15.4" font-family="sans-serif" font-size="14.00" fill="#000000"> &#160;Bootstrap</text>
<polygon fill="#fdb462" stroke="transparent" points="474.5,-10 474.5,-30 494.5,-30 494.5,-10 474.5,-10"/>
<text text-anchor="start" x="498.1732" y="-15.4" font-family="sans-serif" font-size="14.00" fill="#000000"> &#160;Providers</text>
<polygon fill="#fb8072" stroke="transparent" points="570.5,-10 570.5,-30 590.5,-30 590.5,-10 570.5,-10"/>
<text text-anchor="start" x="594.2258" y="-15.4" font-family="sans-serif" font-size="14.00" fill="#000000"> &#160;Exports</text>
<g id="clust1" class="cluster">
<title>cluster_MenuPageModule</title>
<polygon fill="none" stroke="#000000" stroke-dasharray="1,5" points="8,-70 8,-195 817,-195 817,-70 8,-70"/>
</g>
<g id="clust2" class="cluster">
<title>cluster_MenuPageModule_declarations</title>
<polygon fill="none" stroke="#000000" points="717,-78 717,-130 809,-130 809,-78 717,-78"/>
</g>
<g id="clust4" class="cluster">
<title>cluster_MenuPageModule_imports</title>
<polygon fill="none" stroke="#000000" points="162,-78 162,-130 709,-130 709,-78 162,-78"/>
</g>
<g id="clust7" class="cluster">
<title>cluster_MenuPageModule_providers</title>
<polygon fill="none" stroke="#000000" points="16,-78 16,-130 154,-130 154,-78 16,-78"/>
</g>
<!-- MenuPage -->
<g id="node1" class="node">
<title>MenuPage</title>
<polygon fill="#ffffb3" stroke="#000000" points="800.8711,-122 725.1289,-122 725.1289,-86 800.8711,-86 800.8711,-122"/>
<text text-anchor="middle" x="763" y="-99.8" font-family="Times,serif" font-size="14.00" fill="#000000">MenuPage</text>
</g>
<!-- MenuPageModule -->
<g id="node2" class="node">
<title>MenuPageModule</title>
<polygon fill="#8dd3c7" stroke="#000000" points="528.9215,-187 525.9215,-191 504.9215,-191 501.9215,-187 409.0785,-187 409.0785,-151 528.9215,-151 528.9215,-187"/>
<text text-anchor="middle" x="469" y="-164.8" font-family="Times,serif" font-size="14.00" fill="#000000">MenuPageModule</text>
</g>
<!-- MenuPage&#45;&gt;MenuPageModule -->
<g id="edge1" class="edge">
<title>MenuPage&#45;&gt;MenuPageModule</title>
<path fill="none" stroke="#000000" d="M763,-122.2843C763,-143.3211 763,-175 763,-175 763,-175 538.8497,-175 538.8497,-175"/>
<polygon fill="#000000" stroke="#000000" points="538.8497,-171.5001 528.8497,-175 538.8496,-178.5001 538.8497,-171.5001"/>
</g>
<!-- CommonModule -->
<g id="node3" class="node">
<title>CommonModule</title>
<polygon fill="#8dd3c7" stroke="#000000" points="700.6681,-122 697.6681,-126 676.6681,-126 673.6681,-122 589.3319,-122 589.3319,-86 700.6681,-86 700.6681,-122"/>
<text text-anchor="middle" x="645" y="-99.8" font-family="Times,serif" font-size="14.00" fill="#000000">CommonModule</text>
</g>
<!-- CommonModule&#45;&gt;MenuPageModule -->
<g id="edge2" class="edge">
<title>CommonModule&#45;&gt;MenuPageModule</title>
<path fill="none" stroke="#000000" d="M645,-122.0225C645,-139.3734 645,-163 645,-163 645,-163 539.077,-163 539.077,-163"/>
<polygon fill="#000000" stroke="#000000" points="539.077,-159.5001 529.077,-163 539.0769,-166.5001 539.077,-159.5001"/>
</g>
<!-- FormsModule -->
<g id="node4" class="node">
<title>FormsModule</title>
<polygon fill="#8dd3c7" stroke="#000000" points="571.8288,-122 568.8288,-126 547.8288,-126 544.8288,-122 476.1712,-122 476.1712,-86 571.8288,-86 571.8288,-122"/>
<text text-anchor="middle" x="524" y="-99.8" font-family="Times,serif" font-size="14.00" fill="#000000">FormsModule</text>
</g>
<!-- FormsModule&#45;&gt;MenuPageModule -->
<g id="edge3" class="edge">
<title>FormsModule&#45;&gt;MenuPageModule</title>
<path fill="none" stroke="#000000" d="M502.5232,-122.1061C502.5232,-122.1061 502.5232,-140.991 502.5232,-140.991"/>
<polygon fill="#000000" stroke="#000000" points="499.0232,-140.9909 502.5232,-150.991 506.0232,-140.991 499.0232,-140.9909"/>
</g>
<!-- IonicModule -->
<g id="node5" class="node">
<title>IonicModule</title>
<polygon fill="#8dd3c7" stroke="#000000" points="458.3162,-122 455.3162,-126 434.3162,-126 431.3162,-122 369.6838,-122 369.6838,-86 458.3162,-86 458.3162,-122"/>
<text text-anchor="middle" x="414" y="-99.8" font-family="Times,serif" font-size="14.00" fill="#000000">IonicModule</text>
</g>
<!-- IonicModule&#45;&gt;MenuPageModule -->
<g id="edge4" class="edge">
<title>IonicModule&#45;&gt;MenuPageModule</title>
<path fill="none" stroke="#000000" d="M433.7237,-122.1061C433.7237,-122.1061 433.7237,-140.991 433.7237,-140.991"/>
<polygon fill="#000000" stroke="#000000" points="430.2238,-140.9909 433.7237,-150.991 437.2238,-140.991 430.2238,-140.9909"/>
</g>
<!-- RouterModule.forChild(args) -->
<g id="node6" class="node">
<title>RouterModule.forChild(args)</title>
<polygon fill="#8dd3c7" stroke="#000000" points="351.7323,-122 348.7323,-126 327.7323,-126 324.7323,-122 170.2677,-122 170.2677,-86 351.7323,-86 351.7323,-122"/>
<text text-anchor="middle" x="261" y="-99.8" font-family="Times,serif" font-size="14.00" fill="#000000">RouterModule.forChild(args)</text>
</g>
<!-- RouterModule.forChild(args)&#45;&gt;MenuPageModule -->
<g id="edge5" class="edge">
<title>RouterModule.forChild(args)&#45;&gt;MenuPageModule</title>
<path fill="none" stroke="#000000" d="M261,-122.0225C261,-139.3734 261,-163 261,-163 261,-163 399.1168,-163 399.1168,-163"/>
<polygon fill="#000000" stroke="#000000" points="399.1169,-166.5001 409.1168,-163 399.1168,-159.5001 399.1169,-166.5001"/>
</g>
<!-- BookService -->
<g id="node7" class="node">
<title>BookService</title>
<ellipse fill="#fdb462" stroke="#000000" cx="85" cy="-104" rx="60.8352" ry="18"/>
<text text-anchor="middle" x="85" y="-99.8" font-family="Times,serif" font-size="14.00" fill="#000000">BookService</text>
</g>
<!-- BookService&#45;&gt;MenuPageModule -->
<g id="edge6" class="edge">
<title>BookService&#45;&gt;MenuPageModule</title>
<path fill="none" stroke="#000000" d="M85,-122.2843C85,-143.3211 85,-175 85,-175 85,-175 399,-175 399,-175"/>
<polygon fill="#000000" stroke="#000000" points="399,-178.5001 409,-175 399,-171.5001 399,-178.5001"/>
</g>
</g>
</svg>
