<?xml version="1.0" encoding="UTF-8" standalone="no"?>
<!DOCTYPE svg PUBLIC "-//W3C//DTD SVG 1.1//EN"
 "http://www.w3.org/Graphics/SVG/1.1/DTD/svg11.dtd">
<!-- Generated by graphviz version 2.40.1 (20161225.0304)
 -->
<!-- Title: dependencies Pages: 1 -->
<svg width="504pt" height="211pt"
 viewBox="0.00 0.00 504.00 211.00" xmlns="http://www.w3.org/2000/svg" xmlns:xlink="http://www.w3.org/1999/xlink">
<g id="graph0" class="graph" transform="scale(1 1) rotate(0) translate(4 207)">
<title>dependencies</title>
<polygon fill="#ffffff" stroke="transparent" points="-4,4 -4,-207 500,-207 500,4 -4,4"/>
<text text-anchor="start" x="227.0091" y="-42.4" font-family="sans-serif" font-weight="bold" font-size="14.00" fill="#000000">Legend</text>
<polygon fill="#ffffb3" stroke="transparent" points="14,-10 14,-30 34,-30 34,-10 14,-10"/>
<text text-anchor="start" x="37.629" y="-15.4" font-family="sans-serif" font-size="14.00" fill="#000000"> &#160;Declarations</text>
<polygon fill="#8dd3c7" stroke="transparent" points="127,-10 127,-30 147,-30 147,-10 127,-10"/>
<text text-anchor="start" x="150.7251" y="-15.4" font-family="sans-serif" font-size="14.00" fill="#000000"> &#160;Module</text>
<polygon fill="#80b1d3" stroke="transparent" points="213,-10 213,-30 233,-30 233,-10 213,-10"/>
<text text-anchor="start" x="236.7812" y="-15.4" font-family="sans-serif" font-size="14.00" fill="#000000"> &#160;Bootstrap</text>
<polygon fill="#fdb462" stroke="transparent" points="310,-10 310,-30 330,-30 330,-10 310,-10"/>
<text text-anchor="start" x="333.6732" y="-15.4" font-family="sans-serif" font-size="14.00" fill="#000000"> &#160;Providers</text>
<polygon fill="#fb8072" stroke="transparent" points="406,-10 406,-30 426,-30 426,-10 406,-10"/>
<text text-anchor="start" x="429.7258" y="-15.4" font-family="sans-serif" font-size="14.00" fill="#000000"> &#160;Exports</text>
<g id="clust1" class="cluster">
<title>cluster_MenuPageModule</title>
<polygon fill="none" stroke="#000000" stroke-dasharray="1,5" points="121,-70 121,-195 375,-195 375,-70 121,-70"/>
</g>
<g id="clust2" class="cluster">
<title>cluster_MenuPageModule_declarations</title>
<polygon fill="none" stroke="#000000" points="275,-78 275,-130 367,-130 367,-78 275,-78"/>
</g>
<g id="clust7" class="cluster">
<title>cluster_MenuPageModule_providers</title>
<polygon fill="none" stroke="#000000" points="129,-78 129,-130 267,-130 267,-78 129,-78"/>
</g>
<!-- MenuPage -->
<g id="node1" class="node">
<title>MenuPage</title>
<polygon fill="#ffffb3" stroke="#000000" points="358.8711,-122 283.1289,-122 283.1289,-86 358.8711,-86 358.8711,-122"/>
<text text-anchor="middle" x="321" y="-99.8" font-family="Times,serif" font-size="14.00" fill="#000000">MenuPage</text>
</g>
<!-- MenuPageModule -->
<g id="node2" class="node">
<title>MenuPageModule</title>
<polygon fill="#8dd3c7" stroke="#000000" points="311.9215,-187 308.9215,-191 287.9215,-191 284.9215,-187 192.0785,-187 192.0785,-151 311.9215,-151 311.9215,-187"/>
<text text-anchor="middle" x="252" y="-164.8" font-family="Times,serif" font-size="14.00" fill="#000000">MenuPageModule</text>
</g>
<!-- MenuPage&#45;&gt;MenuPageModule -->
<g id="edge1" class="edge">
<title>MenuPage&#45;&gt;MenuPageModule</title>
<path fill="none" stroke="#000000" d="M297.3875,-122.1061C297.3875,-122.1061 297.3875,-140.991 297.3875,-140.991"/>
<polygon fill="#000000" stroke="#000000" points="293.8875,-140.9909 297.3875,-150.991 300.8875,-140.991 293.8875,-140.9909"/>
</g>
<!-- BookService -->
<g id="node3" class="node">
<title>BookService</title>
<ellipse fill="#fdb462" stroke="#000000" cx="198" cy="-104" rx="60.8352" ry="18"/>
<text text-anchor="middle" x="198" y="-99.8" font-family="Times,serif" font-size="14.00" fill="#000000">BookService</text>
</g>
<!-- BookService&#45;&gt;MenuPageModule -->
<g id="edge2" class="edge">
<title>BookService&#45;&gt;MenuPageModule</title>
<path fill="none" stroke="#000000" d="M225.6036,-120.0674C225.6036,-120.0674 225.6036,-140.8237 225.6036,-140.8237"/>
<polygon fill="#000000" stroke="#000000" points="222.1037,-140.8236 225.6036,-150.8237 229.1037,-140.8237 222.1037,-140.8236"/>
</g>
</g>
</svg>
