<?xml version="1.0" encoding="UTF-8" standalone="no"?>
<!DOCTYPE svg PUBLIC "-//W3C//DTD SVG 1.1//EN"
 "http://www.w3.org/Graphics/SVG/1.1/DTD/svg11.dtd">
<!-- Generated by graphviz version 2.40.1 (20161225.0304)
 -->
<!-- Title: dependencies Pages: 1 -->
<svg width="504pt" height="211pt"
 viewBox="0.00 0.00 504.00 211.00" xmlns="http://www.w3.org/2000/svg" xmlns:xlink="http://www.w3.org/1999/xlink">
<g id="graph0" class="graph" transform="scale(1 1) rotate(0) translate(4 207)">
<title>dependencies</title>
<polygon fill="#ffffff" stroke="transparent" points="-4,4 -4,-207 500,-207 500,4 -4,4"/>
<text text-anchor="start" x="227.0091" y="-42.4" font-family="sans-serif" font-weight="bold" font-size="14.00" fill="#000000">Legend</text>
<polygon fill="#ffffb3" stroke="transparent" points="14,-10 14,-30 34,-30 34,-10 14,-10"/>
<text text-anchor="start" x="37.629" y="-15.4" font-family="sans-serif" font-size="14.00" fill="#000000"> &#160;Declarations</text>
<polygon fill="#8dd3c7" stroke="transparent" points="127,-10 127,-30 147,-30 147,-10 127,-10"/>
<text text-anchor="start" x="150.7251" y="-15.4" font-family="sans-serif" font-size="14.00" fill="#000000"> &#160;Module</text>
<polygon fill="#80b1d3" stroke="transparent" points="213,-10 213,-30 233,-30 233,-10 213,-10"/>
<text text-anchor="start" x="236.7812" y="-15.4" font-family="sans-serif" font-size="14.00" fill="#000000"> &#160;Bootstrap</text>
<polygon fill="#fdb462" stroke="transparent" points="310,-10 310,-30 330,-30 330,-10 310,-10"/>
<text text-anchor="start" x="333.6732" y="-15.4" font-family="sans-serif" font-size="14.00" fill="#000000"> &#160;Providers</text>
<polygon fill="#fb8072" stroke="transparent" points="406,-10 406,-30 426,-30 426,-10 406,-10"/>
<text text-anchor="start" x="429.7258" y="-15.4" font-family="sans-serif" font-size="14.00" fill="#000000"> &#160;Exports</text>
<g id="clust1" class="cluster">
<title>cluster_MenuPageModule</title>
<polygon fill="none" stroke="#000000" stroke-dasharray="1,5" points="29,-70 29,-195 467,-195 467,-70 29,-70"/>
</g>
<g id="clust2" class="cluster">
<title>cluster_MenuPageModule_declarations</title>
<polygon fill="none" stroke="#000000" points="367,-78 367,-130 459,-130 459,-78 367,-78"/>
</g>
<g id="clust7" class="cluster">
<title>cluster_MenuPageModule_providers</title>
<polygon fill="none" stroke="#000000" points="37,-78 37,-130 359,-130 359,-78 37,-78"/>
</g>
<!-- MenuPage -->
<g id="node1" class="node">
<title>MenuPage</title>
<polygon fill="#ffffb3" stroke="#000000" points="450.8711,-122 375.1289,-122 375.1289,-86 450.8711,-86 450.8711,-122"/>
<text text-anchor="middle" x="413" y="-99.8" font-family="Times,serif" font-size="14.00" fill="#000000">MenuPage</text>
</g>
<!-- MenuPageModule -->
<g id="node2" class="node">
<title>MenuPageModule</title>
<polygon fill="#8dd3c7" stroke="#000000" points="349.9215,-187 346.9215,-191 325.9215,-191 322.9215,-187 230.0785,-187 230.0785,-151 349.9215,-151 349.9215,-187"/>
<text text-anchor="middle" x="290" y="-164.8" font-family="Times,serif" font-size="14.00" fill="#000000">MenuPageModule</text>
</g>
<!-- MenuPage&#45;&gt;MenuPageModule -->
<g id="edge1" class="edge">
<title>MenuPage&#45;&gt;MenuPageModule</title>
<path fill="none" stroke="#000000" d="M413,-122.1061C413,-141.3391 413,-169 413,-169 413,-169 360.0587,-169 360.0587,-169"/>
<polygon fill="#000000" stroke="#000000" points="360.0587,-165.5001 350.0587,-169 360.0587,-172.5001 360.0587,-165.5001"/>
</g>
<!-- BookService -->
<g id="node3" class="node">
<title>BookService</title>
<ellipse fill="#fdb462" stroke="#000000" cx="290" cy="-104" rx="60.8352" ry="18"/>
<text text-anchor="middle" x="290" y="-99.8" font-family="Times,serif" font-size="14.00" fill="#000000">BookService</text>
</g>
<!-- BookService&#45;&gt;MenuPageModule -->
<g id="edge2" class="edge">
<title>BookService&#45;&gt;MenuPageModule</title>
<path fill="none" stroke="#000000" d="M290,-122.1061C290,-122.1061 290,-140.991 290,-140.991"/>
<polygon fill="#000000" stroke="#000000" points="286.5001,-140.9909 290,-150.991 293.5001,-140.991 286.5001,-140.9909"/>
</g>
<!-- FileUploadService -->
<g id="node4" class="node">
<title>FileUploadService</title>
<ellipse fill="#fdb462" stroke="#000000" cx="128" cy="-104" rx="83.3828" ry="18"/>
<text text-anchor="middle" x="128" y="-99.8" font-family="Times,serif" font-size="14.00" fill="#000000">FileUploadService</text>
</g>
<!-- FileUploadService&#45;&gt;MenuPageModule -->
<g id="edge3" class="edge">
<title>FileUploadService&#45;&gt;MenuPageModule</title>
<path fill="none" stroke="#000000" d="M128,-122.1061C128,-141.3391 128,-169 128,-169 128,-169 220.1374,-169 220.1374,-169"/>
<polygon fill="#000000" stroke="#000000" points="220.1375,-172.5001 230.1374,-169 220.1374,-165.5001 220.1375,-172.5001"/>
</g>
</g>
</svg>
