<?xml version="1.0" encoding="UTF-8" standalone="no"?>
<!DOCTYPE svg PUBLIC "-//W3C//DTD SVG 1.1//EN"
 "http://www.w3.org/Graphics/SVG/1.1/DTD/svg11.dtd">
<!-- Generated by graphviz version 2.40.1 (20161225.0304)
 -->
<!-- Title: dependencies Pages: 1 -->
<svg width="504pt" height="211pt"
 viewBox="0.00 0.00 504.00 211.00" xmlns="http://www.w3.org/2000/svg" xmlns:xlink="http://www.w3.org/1999/xlink">
<g id="graph0" class="graph" transform="scale(1 1) rotate(0) translate(4 207)">
<title>dependencies</title>
<polygon fill="#ffffff" stroke="transparent" points="-4,4 -4,-207 500,-207 500,4 -4,4"/>
<text text-anchor="start" x="227.0091" y="-42.4" font-family="sans-serif" font-weight="bold" font-size="14.00" fill="#000000">Legend</text>
<polygon fill="#ffffb3" stroke="transparent" points="14,-10 14,-30 34,-30 34,-10 14,-10"/>
<text text-anchor="start" x="37.629" y="-15.4" font-family="sans-serif" font-size="14.00" fill="#000000"> &#160;Declarations</text>
<polygon fill="#8dd3c7" stroke="transparent" points="127,-10 127,-30 147,-30 147,-10 127,-10"/>
<text text-anchor="start" x="150.7251" y="-15.4" font-family="sans-serif" font-size="14.00" fill="#000000"> &#160;Module</text>
<polygon fill="#80b1d3" stroke="transparent" points="213,-10 213,-30 233,-30 233,-10 213,-10"/>
<text text-anchor="start" x="236.7812" y="-15.4" font-family="sans-serif" font-size="14.00" fill="#000000"> &#160;Bootstrap</text>
<polygon fill="#fdb462" stroke="transparent" points="310,-10 310,-30 330,-30 330,-10 310,-10"/>
<text text-anchor="start" x="333.6732" y="-15.4" font-family="sans-serif" font-size="14.00" fill="#000000"> &#160;Providers</text>
<polygon fill="#fb8072" stroke="transparent" points="406,-10 406,-30 426,-30 426,-10 406,-10"/>
<text text-anchor="start" x="429.7258" y="-15.4" font-family="sans-serif" font-size="14.00" fill="#000000"> &#160;Exports</text>
<g id="clust1" class="cluster">
<title>cluster_SignupPageModule</title>
<polygon fill="none" stroke="#000000" stroke-dasharray="1,5" points="121,-70 121,-195 375,-195 375,-70 121,-70"/>
</g>
<g id="clust2" class="cluster">
<title>cluster_SignupPageModule_declarations</title>
<polygon fill="none" stroke="#000000" points="269,-78 269,-130 367,-130 367,-78 269,-78"/>
</g>
<g id="clust7" class="cluster">
<title>cluster_SignupPageModule_providers</title>
<polygon fill="none" stroke="#000000" points="129,-78 129,-130 261,-130 261,-78 129,-78"/>
</g>
<!-- SignupPage -->
<g id="node1" class="node">
<title>SignupPage</title>
<polygon fill="#ffffb3" stroke="#000000" points="359.3851,-122 276.6149,-122 276.6149,-86 359.3851,-86 359.3851,-122"/>
<text text-anchor="middle" x="318" y="-99.8" font-family="Times,serif" font-size="14.00" fill="#000000">SignupPage</text>
</g>
<!-- SignupPageModule -->
<g id="node2" class="node">
<title>SignupPageModule</title>
<polygon fill="#8dd3c7" stroke="#000000" points="312.4356,-187 309.4356,-191 288.4356,-191 285.4356,-187 185.5644,-187 185.5644,-151 312.4356,-151 312.4356,-187"/>
<text text-anchor="middle" x="249" y="-164.8" font-family="Times,serif" font-size="14.00" fill="#000000">SignupPageModule</text>
</g>
<!-- SignupPage&#45;&gt;SignupPageModule -->
<g id="edge1" class="edge">
<title>SignupPage&#45;&gt;SignupPageModule</title>
<path fill="none" stroke="#000000" d="M294.3875,-122.1061C294.3875,-122.1061 294.3875,-140.991 294.3875,-140.991"/>
<polygon fill="#000000" stroke="#000000" points="290.8875,-140.9909 294.3875,-150.991 297.8875,-140.991 290.8875,-140.9909"/>
</g>
<!-- UserService -->
<g id="node3" class="node">
<title>UserService</title>
<ellipse fill="#fdb462" stroke="#000000" cx="195" cy="-104" rx="58.4415" ry="18"/>
<text text-anchor="middle" x="195" y="-99.8" font-family="Times,serif" font-size="14.00" fill="#000000">UserService</text>
</g>
<!-- UserService&#45;&gt;SignupPageModule -->
<g id="edge2" class="edge">
<title>UserService&#45;&gt;SignupPageModule</title>
<path fill="none" stroke="#000000" d="M219.5015,-120.4022C219.5015,-120.4022 219.5015,-140.5366 219.5015,-140.5366"/>
<polygon fill="#000000" stroke="#000000" points="216.0016,-140.5366 219.5015,-150.5366 223.0016,-140.5367 216.0016,-140.5366"/>
</g>
</g>
</svg>
