<?xml version="1.0" encoding="UTF-8" standalone="no"?>
<!DOCTYPE svg PUBLIC "-//W3C//DTD SVG 1.1//EN"
 "http://www.w3.org/Graphics/SVG/1.1/DTD/svg11.dtd">
<!-- Generated by graphviz version 2.40.1 (20161225.0304)
 -->
<!-- Title: dependencies Pages: 1 -->
<svg width="1011pt" height="211pt"
 viewBox="0.00 0.00 1011.00 211.00" xmlns="http://www.w3.org/2000/svg" xmlns:xlink="http://www.w3.org/1999/xlink">
<g id="graph0" class="graph" transform="scale(1 1) rotate(0) translate(4 207)">
<title>dependencies</title>
<polygon fill="#ffffff" stroke="transparent" points="-4,4 -4,-207 1007,-207 1007,4 -4,4"/>
<text text-anchor="start" x="480.5091" y="-42.4" font-family="sans-serif" font-weight="bold" font-size="14.00" fill="#000000">Legend</text>
<polygon fill="#ffffb3" stroke="transparent" points="267.5,-10 267.5,-30 287.5,-30 287.5,-10 267.5,-10"/>
<text text-anchor="start" x="291.129" y="-15.4" font-family="sans-serif" font-size="14.00" fill="#000000"> &#160;Declarations</text>
<polygon fill="#8dd3c7" stroke="transparent" points="380.5,-10 380.5,-30 400.5,-30 400.5,-10 380.5,-10"/>
<text text-anchor="start" x="404.2251" y="-15.4" font-family="sans-serif" font-size="14.00" fill="#000000"> &#160;Module</text>
<polygon fill="#80b1d3" stroke="transparent" points="466.5,-10 466.5,-30 486.5,-30 486.5,-10 466.5,-10"/>
<text text-anchor="start" x="490.2812" y="-15.4" font-family="sans-serif" font-size="14.00" fill="#000000"> &#160;Bootstrap</text>
<polygon fill="#fdb462" stroke="transparent" points="563.5,-10 563.5,-30 583.5,-30 583.5,-10 563.5,-10"/>
<text text-anchor="start" x="587.1732" y="-15.4" font-family="sans-serif" font-size="14.00" fill="#000000"> &#160;Providers</text>
<polygon fill="#fb8072" stroke="transparent" points="659.5,-10 659.5,-30 679.5,-30 679.5,-10 659.5,-10"/>
<text text-anchor="start" x="683.2258" y="-15.4" font-family="sans-serif" font-size="14.00" fill="#000000"> &#160;Exports</text>
<g id="clust1" class="cluster">
<title>cluster_SignupPageModule</title>
<polygon fill="none" stroke="#000000" stroke-dasharray="1,5" points="8,-70 8,-195 995,-195 995,-70 8,-70"/>
</g>
<g id="clust2" class="cluster">
<title>cluster_SignupPageModule_declarations</title>
<polygon fill="none" stroke="#000000" points="889,-78 889,-130 987,-130 987,-78 889,-78"/>
</g>
<g id="clust4" class="cluster">
<title>cluster_SignupPageModule_imports</title>
<polygon fill="none" stroke="#000000" points="156,-78 156,-130 881,-130 881,-78 156,-78"/>
</g>
<g id="clust7" class="cluster">
<title>cluster_SignupPageModule_providers</title>
<polygon fill="none" stroke="#000000" points="16,-78 16,-130 148,-130 148,-78 16,-78"/>
</g>
<!-- SignupPage -->
<g id="node1" class="node">
<title>SignupPage</title>
<polygon fill="#ffffb3" stroke="#000000" points="979.3851,-122 896.6149,-122 896.6149,-86 979.3851,-86 979.3851,-122"/>
<text text-anchor="middle" x="938" y="-99.8" font-family="Times,serif" font-size="14.00" fill="#000000">SignupPage</text>
</g>
<!-- SignupPageModule -->
<g id="node2" class="node">
<title>SignupPageModule</title>
<polygon fill="#8dd3c7" stroke="#000000" points="609.4356,-187 606.4356,-191 585.4356,-191 582.4356,-187 482.5644,-187 482.5644,-151 609.4356,-151 609.4356,-187"/>
<text text-anchor="middle" x="546" y="-164.8" font-family="Times,serif" font-size="14.00" fill="#000000">SignupPageModule</text>
</g>
<!-- SignupPage&#45;&gt;SignupPageModule -->
<g id="edge1" class="edge">
<title>SignupPage&#45;&gt;SignupPageModule</title>
<path fill="none" stroke="#000000" d="M938,-122.2921C938,-144.2057 938,-178 938,-178 938,-178 619.4172,-178 619.4172,-178"/>
<polygon fill="#000000" stroke="#000000" points="619.4173,-174.5001 609.4172,-178 619.4172,-181.5001 619.4173,-174.5001"/>
</g>
<!-- CommonModule -->
<g id="node3" class="node">
<title>CommonModule</title>
<polygon fill="#8dd3c7" stroke="#000000" points="872.6681,-122 869.6681,-126 848.6681,-126 845.6681,-122 761.3319,-122 761.3319,-86 872.6681,-86 872.6681,-122"/>
<text text-anchor="middle" x="817" y="-99.8" font-family="Times,serif" font-size="14.00" fill="#000000">CommonModule</text>
</g>
<!-- CommonModule&#45;&gt;SignupPageModule -->
<g id="edge2" class="edge">
<title>CommonModule&#45;&gt;SignupPageModule</title>
<path fill="none" stroke="#000000" d="M817,-122.1061C817,-141.3391 817,-169 817,-169 817,-169 619.5375,-169 619.5375,-169"/>
<polygon fill="#000000" stroke="#000000" points="619.5375,-165.5001 609.5375,-169 619.5374,-172.5001 619.5375,-165.5001"/>
</g>
<!-- IonicModule -->
<g id="node4" class="node">
<title>IonicModule</title>
<polygon fill="#8dd3c7" stroke="#000000" points="743.3162,-122 740.3162,-126 719.3162,-126 716.3162,-122 654.6838,-122 654.6838,-86 743.3162,-86 743.3162,-122"/>
<text text-anchor="middle" x="699" y="-99.8" font-family="Times,serif" font-size="14.00" fill="#000000">IonicModule</text>
</g>
<!-- IonicModule&#45;&gt;SignupPageModule -->
<g id="edge3" class="edge">
<title>IonicModule&#45;&gt;SignupPageModule</title>
<path fill="none" stroke="#000000" d="M699,-122.027C699,-138.3976 699,-160 699,-160 699,-160 619.5566,-160 619.5566,-160"/>
<polygon fill="#000000" stroke="#000000" points="619.5566,-156.5001 609.5566,-160 619.5565,-163.5001 619.5566,-156.5001"/>
</g>
<!-- RouterModule.forChild(args) -->
<g id="node5" class="node">
<title>RouterModule.forChild(args)</title>
<polygon fill="#8dd3c7" stroke="#000000" points="636.7323,-122 633.7323,-126 612.7323,-126 609.7323,-122 455.2677,-122 455.2677,-86 636.7323,-86 636.7323,-122"/>
<text text-anchor="middle" x="546" y="-99.8" font-family="Times,serif" font-size="14.00" fill="#000000">RouterModule.forChild(args)</text>
</g>
<!-- RouterModule.forChild(args)&#45;&gt;SignupPageModule -->
<g id="edge4" class="edge">
<title>RouterModule.forChild(args)&#45;&gt;SignupPageModule</title>
<path fill="none" stroke="#000000" d="M546,-122.1061C546,-122.1061 546,-140.991 546,-140.991"/>
<polygon fill="#000000" stroke="#000000" points="542.5001,-140.9909 546,-150.991 549.5001,-140.991 542.5001,-140.9909"/>
</g>
<!-- MatInputModule -->
<g id="node6" class="node">
<title>MatInputModule</title>
<polygon fill="#8dd3c7" stroke="#000000" points="437.6513,-122 434.6513,-126 413.6513,-126 410.6513,-122 326.3487,-122 326.3487,-86 437.6513,-86 437.6513,-122"/>
<text text-anchor="middle" x="382" y="-99.8" font-family="Times,serif" font-size="14.00" fill="#000000">MatInputModule</text>
</g>
<!-- MatInputModule&#45;&gt;SignupPageModule -->
<g id="edge5" class="edge">
<title>MatInputModule&#45;&gt;SignupPageModule</title>
<path fill="none" stroke="#000000" d="M382,-122.027C382,-138.3976 382,-160 382,-160 382,-160 472.5933,-160 472.5933,-160"/>
<polygon fill="#000000" stroke="#000000" points="472.5934,-163.5001 482.5933,-160 472.5933,-156.5001 472.5934,-163.5001"/>
</g>
<!-- ReactiveFormsModule -->
<g id="node7" class="node">
<title>ReactiveFormsModule</title>
<polygon fill="#8dd3c7" stroke="#000000" points="308.3047,-122 305.3047,-126 284.3047,-126 281.3047,-122 163.6953,-122 163.6953,-86 308.3047,-86 308.3047,-122"/>
<text text-anchor="middle" x="236" y="-99.8" font-family="Times,serif" font-size="14.00" fill="#000000">ReactiveFormsModule</text>
</g>
<!-- ReactiveFormsModule&#45;&gt;SignupPageModule -->
<g id="edge6" class="edge">
<title>ReactiveFormsModule&#45;&gt;SignupPageModule</title>
<path fill="none" stroke="#000000" d="M236,-122.1061C236,-141.3391 236,-169 236,-169 236,-169 472.5188,-169 472.5188,-169"/>
<polygon fill="#000000" stroke="#000000" points="472.5189,-172.5001 482.5188,-169 472.5188,-165.5001 472.5189,-172.5001"/>
</g>
<!-- UserService -->
<g id="node8" class="node">
<title>UserService</title>
<ellipse fill="#fdb462" stroke="#000000" cx="82" cy="-104" rx="58.4415" ry="18"/>
<text text-anchor="middle" x="82" y="-99.8" font-family="Times,serif" font-size="14.00" fill="#000000">UserService</text>
</g>
<!-- UserService&#45;&gt;SignupPageModule -->
<g id="edge7" class="edge">
<title>UserService&#45;&gt;SignupPageModule</title>
<path fill="none" stroke="#000000" d="M82,-122.2921C82,-144.2057 82,-178 82,-178 82,-178 472.4557,-178 472.4557,-178"/>
<polygon fill="#000000" stroke="#000000" points="472.4557,-181.5001 482.4557,-178 472.4556,-174.5001 472.4557,-181.5001"/>
</g>
</g>
</svg>
