<?xml version="1.0" encoding="UTF-8" standalone="no"?>
<!DOCTYPE svg PUBLIC "-//W3C//DTD SVG 1.1//EN"
 "http://www.w3.org/Graphics/SVG/1.1/DTD/svg11.dtd">
<!-- Generated by graphviz version 2.40.1 (20161225.0304)
 -->
<!-- Title: dependencies Pages: 1 -->
<svg width="504pt" height="211pt"
 viewBox="0.00 0.00 504.00 211.00" xmlns="http://www.w3.org/2000/svg" xmlns:xlink="http://www.w3.org/1999/xlink">
<g id="graph0" class="graph" transform="scale(1 1) rotate(0) translate(4 207)">
<title>dependencies</title>
<polygon fill="#ffffff" stroke="transparent" points="-4,4 -4,-207 500,-207 500,4 -4,4"/>
<text text-anchor="start" x="227.0091" y="-42.4" font-family="sans-serif" font-weight="bold" font-size="14.00" fill="#000000">Legend</text>
<polygon fill="#ffffb3" stroke="transparent" points="14,-10 14,-30 34,-30 34,-10 14,-10"/>
<text text-anchor="start" x="37.629" y="-15.4" font-family="sans-serif" font-size="14.00" fill="#000000"> &#160;Declarations</text>
<polygon fill="#8dd3c7" stroke="transparent" points="127,-10 127,-30 147,-30 147,-10 127,-10"/>
<text text-anchor="start" x="150.7251" y="-15.4" font-family="sans-serif" font-size="14.00" fill="#000000"> &#160;Module</text>
<polygon fill="#80b1d3" stroke="transparent" points="213,-10 213,-30 233,-30 233,-10 213,-10"/>
<text text-anchor="start" x="236.7812" y="-15.4" font-family="sans-serif" font-size="14.00" fill="#000000"> &#160;Bootstrap</text>
<polygon fill="#fdb462" stroke="transparent" points="310,-10 310,-30 330,-30 330,-10 310,-10"/>
<text text-anchor="start" x="333.6732" y="-15.4" font-family="sans-serif" font-size="14.00" fill="#000000"> &#160;Providers</text>
<polygon fill="#fb8072" stroke="transparent" points="406,-10 406,-30 426,-30 426,-10 406,-10"/>
<text text-anchor="start" x="429.7258" y="-15.4" font-family="sans-serif" font-size="14.00" fill="#000000"> &#160;Exports</text>
<g id="clust1" class="cluster">
<title>cluster_BooksearchPageModule</title>
<polygon fill="none" stroke="#000000" stroke-dasharray="1,5" points="31,-70 31,-195 465,-195 465,-70 31,-70"/>
</g>
<g id="clust2" class="cluster">
<title>cluster_BooksearchPageModule_declarations</title>
<polygon fill="none" stroke="#000000" points="39,-78 39,-130 457,-130 457,-78 39,-78"/>
</g>
<!-- BookSearchView -->
<g id="node1" class="node">
<title>BookSearchView</title>
<polygon fill="#ffffb3" stroke="#000000" points="449.2423,-122 334.7577,-122 334.7577,-86 449.2423,-86 449.2423,-122"/>
<text text-anchor="middle" x="392" y="-99.8" font-family="Times,serif" font-size="14.00" fill="#000000">BookSearchView</text>
</g>
<!-- BooksearchPageModule -->
<g id="node4" class="node">
<title>BooksearchPageModule</title>
<polygon fill="#8dd3c7" stroke="#000000" points="322.3473,-187 319.3473,-191 298.3473,-191 295.3473,-187 169.6527,-187 169.6527,-151 322.3473,-151 322.3473,-187"/>
<text text-anchor="middle" x="246" y="-164.8" font-family="Times,serif" font-size="14.00" fill="#000000">BooksearchPageModule</text>
</g>
<!-- BookSearchView&#45;&gt;BooksearchPageModule -->
<g id="edge1" class="edge">
<title>BookSearchView&#45;&gt;BooksearchPageModule</title>
<path fill="none" stroke="#000000" d="M392,-122.1061C392,-141.3391 392,-169 392,-169 392,-169 332.4208,-169 332.4208,-169"/>
<polygon fill="#000000" stroke="#000000" points="332.4208,-165.5001 322.4208,-169 332.4207,-172.5001 332.4208,-165.5001"/>
</g>
<!-- BookViewComponent -->
<g id="node2" class="node">
<title>BookViewComponent</title>
<polygon fill="#ffffb3" stroke="#000000" points="316.9874,-122 175.0126,-122 175.0126,-86 316.9874,-86 316.9874,-122"/>
<text text-anchor="middle" x="246" y="-99.8" font-family="Times,serif" font-size="14.00" fill="#000000">BookViewComponent</text>
</g>
<!-- BookViewComponent&#45;&gt;BooksearchPageModule -->
<g id="edge2" class="edge">
<title>BookViewComponent&#45;&gt;BooksearchPageModule</title>
<path fill="none" stroke="#000000" d="M246,-122.1061C246,-122.1061 246,-140.991 246,-140.991"/>
<polygon fill="#000000" stroke="#000000" points="242.5001,-140.9909 246,-150.991 249.5001,-140.991 242.5001,-140.9909"/>
</g>
<!-- BooksearchPage -->
<g id="node3" class="node">
<title>BooksearchPage</title>
<polygon fill="#ffffb3" stroke="#000000" points="156.7978,-122 47.2022,-122 47.2022,-86 156.7978,-86 156.7978,-122"/>
<text text-anchor="middle" x="102" y="-99.8" font-family="Times,serif" font-size="14.00" fill="#000000">BooksearchPage</text>
</g>
<!-- BooksearchPage&#45;&gt;BooksearchPageModule -->
<g id="edge3" class="edge">
<title>BooksearchPage&#45;&gt;BooksearchPageModule</title>
<path fill="none" stroke="#000000" d="M102,-122.1061C102,-141.3391 102,-169 102,-169 102,-169 159.3622,-169 159.3622,-169"/>
<polygon fill="#000000" stroke="#000000" points="159.3623,-172.5001 169.3622,-169 159.3622,-165.5001 159.3623,-172.5001"/>
</g>
</g>
</svg>
